<?xml version="1.0" encoding="UTF-8"?>
<svg version="1.1" xmlns="http://www.w3.org/2000/svg" width="512" height="512">
<path d="M0 0 C2.29299574 -0.00456783 4.58599012 -0.00987518 6.87898254 -0.0158844 C11.66571648 -0.02478282 16.45228325 -0.02242773 21.23901367 -0.01245117 C27.35867465 -0.00093598 33.47776078 -0.02122923 39.59734631 -0.05036831 C44.32525768 -0.06874678 49.05303148 -0.06843502 53.78096962 -0.06273079 C56.03711061 -0.06257794 58.29326115 -0.06859221 60.5493679 -0.08102226 C63.70539528 -0.09597011 66.86036228 -0.08522846 70.01635742 -0.06811523 C70.93762421 -0.0777832 71.85889099 -0.08745117 72.80807495 -0.09741211 C82.33279915 0.01023899 90.51134255 3.86920537 97.39453125 10.43359375 C103.25190969 17.66765094 105.30693472 24.35169794 106.39453125 33.43359375 C107.42191406 33.62953125 108.44929688 33.82546875 109.5078125 34.02734375 C119.90628385 36.19358712 128.55319834 39.18387308 135.328125 47.9296875 C140.63694281 56.29394002 141.66249259 63.47813615 141.52734375 73.1875 C141.52814995 75.27929834 141.53081005 77.37109664 141.53515625 79.46289062 C141.53318813 82.73759236 141.51933007 86.01050948 141.47363281 89.28491211 C141.43456723 92.46184951 141.44570537 95.63544974 141.46484375 98.8125 C141.43915314 99.78764053 141.41346252 100.76278107 141.38699341 101.76747131 C141.36139955 106.93181327 141.36139955 106.93181327 144.06195068 111.07321167 C145.47003364 112.02124532 146.88865451 112.95377943 148.31639099 113.87194824 C152.32463188 116.88399296 154.03128962 120.68902167 155.39453125 125.43359375 C156.07043695 130.98909084 156.07628187 136.4733596 156.0234375 142.0625 C156.024268 143.66332663 156.02673418 145.26415316 156.03074646 146.86497498 C156.0335904 150.20443684 156.01904081 153.54322279 155.99145508 156.88256836 C155.95734627 161.14158743 155.96341281 165.39940165 155.98211765 169.65847874 C155.99273511 172.95901866 155.98370754 176.25928293 155.96873283 179.55979729 C155.96358715 181.12931434 155.96398843 182.69886061 155.97027779 184.26837349 C155.99984122 196.07399425 154.61135999 204.73209904 146.3203125 213.64453125 C138.11642427 221.26599334 129.91475028 222.74135226 119.01953125 222.55859375 C117.99730469 222.54957031 116.97507812 222.54054687 115.921875 222.53125 C113.41251603 222.50779805 110.90364789 222.4749773 108.39453125 222.43359375 C108.14058594 223.15804687 107.88664062 223.8825 107.625 224.62890625 C104.03856112 232.80370978 96.16901522 241.53526202 88.51171875 246.18359375 C85.40793647 248.08872866 82.87557598 249.75967628 80.39453125 252.43359375 C78.99255119 258.33890368 79.27234574 264.14001174 82.39453125 269.43359375 C83.05453125 268.95921875 83.71453125 268.48484375 84.39453125 267.99609375 C90.08652544 265.03151344 95.00254086 264.96444481 101.11694336 266.59301758 C105.6907971 268.28106329 109.6726203 271.07995618 113.76953125 273.68359375 C121.36939571 278.35896308 128.55658195 281.91501969 137.09350586 284.46557617 C142.04942361 285.95049324 146.68205396 287.72117051 151.33203125 289.99609375 C152.43417969 290.53363281 153.53632813 291.07117188 154.671875 291.625 C157.67812198 293.62197611 158.92136507 295.16275275 160.39453125 298.43359375 C160.32550076 301.88511813 160.04396443 303.68424777 157.76953125 306.30859375 C153.40193949 308.37745301 149.43207704 307.79874369 144.96484375 306.2265625 C143.82789063 305.69675781 142.6909375 305.16695313 141.51953125 304.62109375 C140.29660032 304.07062843 139.07263888 303.52244681 137.84765625 302.9765625 C136.708125 302.46738281 135.56859375 301.95820313 134.39453125 301.43359375 C132.69840412 300.73645675 130.99167864 300.06371722 129.26953125 299.43359375 C128.60695313 299.18609375 127.944375 298.93859375 127.26171875 298.68359375 C124.71503918 298.34261573 123.60255767 299.1615984 121.39453125 300.43359375 C119.74785652 301.78872032 119.74785652 301.78872032 118.20581055 303.37939453 C117.6080632 303.97406525 117.01031586 304.56873596 116.39445496 305.181427 C115.75897232 305.82409515 115.12348969 306.46676331 114.46875 307.12890625 C113.80293411 307.79518036 113.13711823 308.46145447 112.4511261 309.1479187 C111.04259943 310.55946436 109.63650192 311.97343756 108.23266602 313.38964844 C106.10541976 315.53500611 103.97042682 317.67239809 101.83398438 319.80859375 C100.46176976 321.18572993 99.09001062 322.56332015 97.71875 323.94140625 C96.77463509 324.8871904 96.77463509 324.8871904 95.81144714 325.8520813 C92.01900387 329.68437153 88.41435671 333.63006056 84.91014099 337.72802734 C83.03250288 339.84099641 81.01833256 341.59950476 78.76953125 343.30859375 C78.05539062 343.86289062 77.34125 344.4171875 76.60546875 344.98828125 C72.24061631 347.84163001 68.78053344 348.68385886 63.58203125 348.55859375 C62.60621094 348.54054688 61.63039062 348.5225 60.625 348.50390625 C59.52091797 348.46910156 59.52091797 348.46910156 58.39453125 348.43359375 C57.98267578 349.54154297 57.98267578 349.54154297 57.5625 350.671875 C56.17587761 353.95061088 54.31475405 356.72577256 52.3203125 359.6640625 C49.9740403 366.68307935 52.87251826 375.74518516 54.16040039 382.88452148 C54.42396584 384.37177986 54.42396584 384.37177986 54.69285583 385.88908386 C55.26841017 389.132398 55.84911262 392.37476869 56.4296875 395.6171875 C56.8322227 397.88250241 57.23435161 400.14788954 57.63609314 402.41334534 C58.6900506 408.35235394 59.74802563 414.29063852 60.80731201 420.22869873 C62.50694403 429.75701622 64.20295946 439.28597093 65.89419365 448.81578255 C66.48581211 452.14382391 67.08069571 455.47127062 67.67579651 458.7986908 C68.03668579 460.82857895 68.39744627 462.85849001 68.75805664 464.88842773 C68.92479889 465.81570679 69.09154114 466.74298584 69.26333618 467.69836426 C69.41334579 468.54628036 69.56335541 469.39419647 69.71791077 470.26780701 C69.84935014 471.00423652 69.98078951 471.74066603 70.11621189 472.49941158 C70.39453125 474.43359375 70.39453125 474.43359375 70.39453125 477.43359375 C70.96194031 477.42249069 71.52934937 477.41138763 72.11395264 477.39994812 C78.01851666 477.28934741 83.92278662 477.21392417 89.828125 477.15893555 C92.03202261 477.13378801 94.2358368 477.09966548 96.43945312 477.05639648 C99.60698011 476.99575689 102.77340485 476.96738626 105.94140625 476.9453125 C106.92695496 476.91950607 107.91250366 476.89369965 108.92791748 476.86711121 C115.75638221 476.86431014 115.75638221 476.86431014 119.01660156 479.77270508 C120.69778061 483.0191917 121.00832513 484.82755468 120.39453125 488.43359375 C118.16246694 491.28139994 116.84460126 492.28357041 113.39453125 493.43359375 C111.96692211 493.52470161 110.53543219 493.56090482 109.10491943 493.5622282 C108.22443089 493.56545265 107.34394236 493.5686771 106.43677235 493.57199925 C105.46860427 493.57045065 104.50043619 493.56890205 103.50292969 493.56730652 C102.47498889 493.56957208 101.44704809 493.57183763 100.38795757 493.57417184 C96.92659586 493.58052658 93.46527316 493.57968152 90.00390625 493.57885742 C87.52873178 493.5818481 85.05355778 493.58525042 82.5783844 493.58903503 C76.54118583 493.59697013 70.50400273 493.60009026 64.46680039 493.60064741 C59.55659069 493.60112251 54.64638422 493.60317695 49.73617554 493.60634804 C35.80922595 493.61515886 21.88228408 493.61976709 7.95533168 493.61901756 C7.20420797 493.61897761 6.45308426 493.61893765 5.67919922 493.61889648 C4.55113379 493.61883516 4.55113379 493.61883516 3.40027916 493.6187726 C-8.7718148 493.61836666 -20.94387775 493.62792193 -33.11596274 493.64203485 C-45.61970025 493.65641754 -58.12342267 493.6633039 -70.62716866 493.66244107 C-77.64464755 493.66210962 -84.662094 493.66483384 -91.67956543 493.67561913 C-98.28525973 493.68570639 -104.89089738 493.68536935 -111.4965992 493.67810249 C-113.9172685 493.67705826 -116.33794209 493.67940995 -118.75860405 493.68546295 C-122.07181524 493.69320898 -125.38479172 493.68852058 -128.69799805 493.68083191 C-129.64832035 493.68597547 -130.59864265 493.69111904 -131.5777626 493.69641846 C-145.64136459 493.62466432 -157.16531701 490.47319804 -167.56640625 480.66015625 C-178.87939153 468.30689646 -179.09610611 453.97426677 -178.99658203 438.10400391 C-178.98068841 435.10011031 -178.99638537 432.09759925 -179.015625 429.09375 C-179.05807387 390.64869789 -168.48323032 356.10672921 -143.60546875 326.43359375 C-142.87972656 325.56476563 -142.15398437 324.6959375 -141.40625 323.80078125 C-124.72144893 304.46083502 -101.13784243 289.99700127 -76.60546875 283.12109375 C-68.26204168 280.7559225 -61.55817135 276.41279429 -54.40991211 271.6171875 C-48.27964762 267.59614539 -42.96382213 264.53565475 -35.4609375 265.79296875 C-33.4921284 266.27512608 -31.54697223 266.85114271 -29.60546875 267.43359375 C-28.27379499 267.77349649 -26.94086145 268.1086088 -25.60546875 268.43359375 C-23.09508353 263.41282332 -23.28102202 257.7592052 -24.60546875 252.43359375 C-27.83757169 248.31221466 -32.55025736 245.61073907 -36.84033203 242.70410156 C-53.23591527 230.90290997 -60.67394056 209.38839167 -64.60546875 190.43359375 C-64.60546875 189.44359375 -64.60546875 188.45359375 -64.60546875 187.43359375 C-65.51167969 187.46839844 -66.41789062 187.50320312 -67.3515625 187.5390625 C-77.54328799 187.76554529 -85.42380265 187.27444009 -93.1015625 180.11328125 C-97.47610337 175.22743041 -99.68955218 169.89350005 -99.7824707 163.35864258 C-99.79530594 162.5671431 -99.80814117 161.77564362 -99.82136536 160.9601593 C-99.82875229 160.11221298 -99.83613922 159.26426666 -99.84375 158.390625 C-99.85182175 157.50759201 -99.85989349 156.62455902 -99.86820984 155.71476746 C-99.88202513 153.84624174 -99.89275868 151.97769105 -99.90063477 150.10913086 C-99.91213702 148.20931541 -99.93256096 146.30953182 -99.9621582 144.40991211 C-100.00508473 141.65326149 -100.02103938 138.89756947 -100.03125 136.140625 C-100.05751213 134.88388725 -100.05751213 134.88388725 -100.08430481 133.60176086 C-100.05868299 126.53185833 -98.12565475 120.66623739 -93.75390625 115.05859375 C-93.16867188 114.52234375 -92.5834375 113.98609375 -91.98046875 113.43359375 C-91.39007813 112.87671875 -90.7996875 112.31984375 -90.19140625 111.74609375 C-88.60546875 110.43359375 -88.60546875 110.43359375 -86.60546875 109.43359375 C-86.59088623 108.20954834 -86.57630371 106.98550293 -86.5612793 105.72436523 C-86.50258423 101.11129918 -86.42536706 96.49868565 -86.34301758 91.88598633 C-86.31009876 89.90298904 -86.28196824 87.91990547 -86.2590332 85.93676758 C-85.95605252 60.41548021 -81.42182866 39.55557103 -63.23046875 20.55859375 C-44.82369256 2.92090292 -24.38629482 -0.04262132 0 0 Z M-49.60546875 30.43359375 C-50.32476562 31.02785156 -51.0440625 31.62210938 -51.78515625 32.234375 C-62.84718817 42.28489817 -68.68176605 56.64670623 -69.83557129 71.36981201 C-70.15600423 78.10713011 -70.17583686 84.83915802 -70.12695312 91.58276367 C-70.10527591 95.15285349 -70.12697072 98.7209822 -70.15234375 102.29101562 C-70.14970431 104.571619 -70.14458732 106.85222117 -70.13671875 109.1328125 C-70.14481567 110.19424973 -70.1529126 111.25568695 -70.16125488 112.34928894 C-70.10485845 116.77318814 -70.06067208 119.63465516 -67.84277344 123.52734375 C-65.61682969 125.4239139 -64.05321207 126.38178687 -61.27734375 127.234375 C-60.478125 127.48896484 -59.67890625 127.74355469 -58.85546875 128.00585938 C-57.61796875 128.37227539 -57.61796875 128.37227539 -56.35546875 128.74609375 C-55.09476563 129.14151367 -55.09476563 129.14151367 -53.80859375 129.54492188 C-51.7455564 130.18962105 -49.67609035 130.81368543 -47.60546875 131.43359375 C-47.58564941 130.46123779 -47.56583008 129.48888184 -47.54541016 128.48706055 C-47.46848458 124.82829865 -47.37991326 121.16989028 -47.28808594 117.51147461 C-47.25015091 115.93765314 -47.21524109 114.36375538 -47.18359375 112.78979492 C-46.61986248 85.08768812 -46.61986248 85.08768812 -36.54296875 73.68359375 C-29.31603294 66.94263411 -19.32386151 64.17352408 -9.60546875 64.43359375 C-4.57957823 64.94160155 0.31115517 65.82826868 5.1640625 67.23828125 C20.91845884 71.66722801 38.08561263 70.70310696 53.734375 66.3984375 C64.45449442 63.57253622 75.29248773 63.51845276 85.26953125 68.74609375 C88.83043159 70.91938346 91.66363496 73.24754808 94.39453125 76.43359375 C94.82507813 76.9234375 95.255625 77.41328125 95.69921875 77.91796875 C103.82686256 88.01740781 102.91884365 101.36089154 103.08203125 113.62109375 C103.11526958 115.35354039 103.14976505 117.0859634 103.18554688 118.81835938 C103.26969767 123.02330537 103.33685334 127.22820475 103.39453125 131.43359375 C106.31653821 130.53173975 109.2312818 129.61297394 112.14453125 128.68359375 C112.96953125 128.4309375 113.79453125 128.17828125 114.64453125 127.91796875 C115.44375 127.66015625 116.24296875 127.40234375 117.06640625 127.13671875 C118.1661377 126.79108887 118.1661377 126.79108887 119.28808594 126.43847656 C121.99457312 125.1473429 123.47535711 123.74368137 125.39453125 121.43359375 C125.98972666 118.78225233 125.98972666 118.78225233 125.89624023 115.84228516 C125.90562119 114.72077057 125.91500214 113.59925598 125.92466736 112.4437561 C125.91343338 111.23641815 125.9021994 110.0290802 125.890625 108.78515625 C125.89208023 107.53987152 125.89353546 106.29458679 125.89503479 105.01156616 C125.89337427 102.37661657 125.88388247 99.74310872 125.86108398 97.10839844 C125.8383831 94.41187547 125.83135046 91.7161346 125.84057617 89.01953125 C125.85318719 85.12867533 125.84447779 81.23848826 125.828125 77.34765625 C125.83106064 76.14436676 125.83399628 74.94107727 125.83702087 73.70132446 C125.75319141 66.24759013 125.04182092 61.59563419 120.14453125 55.74609375 C115.08094667 51.48807945 110.68233654 50.41625728 104.26953125 49.55859375 C100.15482466 48.94653114 98.63185924 48.61870958 95.26953125 45.99609375 C92.34945833 42.00532742 91.15109371 39.63002545 90.58203125 34.74609375 C89.57878191 28.36388447 87.91038019 23.19317312 82.6875 19.09375 C76.76918067 15.47055233 71.09227008 15.28422422 64.33813477 15.28833008 C63.14182182 15.28329216 63.14182182 15.28329216 61.92134094 15.27815247 C59.28869051 15.26866817 56.65610396 15.2667 54.0234375 15.265625 C52.18082148 15.26240848 50.33820571 15.25904411 48.49559021 15.25553894 C44.62962249 15.2495524 40.7636771 15.24769833 36.89770508 15.24829102 C31.97908646 15.24839211 27.06061393 15.23479285 22.14202976 15.21751881 C18.33181624 15.20631264 14.52163692 15.2043745 10.71140862 15.20490074 C8.90039509 15.20373153 7.08938036 15.19937027 5.27838326 15.19156837 C-15.24092338 15.1115097 -33.1947852 16.72372803 -49.60546875 30.43359375 Z M-24.74609375 84.16796875 C-30.98170113 90.92757675 -31.88999182 97.56327974 -31.87890625 106.4375 C-31.89918405 108.16472015 -31.92003461 109.89193366 -31.94140625 111.61914062 C-31.96402754 114.31377836 -31.98049485 117.00815237 -31.98632812 119.70288086 C-31.99586966 122.32322521 -32.02964668 124.94241559 -32.06640625 127.5625 C-32.06136078 128.3626503 -32.05631531 129.1628006 -32.05111694 129.98719788 C-32.14324834 135.25089443 -33.14839028 138.23920451 -36.60546875 142.43359375 C-38.5703125 143.859375 -38.5703125 143.859375 -40.54296875 144.74609375 C-41.51556641 145.20435547 -41.51556641 145.20435547 -42.5078125 145.671875 C-44.84862948 146.52189234 -47.16238996 146.96703444 -49.60546875 147.43359375 C-49.65585977 151.57379709 -49.6916427 155.71382609 -49.71533203 159.85424805 C-49.72523361 161.25532143 -49.73875844 162.65637508 -49.75634766 164.05737305 C-50.06371668 189.21643174 -45.12164348 210.49333978 -27.60546875 229.43359375 C-10.72796443 245.45437196 10.0357656 252.04913876 32.9296875 251.703125 C48.8226275 251.14310646 63.5563484 244.5980812 76.39453125 235.43359375 C76.39453125 235.10359375 76.39453125 234.77359375 76.39453125 234.43359375 C75.40453125 234.4078125 74.41453125 234.38203125 73.39453125 234.35546875 C64.6544773 234.02352595 57.66627031 233.474428 51.08203125 227.24609375 C46.98326855 220.41482258 45.49917842 214.25192417 47.39453125 206.43359375 C49.27328818 201.1104491 52.61319512 197.37323004 57.39453125 194.43359375 C63.86002865 191.90249357 70.33262837 192.06639228 77.20703125 192.05859375 C78.8940918 192.02185547 78.8940918 192.02185547 80.61523438 191.984375 C88.9503052 191.95531607 95.01174039 193.74219832 102.39453125 197.43359375 C105.40866669 186.30360697 105.76419726 175.99953565 105.58203125 164.55859375 C105.56693875 162.88803306 105.55325852 161.217459 105.54101562 159.546875 C105.5084136 155.50877575 105.45689148 151.47133854 105.39453125 147.43359375 C104.70746094 147.24531006 104.02039063 147.05702637 103.3125 146.86303711 C101.96091797 146.4783728 101.96091797 146.4783728 100.58203125 146.0859375 C99.68871094 145.83577881 98.79539062 145.58562012 97.875 145.32788086 C93.82219838 143.86671823 91.66077697 141.28892751 89.28881836 137.81347656 C87.93430883 134.20884677 88.09601252 130.59378661 88.0859375 126.79296875 C88.06076745 125.06510094 88.03536958 123.33723644 88.00976562 121.609375 C87.98110487 118.89958634 87.95707479 116.18985533 87.93823242 113.47998047 C87.91643208 110.85483558 87.87697413 108.23037351 87.8359375 105.60546875 C87.83576378 104.40661041 87.83576378 104.40661041 87.83558655 103.18353271 C87.72603763 96.88188521 86.57145034 91.38064932 82.73828125 86.19140625 C77.37082037 81.43801929 72.51659096 79.88428293 65.39453125 79.43359375 C61.62397065 79.87394622 58.05608248 80.82599868 54.39453125 81.80859375 C33.34482155 86.74025892 13.3200199 85.22223348 -7.49023438 79.89257812 C-13.44678441 78.60006727 -20.04561823 80.35955427 -24.74609375 84.16796875 Z M-83.60546875 129.43359375 C-83.72934095 134.46890338 -83.81993389 139.50332072 -83.88012695 144.53979492 C-83.90522589 146.2518662 -83.93931304 147.96383079 -83.98266602 149.67553711 C-84.04352614 152.1407302 -84.07172307 154.6045036 -84.09375 157.0703125 C-84.11955643 157.83196213 -84.14536285 158.59361176 -84.17195129 159.37834167 C-84.17408227 163.44314055 -83.79777517 165.19694346 -81.19995117 168.39379883 C-75.36207579 172.98356535 -75.47968513 171.43359375 -65.60546875 171.43359375 C-65.60546875 161.86359375 -65.60546875 152.29359375 -65.60546875 142.43359375 C-72.42080156 138.50934809 -72.42080156 138.50934809 -79.60546875 135.43359375 C-80.66796875 133.49609375 -80.66796875 133.49609375 -81.60546875 131.43359375 C-82.26546875 130.77359375 -82.92546875 130.11359375 -83.60546875 129.43359375 Z M138.39453125 129.43359375 C137.853125 130.34367188 137.31171875 131.25375 136.75390625 132.19140625 C133.21677742 137.63142085 127.03057072 139.61557401 121.39453125 142.43359375 C121.39453125 152.00359375 121.39453125 161.57359375 121.39453125 171.43359375 C130.71768291 172.19145853 130.71768291 172.19145853 137.39453125 168.43359375 C139.92014773 164.64516902 139.64844698 161.64826046 139.58984375 157.265625 C139.58559891 156.07340584 139.58559891 156.07340584 139.58126831 154.85710144 C139.5700783 152.31994537 139.54497616 149.78314303 139.51953125 147.24609375 C139.50949991 145.52539573 139.50037433 143.80469216 139.4921875 142.08398438 C139.47014286 137.86705132 139.43562131 133.6503825 139.39453125 129.43359375 C139.06453125 129.43359375 138.73453125 129.43359375 138.39453125 129.43359375 Z M136.78515625 185.8984375 C133.58043789 186.6158336 130.42008287 186.78378948 127.14453125 186.99609375 C123.80328125 187.21265625 123.80328125 187.21265625 120.39453125 187.43359375 C119.07453125 193.70359375 117.75453125 199.97359375 116.39453125 206.43359375 C125.393551 206.98492644 125.393551 206.98492644 133.39453125 203.43359375 C137.84237652 198.92449278 137.84237652 198.92449278 139.4921875 193.05078125 C139.48058594 192.14585937 139.46898437 191.2409375 139.45703125 190.30859375 C139.44800781 189.39851562 139.43898438 188.4884375 139.4296875 187.55078125 C139.41808594 186.85210937 139.40648437 186.1534375 139.39453125 185.43359375 C138.27545892 185.38734511 138.27545892 185.38734511 136.78515625 185.8984375 Z M61.39453125 212.43359375 C62.48238093 215.6834251 62.48238093 215.6834251 64.39453125 218.43359375 C68.51256768 218.71465932 72.64304576 218.6654154 76.76953125 218.68359375 C77.93226563 218.70421875 79.095 218.72484375 80.29296875 218.74609375 C81.40671875 218.75125 82.52046875 218.75640625 83.66796875 218.76171875 C84.69325684 218.77106445 85.71854492 218.78041016 86.77490234 218.79003906 C89.41395611 218.6377758 89.41395611 218.6377758 91.26025391 217.10449219 C92.69517494 215.34724565 92.69517494 215.34724565 92.26953125 212.37109375 C91.64802712 209.1410396 91.64802712 209.1410396 88.39453125 207.43359375 C84.78582824 206.94880224 81.15734393 207.01716216 77.51953125 206.99609375 C76.52566406 206.96322266 75.53179687 206.93035156 74.5078125 206.89648438 C68.20434329 206.85007329 65.18950173 207.23399134 61.39453125 212.43359375 Z M-7.60546875 261.43359375 C-7.72664062 262.18125 -7.8478125 262.92890625 -7.97265625 263.69921875 C-8.14023438 264.6840625 -8.3078125 265.66890625 -8.48046875 266.68359375 C-8.64289063 267.658125 -8.8053125 268.63265625 -8.97265625 269.63671875 C-9.60546875 272.43359375 -9.60546875 272.43359375 -10.73828125 274.54296875 C-11.7849416 276.39030092 -11.7849416 276.39030092 -11.36791992 278.40551758 C-10.42312338 280.91862192 -9.57795215 281.44927503 -7.2734375 282.7734375 C-6.56622559 283.19069092 -5.85901367 283.60794434 -5.13037109 284.0378418 C-4.35902832 284.47781494 -3.58768555 284.91778809 -2.79296875 285.37109375 C-1.16240375 286.33182571 0.46643568 287.29549092 2.09375 288.26171875 C2.95274902 288.77025391 3.81174805 289.27878906 4.69677734 289.80273438 C9.37588913 292.6313739 13.94559856 295.62636977 18.51953125 298.62109375 C19.84368042 299.4862561 19.84368042 299.4862561 21.19458008 300.36889648 C23.26264698 301.72165506 25.32935338 303.0764304 27.39453125 304.43359375 C41.21333983 296.86070362 54.30432093 288.18873442 67.39453125 279.43359375 C66.6265809 275.47454872 65.74461819 271.54918534 64.83203125 267.62109375 C64.56261719 266.45964844 64.29320312 265.29820312 64.015625 264.1015625 C63.81066406 263.22113281 63.60570312 262.34070313 63.39453125 261.43359375 C62.32074219 261.71074219 61.24695313 261.98789062 60.140625 262.2734375 C58.70447596 262.63951471 57.26827526 263.00538933 55.83203125 263.37109375 C55.12755859 263.55349609 54.42308594 263.73589844 53.69726562 263.92382812 C36.91438675 268.17755319 18.47758241 268.18248929 1.8203125 263.40625 C-1.32135339 262.51426048 -4.37737024 261.90466803 -7.60546875 261.43359375 Z M-47.48046875 285.93359375 C-48.44726562 286.58328125 -49.4140625 287.23296875 -50.41015625 287.90234375 C-51.13460937 288.40765625 -51.8590625 288.91296875 -52.60546875 289.43359375 C-45.84429779 297.50417216 -38.45116037 304.92073124 -31.04663086 312.39746094 C-29.36946691 314.0963765 -27.69860614 315.8015364 -26.03393555 317.51269531 C-23.62279433 319.99039815 -21.19285083 322.44815076 -18.7578125 324.90234375 C-18.0149852 325.67300171 -17.2721579 326.44365967 -16.50682068 327.2376709 C-15.80581741 327.93589966 -15.10481415 328.63412842 -14.38256836 329.35351562 C-13.77223251 329.97415894 -13.16189667 330.59480225 -12.5330658 331.23425293 C-10.61767415 332.68916928 -10.61767415 332.68916928 -8.0327301 332.23986816 C-4.83333845 331.17711173 -2.85281074 329.49427649 -0.29296875 327.30859375 C0.65835938 326.50035156 1.6096875 325.69210937 2.58984375 324.859375 C3.51539063 324.05886719 4.4409375 323.25835937 5.39453125 322.43359375 C6.21695313 321.74652344 7.039375 321.05945313 7.88671875 320.3515625 C10.72570991 317.98366884 10.72570991 317.98366884 13.39453125 315.43359375 C13.39453125 314.77359375 13.39453125 314.11359375 13.39453125 313.43359375 C11.96216373 312.28814307 11.96216373 312.28814307 10.0546875 311.21875 C9.32991211 310.78546387 8.60513672 310.35217773 7.85839844 309.90576172 C7.06594727 309.44057129 6.27349609 308.97538086 5.45703125 308.49609375 C3.79574134 307.50189187 2.13561174 306.50574894 0.4765625 305.5078125 C-0.37212402 304.99782715 -1.22081055 304.4878418 -2.09521484 303.96240234 C-5.89491779 301.64828643 -9.62795693 299.23673252 -13.35546875 296.80859375 C-14.05124023 296.35838867 -14.74701172 295.90818359 -15.46386719 295.44433594 C-18.8568799 293.24436567 -22.22768378 291.01803752 -25.5703125 288.7421875 C-26.19905273 288.3208252 -26.82779297 287.89946289 -27.47558594 287.46533203 C-29.17516479 286.32512558 -30.86530235 285.17088119 -32.5546875 284.015625 C-38.5620869 280.90039228 -42.10450399 282.26220319 -47.48046875 285.93359375 Z M82.20703125 288.18359375 C80.42538741 289.38025958 78.64281133 290.57553847 76.859375 291.76953125 C75.95429199 292.38022461 75.04920898 292.99091797 74.11669922 293.62011719 C69.88864957 296.43679457 65.57984641 299.12025467 61.26953125 301.80859375 C54.8418659 305.83968069 48.52476318 309.95805167 42.39453125 314.43359375 C45.2067278 318.1853948 48.17005589 321.0756557 51.83203125 323.99609375 C52.75886719 324.73988281 53.68570313 325.48367188 54.640625 326.25 C55.54941406 326.97058594 56.45820313 327.69117188 57.39453125 328.43359375 C58.23113281 329.20574219 59.06773437 329.97789062 59.9296875 330.7734375 C62.2304105 332.68788008 62.2304105 332.68788008 64.77787781 332.27967834 C67.94800528 331.2546301 69.38973824 329.92141825 71.72583008 327.55639648 C72.54630325 326.73562119 73.36677643 325.91484589 74.21211243 325.06919861 C75.08313095 324.17753494 75.95414948 323.28587128 76.8515625 322.3671875 C77.7545256 321.45856461 78.65748871 320.54994171 79.58781433 319.61378479 C81.98214073 317.2042245 84.364209 314.78289389 86.74389648 312.35888672 C89.17677214 309.88500983 91.62108592 307.42249184 94.06445312 304.95898438 C98.851749 300.12757958 103.62744583 295.28493655 108.39453125 290.43359375 C102.2077379 284.99747538 102.2077379 284.99747538 94.77734375 281.96484375 C89.72213624 282.6653344 86.35028994 285.32026149 82.20703125 288.18359375 Z M-120.60546875 326.43359375 C-121.41274414 327.17150146 -121.41274414 327.17150146 -122.23632812 327.92431641 C-146.2956748 350.00222217 -161.16271875 382.14106965 -162.71920776 414.82170105 C-162.7849068 417.33716907 -162.82220582 419.8509537 -162.84375 422.3671875 C-162.85182175 423.28516617 -162.85989349 424.20314484 -162.86820984 425.14894104 C-162.88194791 427.07754687 -162.89271527 429.00617596 -162.90063477 430.93481445 C-162.91218062 432.89061706 -162.9326733 434.84638753 -162.9621582 436.80200195 C-163.00508205 439.65727714 -163.0210323 442.51162876 -163.03125 445.3671875 C-163.04875809 446.22791367 -163.06626617 447.08863983 -163.08430481 447.97544861 C-163.05669853 455.81776962 -160.72780161 462.21977541 -156.41796875 468.74609375 C-148.86462867 475.96372982 -141.44604328 477.60039598 -131.2421875 477.53125 C-130.45020462 477.52983505 -129.65822174 477.5284201 -128.84223938 477.52696228 C-126.32577656 477.52138832 -123.80940444 477.50884068 -121.29296875 477.49609375 C-119.5813815 477.49107538 -117.86979284 477.48651306 -116.15820312 477.48242188 C-111.97392367 477.47142743 -107.78971156 477.45418082 -103.60546875 477.43359375 C-103.59088623 476.26787842 -103.57630371 475.10216309 -103.5612793 473.90112305 C-103.50333758 469.57903253 -103.42610481 465.25746528 -103.34301758 460.93579102 C-103.30974873 459.06478361 -103.2817229 457.19367537 -103.2590332 455.32250977 C-103.22552287 452.63383992 -103.1732101 449.94609577 -103.1171875 447.2578125 C-103.10760262 446.0014222 -103.10760262 446.0014222 -103.0978241 444.71965027 C-102.94985293 438.88440684 -102.94985293 438.88440684 -101.29328918 436.71589661 C-98.45247677 434.55762088 -96.03087917 435.01292931 -92.60546875 435.43359375 C-90.42089844 436.91699219 -90.42089844 436.91699219 -88.60546875 439.43359375 C-88.18809742 442.44777635 -88.00034684 445.1200617 -87.99609375 448.13671875 C-87.98046387 448.87970215 -87.96483398 449.62268555 -87.94873047 450.38818359 C-87.89628753 453.15299773 -87.87789069 455.91837319 -87.85546875 458.68359375 C-87.77296875 464.87109375 -87.69046875 471.05859375 -87.60546875 477.43359375 C-63.51546875 477.43359375 -39.42546875 477.43359375 -14.60546875 477.43359375 C-12.81785855 469.68728288 -11.0795516 462.05036939 -9.7043457 454.24047852 C-9.53809692 453.31187515 -9.37184814 452.38327179 -9.20056152 451.42652893 C-8.66151504 448.40995421 -8.12736649 445.39253961 -7.59375 442.375 C-7.2170382 440.25558443 -6.84017914 438.13619502 -6.46318054 436.01683044 C-5.67847602 431.60057311 -4.8963646 427.18386602 -4.1159668 422.7668457 C-3.11640715 417.11129184 -2.10904094 411.45715951 -1.09960651 405.80336094 C-0.32136296 401.43825639 0.45212984 397.07232004 1.2242527 392.70612907 C1.59383063 390.6202735 1.96502981 388.53470449 2.33789635 386.44943428 C2.85738991 383.54078511 3.37031406 380.63105023 3.8815918 377.72094727 C4.03584122 376.86527161 4.19009064 376.00959595 4.34901428 375.12799072 C5.99272111 365.68064459 4.97048484 359.5438385 -0.125 351.390625 C-2.30929974 348.28772003 -2.30929974 348.28772003 -5.3046875 347.4453125 C-8.07379586 347.2439757 -8.07379586 347.2439757 -10.69921875 347.55078125 C-20.07597822 347.17268611 -26.2983675 339.23260792 -32.37890625 332.98046875 C-33.39298008 331.95383356 -34.40810483 330.92823548 -35.42422485 329.90362549 C-38.07885411 327.22256162 -40.72205907 324.53054334 -43.36206055 321.83508301 C-47.60556088 317.50484346 -51.86307198 313.18847631 -56.12685013 308.87821198 C-57.61296698 307.37162755 -59.0920956 305.85842535 -60.57064819 304.34442139 C-61.46563019 303.43637756 -62.36061218 302.52833374 -63.28271484 301.59277344 C-64.07132904 300.7876532 -64.85994324 299.98253296 -65.67245483 299.15301514 C-76.51061945 289.51243683 -112.21174749 318.52781753 -120.60546875 326.43359375 Z M27.39453125 324.43359375 C25.12238426 326.36957104 22.85177762 328.30730547 20.58203125 330.24609375 C19.61813477 331.0669043 19.61813477 331.0669043 18.63476562 331.90429688 C18.01279297 332.43603516 17.39082031 332.96777344 16.75 333.515625 C16.17918701 334.00264893 15.60837402 334.48967285 15.02026367 334.99145508 C13.42104167 336.41007715 11.90615283 337.92197217 10.39453125 339.43359375 C13.03453125 344.05359375 15.67453125 348.67359375 18.39453125 353.43359375 C29.13997546 355.14815487 29.13997546 355.14815487 39.11181641 352.22216797 C42.21048304 348.79835269 44.17372833 344.8865665 45.39453125 340.43359375 C44.45438081 336.4159196 41.2002915 334.36485804 38.08203125 331.87109375 C37.13714844 331.10667969 36.19226563 330.34226562 35.21875 329.5546875 C32.68618655 327.65263777 30.14333956 326.00076497 27.39453125 324.43359375 Z M21.39453125 369.43359375 C19.66937694 374.58567051 19.66937694 374.58567051 18.50863647 379.75927734 C18.36284653 380.56661316 18.21705658 381.37394897 18.06684875 382.20574951 C17.83919075 383.50575897 17.83919075 383.50575897 17.60693359 384.83203125 C17.44083084 385.75961243 17.27472809 386.6871936 17.10359192 387.6428833 C16.55795357 390.69732182 16.01896841 393.75288922 15.48046875 396.80859375 C15.10243128 398.93803237 14.72414184 401.06742627 14.34561157 403.19677734 C13.55423494 407.65474908 12.76620405 412.11329624 11.98046875 416.57226562 C10.97381933 422.28309067 9.95843321 427.99232157 8.94048119 433.70114136 C8.15784935 438.09626828 7.38007933 442.49224494 6.60374832 446.88848877 C6.23131436 448.99386994 5.85732054 451.09897579 5.48173141 453.20379639 C4.95729448 456.14673076 4.43947149 459.09075555 3.92333984 462.03515625 C3.76751938 462.90182922 3.61169891 463.7685022 3.45115662 464.66143799 C3.31100632 465.4687738 3.17085602 466.27610962 3.02645874 467.10791016 C2.90369253 467.8025235 2.78092632 468.49713684 2.65443993 469.21279907 C2.3357504 471.93584782 2.39453125 474.69195965 2.39453125 477.43359375 C19.55453125 477.43359375 36.71453125 477.43359375 54.39453125 477.43359375 C52.02878828 463.89835562 52.02878828 463.89835562 49.66210938 450.36328125 C48.69217649 444.81743306 47.72233718 439.27156866 46.75317383 433.72558594 C43.00675455 412.28769605 39.24261438 390.85350442 35.39453125 369.43359375 C30.77453125 369.43359375 26.15453125 369.43359375 21.39453125 369.43359375 Z " fill="#000000" transform="translate(188.60546875,-0.43359375)"/>
<path d="M0 0 C21.47011445 18.30188839 35.38632935 42.04949004 38.14477539 70.44580078 C40.16552007 96.70077457 33.98487776 124.3333175 16.69140625 144.8203125 C14.29233435 147.49386959 11.84797908 150.0811253 9.3125 152.625 C8.46171875 153.48222656 7.6109375 154.33945312 6.734375 155.22265625 C-13.08586725 174.88305783 -37.66518635 183.90986561 -65.25 184.125 C-76.25819453 184.05303718 -86.24700071 183.11653952 -96.6875 179.625 C-97.85023438 179.23957031 -99.01296875 178.85414063 -100.2109375 178.45703125 C-127.17331555 168.74680419 -147.35251138 149.11558701 -159.78710938 123.60693359 C-171.27172617 98.32707483 -171.58560483 69.21238307 -162.18359375 43.23828125 C-150.97658733 16.17175137 -130.70039841 -4.235882 -103.69335938 -15.5703125 C-98.7765475 -17.54278231 -93.82769144 -19.10499171 -88.6875 -20.375 C-87.80964844 -20.59929687 -86.93179688 -20.82359375 -86.02734375 -21.0546875 C-55.82716293 -27.39889815 -23.93085282 -19.0916499 0 0 Z M-130.6875 22.625 C-145.28497921 39.41210109 -153.40830866 61.03137701 -152.9375 83.3359375 C-151.14466743 106.92289101 -142.4641691 127.04200096 -125.6875 143.625 C-124.96949219 144.35332031 -124.25148438 145.08164062 -123.51171875 145.83203125 C-107.12483337 161.47826644 -84.80607225 168.89866389 -62.39013672 168.59375 C-39.12572337 167.63253473 -18.92568533 158.04797265 -2.6875 141.625 C-1.87410156 140.82191406 -1.06070313 140.01882813 -0.22265625 139.19140625 C14.67242229 123.68524756 22.17199356 102.41765721 22.6875 81.125 C22.07404891 55.76013096 11.68342482 33.08753183 -6.5859375 15.48828125 C-43.3888863 -17.1418425 -97.55908645 -12.00925053 -130.6875 22.625 Z " fill="#000000" transform="translate(463.6875,328.375)"/>
<path d="M0 0 C2.65654824 2.23881093 4.44434343 4.88868686 6 8 C6.08698228 10.91699274 6.11551923 13.80982548 6.09765625 16.7265625 C6.0962413 17.58937836 6.09482635 18.45219421 6.09336853 19.34115601 C6.08776188 22.1024723 6.07520827 24.86370812 6.0625 27.625 C6.05748586 29.4947905 6.0529228 31.36458226 6.04882812 33.234375 C6.03779029 37.82294777 6.0205212 42.41146023 6 47 C6.94875 47.10957031 7.8975 47.21914063 8.875 47.33203125 C12 48 12 48 14 50.6875 C15.21449737 54.71052254 14.89657186 56.28931593 13 60 C10.44011936 62.47730384 9.61186134 63 6 63 C6.05220703 64.42892578 6.05220703 64.42892578 6.10546875 65.88671875 C6.13253906 67.14097656 6.15960938 68.39523437 6.1875 69.6875 C6.23970703 71.54955078 6.23970703 71.54955078 6.29296875 73.44921875 C5.97981962 77.24458619 5.40182741 79.07226456 3 82 C1.1328125 82.84765625 1.1328125 82.84765625 -0.875 83.0625 C-1.53242188 83.15660156 -2.18984375 83.25070312 -2.8671875 83.34765625 C-6.26427255 82.79391894 -7.70944285 81.54374481 -10 79 C-10.37233017 76.03327323 -10.4808246 73.68143759 -10.3125 70.75 C-10.28994141 70.00492187 -10.26738281 69.25984375 -10.24414062 68.4921875 C-10.18543561 66.660591 -10.09575757 64.83003347 -10 63 C-10.82725586 63.01047363 -11.65451172 63.02094727 -12.50683594 63.03173828 C-16.2545264 63.07330912 -20.00216832 63.09932992 -23.75 63.125 C-25.05195313 63.14175781 -26.35390625 63.15851563 -27.6953125 63.17578125 C-28.94570313 63.18222656 -30.19609375 63.18867188 -31.484375 63.1953125 C-32.63647461 63.20578613 -33.78857422 63.21625977 -34.97558594 63.22705078 C-37.92779902 63.00542032 -39.54656631 62.60152712 -42 61 C-43.87849309 58.5847946 -44.00309412 57.16420932 -43.9453125 54.09765625 C-43.00552846 48.20930997 -39.51286443 43.19996419 -36.5625 38.125 C-35.93085938 37.0210791 -35.29921875 35.9171582 -34.6484375 34.77978516 C-33.37263986 32.55522624 -32.09161243 30.33365785 -30.80517578 28.11523438 C-29.20892572 25.36054804 -27.63017779 22.59692343 -26.05859375 19.828125 C-25.20681559 18.34312631 -24.3540331 16.858703 -23.5 15.375 C-23.12818604 14.72031738 -22.75637207 14.06563477 -22.37329102 13.39111328 C-19.31688287 8.16385588 -15.81269516 2.77643905 -10.625 -0.5 C-6.90344643 -1.20886735 -3.56998032 -1.26211426 0 0 Z M-11 27 C-11.87595514 28.3477258 -12.70060216 29.72884205 -13.50390625 31.12109375 C-13.99697266 31.97380859 -14.49003906 32.82652344 -14.99804688 33.70507812 C-15.51431641 34.60677734 -16.03058594 35.50847656 -16.5625 36.4375 C-17.08263672 37.33533203 -17.60277344 38.23316406 -18.13867188 39.15820312 C-20.70565253 42.87165538 -20.70565253 42.87165538 -22 47 C-18.04 47 -14.08 47 -10 47 C-10 40.4 -10 33.8 -10 27 C-10.33 27 -10.66 27 -11 27 Z " fill="#000000" transform="translate(445,367)"/>
<path d="M0 0 C5.48472334 4.75342689 9.07171451 11.18850564 10.0859375 18.375 C10.90733026 35.05559145 -3.77223544 50.78738197 -13.1875 63.4375 C-12.57229492 63.45208252 -11.95708984 63.46666504 -11.32324219 63.48168945 C-8.52737146 63.55630577 -5.73267713 63.6529198 -2.9375 63.75 C-1.96941406 63.77255859 -1.00132812 63.79511719 -0.00390625 63.81835938 C0.93066406 63.85380859 1.86523438 63.88925781 2.828125 63.92578125 C3.68696289 63.95196533 4.54580078 63.97814941 5.43066406 64.00512695 C8.31492256 64.52870442 9.70784017 65.4148972 11.8125 67.4375 C12.91623378 71.41094161 13.22793583 73.52749772 11.5 77.3125 C9.8125 79.4375 9.8125 79.4375 7.8125 80.4375 C4.86966833 80.54895671 1.95123495 80.60162462 -0.9921875 80.60546875 C-2.30547531 80.61046135 -2.30547531 80.61046135 -3.64529419 80.61555481 C-5.49968947 80.6206227 -7.35409389 80.62296318 -9.20849609 80.62280273 C-12.0440987 80.62498583 -14.8793102 80.64313353 -17.71484375 80.66210938 C-19.51562367 80.665044 -21.31640544 80.66702833 -23.1171875 80.66796875 C-23.96521942 80.67515427 -24.81325134 80.68233978 -25.6869812 80.68974304 C-26.48105377 80.68666641 -27.27512634 80.68358978 -28.09326172 80.68041992 C-28.78894257 80.68184494 -29.48462341 80.68326996 -30.2013855 80.68473816 C-33.31629277 80.29698411 -35.52450928 79.25834565 -37.5 76.8125 C-38.54145753 73.21473764 -38.16923392 69.99187618 -37.1875 66.4375 C-35.55172432 63.53488816 -33.50407275 61.05470502 -31.375 58.5 C-30.18881446 57.01247974 -29.00529015 55.52283406 -27.82421875 54.03125 C-27.22013184 53.27457031 -26.61604492 52.51789063 -25.99365234 51.73828125 C-13.17937959 36.78009845 -13.17937959 36.78009845 -7.1875 19 C-8.24482629 16.29060139 -8.76062421 15.02752207 -11.1875 13.4375 C-14.56990279 12.40807306 -16.46583169 12.17976132 -19.8125 13.375 C-22.64265449 15.83276574 -23.7579116 18.18223906 -25.1953125 21.59765625 C-26.1875 23.4375 -26.1875 23.4375 -29.1875 25.4375 C-33.02443587 25.85607482 -35.29953064 25.98394269 -38.625 23.9375 C-40.82579559 20.41622706 -40.88253771 17.41224688 -40.1875 13.4375 C-38.16762648 6.80979001 -33.87969645 2.23900222 -28.1875 -1.5625 C-18.22028334 -6.39197611 -9.60237121 -4.70704471 0 0 Z " fill="#000000" transform="translate(381.1875,371.5625)"/>
</svg>
