<?xml version="1.0" encoding="UTF-8"?>
<svg version="1.1" xmlns="http://www.w3.org/2000/svg" width="512" height="512">
<path d="M0 0 C15.57350717 7.87449165 24.39476509 20.54530437 30.0859375 36.71484375 C32.84111082 46.05273188 33.60077807 54.94762444 33.5234375 64.65234375 C33.52006378 65.32604004 33.51669006 65.99973633 33.51321411 66.69384766 C33.31813163 93.77720065 25.82493462 119.43100794 14.0859375 143.71484375 C13.45303072 145.05985147 12.82021688 146.40490293 12.1875 147.75 C-0.79660635 174.90828355 -19.0913859 199.09766121 -39.9140625 220.71484375 C-40.44531738 221.2680127 -40.97657227 221.82118164 -41.52392578 222.39111328 C-48.59916658 229.71851591 -55.90261289 236.4063627 -63.9140625 242.71484375 C-65.05670258 243.65641409 -66.19721399 244.60057175 -67.3359375 245.546875 C-76.41172637 253.04157103 -85.85959636 259.60218536 -95.9140625 265.71484375 C-96.71585937 266.20484863 -97.51765625 266.69485352 -98.34375 267.19970703 C-118.69150954 279.52483941 -139.8843213 288.70405258 -162.9140625 294.71484375 C-163.75018066 294.93930176 -164.58629883 295.16375977 -165.44775391 295.39501953 C-185.96584961 300.71331647 -211.79850872 302.11366813 -231.9140625 294.71484375 C-233.28884766 294.28171875 -233.28884766 294.28171875 -234.69140625 293.83984375 C-245.34961974 290.16119996 -254.20782216 282.65649754 -260.9140625 273.71484375 C-261.22835205 273.06902344 -261.5426416 272.42320312 -261.86645508 271.7578125 C-263.54180796 268.47536601 -264.79700702 266.23889447 -268.20800781 264.63867188 C-271.07498455 263.84828779 -273.92742557 263.25650497 -276.8515625 262.71484375 C-279.02290407 262.2411654 -281.19216446 261.75785854 -283.359375 261.265625 C-284.45540039 261.0176416 -285.55142578 260.7696582 -286.68066406 260.51416016 C-300.00092392 257.22130824 -312.81279346 251.7100318 -324.92700195 245.33276367 C-326.02274536 244.77552612 -326.02274536 244.77552612 -327.140625 244.20703125 C-327.77564941 243.8704248 -328.41067383 243.53381836 -329.06494141 243.18701172 C-330.97286365 242.5110552 -330.97286365 242.5110552 -332.97631836 243.49731445 C-335.70090002 245.2092319 -338.2596423 247.12104892 -340.8515625 249.02734375 C-355.34512178 259.28334453 -371.44809277 262.17892247 -388.9140625 259.71484375 C-405.29536158 256.48076754 -419.86852904 247.74639152 -429.54296875 233.93359375 C-436.29092925 223.01381721 -441.29870231 210.77122827 -440.9140625 197.71484375 C-439.37271141 193.93853359 -438.32076821 192.98598089 -434.9140625 190.71484375 C-430.92681151 190.78733922 -428.72273246 190.90617379 -425.8515625 193.77734375 C-425.2121875 194.74671875 -424.5728125 195.71609375 -423.9140625 196.71484375 C-417.76307561 205.99863141 -410.90121597 210.96496506 -399.89453125 213.30859375 C-390.74200854 214.55611978 -382.0140815 212.30434757 -374.4609375 206.98828125 C-367.01582815 200.80045858 -362.67556259 193.84768563 -361.1328125 184.25 C-360.28408471 174.41385113 -362.8091418 165.14422493 -369.1015625 157.46484375 C-372.34234038 153.99258174 -375.93620787 151.47778913 -379.99609375 149.0390625 C-381.9140625 147.71484375 -381.9140625 147.71484375 -383.9140625 144.71484375 C-383.73365749 141.34728355 -383.55300966 138.72370769 -381.7265625 135.83984375 C-376.92209563 132.85776087 -371.56363556 133.79028857 -366.2890625 134.83984375 C-365.5875708 134.97817627 -364.8860791 135.11650879 -364.16333008 135.2590332 C-347.07102377 138.86202363 -333.93626919 148.27724213 -323.94140625 162.52734375 C-314.85487912 177.03491998 -312.3569949 193.45920704 -315.10546875 210.234375 C-316.59735547 216.65597435 -318.96624955 222.81921784 -321.9140625 228.71484375 C-321.05554688 228.98039063 -320.19703125 229.2459375 -319.3125 229.51953125 C-315.88284296 230.72582442 -312.78792567 232.21162561 -309.5390625 233.83984375 C-299.86985012 238.52806096 -289.63245096 241.64629639 -279.41748047 244.91259766 C-276.57511676 245.8234624 -273.74271343 246.76228951 -270.9140625 247.71484375 C-271.00107422 246.80605469 -271.00107422 246.80605469 -271.08984375 245.87890625 C-271.46187004 238.96984666 -270.36378178 233.17786544 -265.9140625 227.71484375 C-258.80883816 221.63765655 -249.70504452 218.16844817 -241.23876953 214.42626953 C-238.78079103 213.33617542 -236.333848 212.22357482 -233.88671875 211.109375 C-232.31051238 210.40616848 -230.73370912 209.70429802 -229.15625 209.00390625 C-228.43315643 208.67274811 -227.71006287 208.34158997 -226.96505737 208.00039673 C-222.4702671 206.04316447 -218.90847714 205.18145966 -213.9140625 205.71484375 C-210.53284259 208.16083262 -209.14469467 209.60780934 -208.2890625 213.71484375 C-209.13312275 217.76633296 -210.80247179 219.01724598 -213.9140625 221.71484375 C-216.34857699 223.0036531 -218.66132797 224.11383197 -221.19140625 225.16015625 C-222.22485924 225.60498856 -222.22485924 225.60498856 -223.27919006 226.05880737 C-225.46534084 226.99716339 -227.65800283 227.91895915 -229.8515625 228.83984375 C-232.03990546 229.77139259 -234.22678153 230.70630196 -236.41322327 231.64230347 C-237.76859145 232.2211307 -239.1253183 232.79679083 -240.48362732 233.36868286 C-243.46307083 234.62871459 -246.36803778 235.94586547 -249.25219727 237.41357422 C-251.9140625 238.71484375 -251.9140625 238.71484375 -253.9140625 238.71484375 C-254.63163366 249.65780389 -251.00946151 259.33370129 -243.9140625 267.71484375 C-230.91967656 280.52839331 -214.20247256 282.13918969 -196.91308594 282.07617188 C-147.6089551 281.3374378 -100.20150914 253.48648744 -64.9140625 220.71484375 C-63.6050179 219.58582493 -62.29259315 218.46071153 -60.9765625 217.33984375 C-52.99063168 210.35215428 -45.75779968 202.82042148 -39.15625 194.515625 C-36.82701363 191.60610849 -34.40568554 188.79125327 -31.9765625 185.96484375 C-26.3783619 179.2418115 -21.56445508 172.11791873 -16.9140625 164.71484375 C-16.50687988 164.06950684 -16.09969727 163.42416992 -15.68017578 162.75927734 C5.19004126 129.35534012 23.54484334 85.75549911 14.9074707 45.56396484 C13.23992283 39.09691826 10.94931071 33.17568213 7.0859375 27.71484375 C6.44205078 26.78285156 6.44205078 26.78285156 5.78515625 25.83203125 C0.12942919 18.47162025 -8.86509351 13.55291558 -17.9140625 11.71484375 C-20.96626851 11.50546986 -23.84886936 11.56888217 -26.9140625 11.71484375 C-27.19515869 12.42560059 -27.47625488 13.13635742 -27.76586914 13.86865234 C-29.86299897 19.06710856 -32.12258267 24.19687809 -34.3515625 29.33984375 C-34.62540771 29.97235046 -34.89925293 30.60485718 -35.18139648 31.25653076 C-41.49743515 45.83702945 -47.93084412 60.36568025 -54.37670898 74.88916016 C-56.56665916 79.82632487 -58.7442536 84.76879837 -60.9140625 89.71484375 C-61.20183563 90.36721008 -61.48960876 91.01957642 -61.78610229 91.69171143 C-62.5228599 93.36784413 -63.24827628 95.04894971 -63.97265625 96.73046875 C-64.35478271 97.61250977 -64.73690918 98.49455078 -65.13061523 99.40332031 C-66.35998168 103.03050681 -66.23958102 105.12814656 -64.9140625 108.71484375 C-63.12717345 109.73422789 -63.12717345 109.73422789 -60.9140625 110.71484375 C-41.84118801 122.78771824 -41.84118801 122.78771824 -35.9140625 128.71484375 C-34.15164542 139.28934624 -40.87477141 147.50134778 -46.73046875 155.71484375 C-49.70020835 159.78755937 -52.78877642 163.7608441 -55.9140625 167.71484375 C-56.71972656 168.74738281 -57.52539062 169.77992188 -58.35546875 170.84375 C-71.24341263 186.71060867 -86.32597891 201.76198145 -102.9140625 213.71484375 C-104.30044922 214.77638672 -104.30044922 214.77638672 -105.71484375 215.859375 C-126.42274102 231.53264602 -126.42274102 231.53264602 -134.87817383 230.38598633 C-140.96946177 228.37795772 -145.17783136 219.62702719 -148.6015625 214.52734375 C-149.54222842 213.13751947 -150.48361297 211.74818126 -151.42578125 210.359375 C-151.85681152 209.72080566 -152.2878418 209.08223633 -152.73193359 208.42431641 C-153.69254882 207.03517394 -154.71132828 205.6863879 -155.74609375 204.3515625 C-156.9140625 202.71484375 -156.9140625 202.71484375 -156.9140625 200.71484375 C-164.09316322 198.62472582 -168.98066469 201.53480962 -175.4765625 204.65234375 C-177.49390097 205.60913857 -179.51592879 206.55612137 -181.54296875 207.4921875 C-182.43056885 207.91749756 -183.31816895 208.34280762 -184.23266602 208.78100586 C-187.33306943 209.86076941 -189.65218115 210.02649917 -192.9140625 209.71484375 C-196.23680654 207.2589025 -197.69024258 205.78917935 -198.5390625 201.71484375 C-197.72715561 197.81769068 -196.02969597 196.01216229 -192.9140625 193.71484375 C-189.15616497 191.72881984 -185.27512399 190.09376797 -181.3515625 188.46484375 C-180.31064453 188.01882813 -179.26972656 187.5728125 -178.19726562 187.11328125 C-168.97884314 183.20063891 -161.56121356 180.99592335 -151.87109375 184.66796875 C-145.27913062 188.19420851 -141.73489004 193.82076533 -137.6015625 199.83984375 C-136.95638672 200.75894531 -136.31121094 201.67804688 -135.64648438 202.625 C-130.9140625 209.44569692 -130.9140625 209.44569692 -130.9140625 211.71484375 C-120.40991079 205.49865128 -110.99458946 198.86558271 -101.9140625 190.71484375 C-101.0890625 189.99941406 -100.2640625 189.28398437 -99.4140625 188.546875 C-85.59834933 176.43540276 -73.31230291 163.28228317 -62.5390625 148.40234375 C-62.12164795 147.82734131 -61.7042334 147.25233887 -61.27416992 146.65991211 C-58.78318228 143.15402115 -56.73940418 139.60694327 -54.9140625 135.71484375 C-56.55687477 134.51268165 -58.19969148 133.31052562 -59.8425293 132.10839844 C-61.22815349 131.09265507 -62.61242432 130.07506302 -63.99536133 129.05566406 C-66.82685682 126.96898155 -69.65601307 124.89299343 -72.55078125 122.89453125 C-78.21735952 118.94411669 -81.50357602 114.65231519 -82.9140625 107.71484375 C-83.52695328 101.39927922 -82.55108308 96.58270383 -79.94140625 90.859375 C-79.62743393 90.1355513 -79.31346161 89.4117276 -78.98997498 88.66596985 C-78.32003264 87.12673809 -77.64277108 85.5906738 -76.9586792 84.05767822 C-75.92513383 81.7396742 -74.91292663 79.41349065 -73.90673828 77.08349609 C-71.78489698 72.18022419 -69.63297494 67.29049167 -67.4765625 62.40234375 C-66.69318332 60.62468034 -65.90981767 58.84701096 -65.12646484 57.06933594 C-63.92326846 54.33970599 -62.71960831 51.61028405 -61.51477051 48.88137817 C-59.14829898 43.5206678 -56.79232816 38.15553043 -54.44657898 32.78572083 C-52.99425033 29.46407312 -51.5357652 26.14515277 -50.07589722 22.82681274 C-49.38999201 21.26428131 -48.7066206 19.70063492 -48.02590942 18.13583374 C-47.08154175 15.96631987 -46.12785256 13.80113673 -45.171875 11.63671875 C-44.89968643 11.00524429 -44.62749786 10.37376984 -44.34706116 9.72315979 C-41.23828731 2.74363375 -37.60803546 -1.15725295 -30.74609375 -4.33203125 C-20.28631095 -7.85228918 -9.69161126 -4.27418245 0 0 Z M-347.9140625 160.71484375 C-347.57181641 162.20371094 -347.57181641 162.20371094 -347.22265625 163.72265625 C-343.90368793 179.00279238 -344.11882716 193.47396937 -352.484375 207.3125 C-360.2882338 217.89308065 -370.84845412 226.10172207 -383.9140625 228.71484375 C-393.95532269 230.06755238 -403.00111726 229.39476864 -412.9140625 227.71484375 C-405.1728161 237.90069427 -395.29810793 242.25796055 -382.890625 244.44873047 C-370.04140038 246.17867795 -357.11724159 241.35897307 -346.9140625 233.71484375 C-336.44637176 224.38199974 -331.02184002 212.56773598 -329.96875 198.7109375 C-329.7689869 184.1139626 -335.30731249 173.00687604 -345.0234375 162.55078125 C-346.59440334 160.59873459 -346.59440334 160.59873459 -347.9140625 160.71484375 Z " fill="#000000" transform="translate(478.9140625,213.28515625)"/>
<path d="M0 0 C1.17369141 -0.02513672 1.17369141 -0.02513672 2.37109375 -0.05078125 C4.5625 0.3125 4.5625 0.3125 6.18115234 1.32470703 C8.36003594 4.46017367 7.92925406 7.80178535 7.85546875 11.48046875 C7.85122391 12.27528152 7.84697906 13.0700943 7.84260559 13.88899231 C7.8258193 16.42634021 7.78816824 18.96289238 7.75 21.5 C7.73495305 23.22069165 7.72126466 24.94139576 7.70898438 26.66210938 C7.67591607 30.87921262 7.62413495 35.09572142 7.5625 39.3125 C8.119375 39.36148438 8.67625 39.41046875 9.25 39.4609375 C14.52817265 39.97805577 19.44612365 40.91712463 24.5625 42.3125 C25.20481567 41.16249512 25.20481567 41.16249512 25.86010742 39.98925781 C27.46400542 37.129316 29.07708152 34.27497013 30.6965332 31.42382812 C31.39360589 30.19219843 32.08702789 28.95849472 32.77661133 27.72265625 C33.77236924 25.93963847 34.78131349 24.16466016 35.79296875 22.390625 C36.39520264 21.32231445 36.99743652 20.25400391 37.61791992 19.15332031 C39.66849517 16.15765256 41.52195452 14.2852934 44.5625 12.3125 C48.03008942 12.37228602 50.45076749 12.70284023 53.5 14.375 C55.29414598 17.64667796 55.1979159 20.73940049 54.5625 24.3125 C52.77343322 28.41190974 50.50461587 32.17969187 48.1875 36 C46.98967284 38.02325293 45.79426898 40.04794296 44.6015625 42.07421875 C44.06740723 42.96069092 43.53325195 43.84716309 42.98291016 44.76049805 C41.61108251 47.22521348 40.54690348 49.67229308 39.5625 52.3125 C40.39394531 53.01826172 40.39394531 53.01826172 41.2421875 53.73828125 C42.32886719 54.67220703 42.32886719 54.67220703 43.4375 55.625 C44.51644531 56.54732422 44.51644531 56.54732422 45.6171875 57.48828125 C47.5625 59.3125 47.5625 59.3125 49.5625 62.3125 C53.22144871 60.94825775 56.45832168 59.28747975 59.80078125 57.2734375 C60.78626953 56.69335938 61.77175781 56.11328125 62.78710938 55.515625 C64.84047966 54.29996745 66.88744596 53.07342529 68.92773438 51.8359375 C74.75526621 48.43432934 78.77129483 46.26829419 85.5625 47.3125 C88.125 49.375 88.125 49.375 89.5625 52.3125 C89.8125 55.75 89.8125 55.75 88.5625 59.3125 C83.15876847 64.53770588 76.07051357 68.05198897 69.5625 71.6875 C68.59699219 72.23277344 67.63148438 72.77804688 66.63671875 73.33984375 C64.28140824 74.6690784 61.92336123 75.99315754 59.5625 77.3125 C59.7790625 78.20453125 59.995625 79.0965625 60.21875 80.015625 C60.63640625 81.77132812 60.63640625 81.77132812 61.0625 83.5625 C61.48015625 85.30273438 61.48015625 85.30273438 61.90625 87.078125 C62.5625 90.3125 62.5625 90.3125 62.5625 94.3125 C63.63733643 94.29678955 64.71217285 94.2810791 65.81958008 94.26489258 C69.80583203 94.21060889 73.79205128 94.17615579 77.77856445 94.14770508 C79.50420627 94.13261484 81.22980972 94.11214025 82.95532227 94.08618164 C85.43515488 94.04980791 87.91448064 94.03277641 90.39453125 94.01953125 C91.16650345 94.00404739 91.93847565 93.98856354 92.73384094 93.97261047 C98.02902957 93.97094522 98.02902957 93.97094522 100.54956055 95.5847168 C102.30338801 98.57624173 102.21248935 101.99245635 101.5625 105.3125 C100.5480957 107.4152832 100.5480957 107.4152832 98.5625 109.3125 C95.70720106 109.66819326 93.24332619 109.77931139 90.39453125 109.703125 C89.59971848 109.69746521 88.8049057 109.69180542 87.98600769 109.68597412 C85.44839134 109.66359004 82.9121892 109.61339262 80.375 109.5625 C78.65431727 109.5424375 76.93361241 109.52418629 75.21289062 109.5078125 C70.99554918 109.46371894 66.77926431 109.39467965 62.5625 109.3125 C62.48902344 110.1478125 62.48902344 110.1478125 62.4140625 111 C61.89694423 116.27817265 60.95787537 121.19612365 59.5625 126.3125 C60.32916992 126.74071045 61.09583984 127.1689209 61.88574219 127.61010742 C64.745684 129.21400542 67.60002987 130.82708152 70.45117188 132.4465332 C71.68280157 133.14360589 72.91650528 133.83702789 74.15234375 134.52661133 C75.93536153 135.52236924 77.71033984 136.53131349 79.484375 137.54296875 C80.55268555 138.14520264 81.62099609 138.74743652 82.72167969 139.36791992 C85.71734744 141.41849517 87.5897066 143.27195452 89.5625 146.3125 C89.50271398 149.78008942 89.17215977 152.20076749 87.5 155.25 C84.1948135 157.06252163 81.16585466 156.98618433 77.5625 156.3125 C73.09018301 154.33949523 68.94422512 151.87694646 64.75 149.375 C62.51536999 148.0724208 60.2797398 146.77155546 58.04296875 145.47265625 C57.06223389 144.89136963 56.08149902 144.31008301 55.07104492 143.71118164 C52.55629527 142.20721082 52.55629527 142.20721082 49.5625 141.3125 C49.09199219 141.86679688 48.62148438 142.42109375 48.13671875 142.9921875 C47.20279297 144.07886719 47.20279297 144.07886719 46.25 145.1875 C45.63511719 145.90679687 45.02023437 146.62609375 44.38671875 147.3671875 C42.5625 149.3125 42.5625 149.3125 39.5625 151.3125 C40.92674225 154.97144871 42.58752025 158.20832168 44.6015625 161.55078125 C45.18164062 162.53626953 45.76171875 163.52175781 46.359375 164.53710938 C47.57503255 166.59047966 48.80157471 168.63744596 50.0390625 170.67773438 C53.44067066 176.50526621 55.60670581 180.52129483 54.5625 187.3125 C52.5 189.875 52.5 189.875 49.5625 191.3125 C46.125 191.5625 46.125 191.5625 42.5625 190.3125 C37.33729412 184.90876847 33.82301103 177.82051357 30.1875 171.3125 C29.64222656 170.34699219 29.09695313 169.38148438 28.53515625 168.38671875 C27.2059216 166.03140824 25.88184246 163.67336123 24.5625 161.3125 C23.67046875 161.5290625 22.7784375 161.745625 21.859375 161.96875 C20.10367188 162.38640625 20.10367188 162.38640625 18.3125 162.8125 C16.57226562 163.23015625 16.57226562 163.23015625 14.796875 163.65625 C11.5625 164.3125 11.5625 164.3125 7.5625 164.3125 C7.57821045 165.35180664 7.5939209 166.39111328 7.61010742 167.46191406 C7.66446842 171.3233259 7.69887233 175.184704 7.72729492 179.04638672 C7.74236754 180.71669201 7.7628292 182.38695781 7.78881836 184.05712891 C7.82526973 186.46006013 7.84224131 188.86246744 7.85546875 191.265625 C7.87095261 192.01056213 7.88643646 192.75549927 7.90238953 193.52301025 C7.90342857 196.73482292 7.76324034 198.95384534 6.17895508 201.78442383 C4.07351688 203.7747482 2.92661087 203.82160277 0.0625 203.75 C-0.7109375 203.74871094 -1.484375 203.74742187 -2.28125 203.74609375 C-4.95428665 203.20858094 -5.82070113 202.48630579 -7.4375 200.3125 C-8.74283158 196.56973515 -8.55074519 192.85028669 -8.53515625 188.921875 C-8.5337413 188.21726135 -8.53232635 187.51264771 -8.53086853 186.78668213 C-8.52528933 184.54524416 -8.51274073 182.30390757 -8.5 180.0625 C-8.49498231 178.53906395 -8.49041987 177.01562632 -8.48632812 175.4921875 C-8.47532674 171.76559228 -8.45807646 168.03905604 -8.4375 164.3125 C-9.16267822 164.19205322 -9.88785645 164.07160645 -10.63500977 163.94750977 C-27.38760116 161.05518679 -41.17468818 153.12185587 -51.4375 139.3125 C-57.55819463 130.37653721 -62.62473875 120.35493439 -62.4375 109.3125 C-63.51233643 109.32821045 -64.58717285 109.3439209 -65.69458008 109.36010742 C-69.68083203 109.41439111 -73.66705128 109.44884421 -77.65356445 109.47729492 C-79.37920627 109.49238516 -81.10480972 109.51285975 -82.83032227 109.53881836 C-85.31015488 109.57519209 -87.78948064 109.59222359 -90.26953125 109.60546875 C-91.42748955 109.62869453 -91.42748955 109.62869453 -92.60884094 109.65238953 C-97.94885744 109.65406888 -97.94885744 109.65406888 -100.3972168 107.94262695 C-101.83981496 105.68207123 -102.24618277 103.99094128 -102.4375 101.3125 C-101.5013375 98.21596249 -100.73326678 96.60826678 -98.4375 94.3125 C-95.71264272 94.13732253 -93.09090638 94.08100867 -90.3671875 94.1171875 C-89.57095978 94.1200174 -88.77473206 94.12284729 -87.95437622 94.12576294 C-85.40693237 94.1369736 -82.85983789 94.16207938 -80.3125 94.1875 C-78.58724465 94.19752867 -76.86198381 94.20665472 -75.13671875 94.21484375 C-70.90351086 94.23691578 -66.6705647 94.27145133 -62.4375 94.3125 C-62.38851562 93.755625 -62.33953125 93.19875 -62.2890625 92.625 C-61.77194423 87.34682735 -60.83287537 82.42887635 -59.4375 77.3125 C-60.58750488 76.67018433 -60.58750488 76.67018433 -61.76074219 76.01489258 C-64.620684 74.41099458 -67.47502987 72.79791848 -70.32617188 71.1784668 C-71.55780157 70.48139411 -72.79150528 69.78797211 -74.02734375 69.09838867 C-75.81036153 68.10263076 -77.58533984 67.09368651 -79.359375 66.08203125 C-80.42768555 65.47979736 -81.49599609 64.87756348 -82.59667969 64.25708008 C-85.59234744 62.20650483 -87.4647066 60.35304548 -89.4375 57.3125 C-89.37771398 53.84491058 -89.04715977 51.42423251 -87.375 48.375 C-84.10332204 46.58085402 -81.01059951 46.6770841 -77.4375 47.3125 C-73.33809026 49.10156678 -69.57030813 51.37038413 -65.75 53.6875 C-63.72674707 54.88532716 -61.70205704 56.08073102 -59.67578125 57.2734375 C-58.346073 58.07467041 -58.346073 58.07467041 -56.98950195 58.89208984 C-54.52478652 60.26391749 -52.07770692 61.32809652 -49.4375 62.3125 C-48.96699219 61.75820313 -48.49648438 61.20390625 -48.01171875 60.6328125 C-47.38910156 59.90835938 -46.76648438 59.18390625 -46.125 58.4375 C-45.51011719 57.71820313 -44.89523437 56.99890625 -44.26171875 56.2578125 C-42.4375 54.3125 -42.4375 54.3125 -39.4375 52.3125 C-40.81193334 48.64734442 -42.47135646 45.34889954 -44.44140625 41.96875 C-45.01697266 40.96972656 -45.59253906 39.97070312 -46.18554688 38.94140625 C-47.39616651 36.85377153 -48.6097153 34.76783271 -49.82617188 32.68359375 C-50.40044922 31.68457031 -50.97472656 30.68554688 -51.56640625 29.65625 C-52.09306885 28.75068359 -52.61973145 27.84511719 -53.16235352 26.91210938 C-54.44281383 24.30166684 -55.13761549 22.1996057 -55.4375 19.3125 C-53.81594371 15.82615399 -52.67296708 14.46947806 -49.4375 12.3125 C-46.125 12.1875 -46.125 12.1875 -42.4375 13.3125 C-37.18207643 18.65738889 -33.68589054 25.82618361 -30.0625 32.3125 C-29.51722656 33.27800781 -28.97195313 34.24351563 -28.41015625 35.23828125 C-27.0809216 37.59359176 -25.75684246 39.95163877 -24.4375 42.3125 C-23.61765625 42.0959375 -22.7978125 41.879375 -21.953125 41.65625 C-20.87546875 41.3778125 -19.7978125 41.099375 -18.6875 40.8125 C-17.62015625 40.5340625 -16.5528125 40.255625 -15.453125 39.96875 C-12.4375 39.3125 -12.4375 39.3125 -8.4375 39.3125 C-8.44797363 38.36930908 -8.45844727 37.42611816 -8.46923828 36.4543457 C-8.50340641 32.94129982 -8.5284408 29.4284316 -8.54736328 25.9152832 C-8.55739545 24.39735114 -8.57102438 22.87943827 -8.58837891 21.36157227 C-8.61275035 19.1745936 -8.62401095 16.98787136 -8.6328125 14.80078125 C-8.64328613 13.48634033 -8.65375977 12.17189941 -8.66455078 10.81762695 C-8.25920146 4.55999234 -6.80180372 0.03350642 0 0 Z M-36.4375 71.3125 C-44.17550882 80.49515854 -47.79450589 92.36767779 -47.4375 104.3125 C-45.86672218 117.76983693 -40.4964934 129.13209961 -30.4375 138.3125 C-19.79359264 146.24672711 -7.22179887 150.45327027 6.046875 148.90625 C18.89521038 146.54978674 30.38858237 140.59492075 38.3125 129.96484375 C45.85111734 118.0726749 49.1931516 105.43734486 46.4765625 91.4921875 C43.03856484 79.53265717 36.35434153 68.76194563 25.75 62 C3.91366815 49.99835196 -19.15896792 53.10726464 -36.4375 71.3125 Z " fill="#000000" transform="translate(410.4375,-0.3125)"/>
<path d="M0 0 C0.86093262 -0.00692368 1.72186523 -0.01384735 2.60888672 -0.02098083 C5.37081506 -0.03816358 8.132552 -0.04456648 10.89453125 -0.046875 C11.83334137 -0.04821442 12.77215149 -0.04955383 13.7394104 -0.05093384 C49.57567949 -0.03981968 49.57567949 -0.03981968 61.70703125 6.203125 C64.05252799 9.72137011 64.28694528 11.06088194 63.70703125 15.203125 C61.95703125 18.140625 61.95703125 18.140625 58.70703125 20.203125 C54.63073664 20.46030447 50.73148097 19.82546259 46.70703125 19.203125 C-8.64923011 11.07567391 -64.97133876 22.42107295 -110.66015625 55.625 C-126.1417239 67.14643419 -140.43325002 79.93544111 -152.29296875 95.203125 C-152.72367676 95.75742188 -153.15438477 96.31171875 -153.59814453 96.8828125 C-188.6935279 142.41195849 -203.07697655 198.31505963 -196.29296875 255.203125 C-190.43601678 297.08901776 -172.24078964 332.79227763 -145.6875 365.16015625 C-143.53950155 367.92186854 -142.33950138 369.9064795 -141.79296875 373.390625 C-142.37137834 376.64417895 -142.79229248 378.02511664 -145.29296875 380.203125 C-149.0201232 381.23844568 -151.22923927 381.71984169 -154.76171875 380.00390625 C-159.52048304 376.61842733 -162.76797532 371.80304037 -166.29296875 367.203125 C-166.73479492 366.62949219 -167.17662109 366.05585938 -167.63183594 365.46484375 C-174.54849133 356.42642432 -180.68463839 347.10248022 -186.29296875 337.203125 C-186.63424805 336.61096191 -186.97552734 336.01879883 -187.32714844 335.40869141 C-215.83215851 285.69540829 -222.32643104 223.46641803 -207.98046875 168.328125 C-207.13625949 165.26957502 -206.23117745 162.23406211 -205.29296875 159.203125 C-205.05239746 158.4184082 -204.81182617 157.63369141 -204.56396484 156.82519531 C-196.87235693 132.24172823 -184.93337713 109.6314135 -169.29296875 89.203125 C-168.68195313 88.39875 -168.0709375 87.594375 -167.44140625 86.765625 C-161.80689802 79.53119468 -155.60413421 72.8447519 -149.29296875 66.203125 C-148.50664062 65.37425781 -147.7203125 64.54539062 -146.91015625 63.69140625 C-141.41112908 58.04455577 -135.49408583 53.06094832 -129.29296875 48.203125 C-128.36742187 47.47222656 -127.441875 46.74132812 -126.48828125 45.98828125 C-90.96540698 18.60004892 -45.21874619 0.24712333 0 0 Z " fill="#000000" transform="translate(244.29296875,29.796875)"/>
<path d="M0 0 C5.13351848 2.42147098 7.79651703 5.8566804 10 11 C10.48101807 14.57518005 10.48101807 14.57518005 10.45410156 18.40405273 C10.45468567 19.107332 10.45526978 19.81061127 10.45587158 20.53520203 C10.45310846 22.83518695 10.42210413 25.13383829 10.390625 27.43359375 C10.38315622 29.03783968 10.3774663 30.6420948 10.37347412 32.24635315 C10.35826774 36.45020131 10.31903 40.65348871 10.2746582 44.8571167 C10.23359693 49.15401628 10.21544003 53.45100727 10.1953125 57.74804688 C10.15253003 66.16562071 10.08434042 74.58274042 10 83 C10.7628833 82.98187256 11.5257666 82.96374512 12.31176758 82.94506836 C13.30845459 82.93096924 14.3051416 82.91687012 15.33203125 82.90234375 C16.8166687 82.87515259 16.8166687 82.87515259 18.33129883 82.84741211 C21 83 21 83 23.6875 84.5625 C25.50461526 87.93714263 25.4723305 90.22135599 25 94 C23.23984869 97.1850357 22.50109084 97.83296972 19 99 C17.43881572 99.06740865 15.8749748 99.08514456 14.3125 99.0625 C13.50425781 99.05347656 12.69601563 99.04445313 11.86328125 99.03515625 C11.24839844 99.02355469 10.63351563 99.01195312 10 99 C10.0314209 100.27846802 10.0314209 100.27846802 10.06347656 101.58276367 C10.13185244 104.76029433 10.18189738 107.93744871 10.21972656 111.11547852 C10.2397799 112.48800023 10.26703028 113.86043717 10.30175781 115.23266602 C10.35054552 117.21072044 10.37088876 119.18941119 10.390625 121.16796875 C10.4220459 122.95110474 10.4220459 122.95110474 10.45410156 124.77026367 C9.9110014 128.63299057 8.72300736 130.26180153 6 133 C4 133.62890625 4 133.62890625 2 133.5625 C1.34 133.56378906 0.68 133.56507813 0 133.56640625 C-2.95265362 132.73020552 -4.10117824 131.39842178 -6 129 C-6.45410156 125.79199219 -6.45410156 125.79199219 -6.390625 122.046875 C-6.38496521 121.38665344 -6.37930542 120.72643188 -6.37347412 120.04620361 C-6.3511623 117.94671737 -6.30098314 115.8489663 -6.25 113.75 C-6.22992794 112.3229414 -6.21167839 110.89585592 -6.1953125 109.46875 C-6.15131693 105.97860707 -6.08232876 102.48947301 -6 99 C-6.97932747 99.01332367 -6.97932747 99.01332367 -7.97843933 99.0269165 C-14.77533206 99.11542916 -21.57206099 99.17575086 -28.36938477 99.21972656 C-30.90591075 99.23983841 -33.4423904 99.26713161 -35.97875977 99.30175781 C-39.62527911 99.35029242 -43.27118528 99.37297363 -46.91796875 99.390625 C-48.61822456 99.42159271 -48.61822456 99.42159271 -50.35282898 99.45318604 C-58.22654013 99.45542869 -58.22654013 99.45542869 -62.19262695 97.12011719 C-64.37818251 94.55637757 -65 93.37928412 -65 90 C-62.73364011 84.08775682 -59.73155802 78.60520365 -56.6875 73.0625 C-55.90669067 71.63526611 -55.90669067 71.63526611 -55.11010742 70.17919922 C-50.54865015 61.89362103 -45.80684329 53.71839094 -41.01367188 45.56518555 C-37.6671655 39.87212305 -34.38701432 34.15172203 -31.1875 28.375 C-14.37895758 -1.69734744 -14.37895758 -1.69734744 0 0 Z M-7 20 C-13.73304406 29.94276918 -19.43495797 40.64666959 -25.34863281 51.08544922 C-27.08114737 54.14321959 -28.81784384 57.19859307 -30.5546875 60.25390625 C-31.72422338 62.31495379 -32.89350045 64.37614821 -34.0625 66.4375 C-34.61059326 67.40220215 -35.15868652 68.3669043 -35.72338867 69.36083984 C-36.23877197 70.27172363 -36.75415527 71.18260742 -37.28515625 72.12109375 C-37.73769775 72.9195874 -38.19023926 73.71808105 -38.65649414 74.54077148 C-40.17616299 77.32245861 -41.58245447 80.16490893 -43 83 C-30.79 83 -18.58 83 -6 83 C-6 62.21 -6 41.42 -6 20 C-6.33 20 -6.66 20 -7 20 Z " fill="#000000" transform="translate(227,152)"/>
<path d="M0 0 C8.26833631 5.90595451 13.35303614 14.13918974 16.2265625 23.8046875 C18.66816534 44.80247191 6.91374508 61.69261029 -5.015625 77.79296875 C-9.10046506 83.3164435 -12.95240694 88.99150975 -16.7956543 94.68457031 C-20.88425955 100.71914634 -25.1477158 106.61639354 -29.4609375 112.4921875 C-28.90605652 112.50027435 -28.35117554 112.50836121 -27.77947998 112.51669312 C-22.00428343 112.60275006 -16.22942966 112.70225417 -10.45458984 112.80957031 C-8.29937497 112.84785352 -6.14409634 112.88270754 -3.98876953 112.9140625 C-0.89071874 112.959727 2.20689341 113.01771962 5.3046875 113.078125 C6.26836243 113.08967621 7.23203735 113.10122742 8.22491455 113.11312866 C9.57586212 113.1429332 9.57586212 113.1429332 10.95410156 113.17333984 C11.74463928 113.18666351 12.535177 113.19998718 13.34967041 113.2137146 C16.59718284 113.62677182 18.83015808 114.58073896 20.8515625 117.1796875 C21.85765199 120.56380668 21.34348649 123.08885524 20.5390625 126.4921875 C19.38900757 128.18078613 19.38900757 128.18078613 17.5390625 129.4921875 C14.66836548 129.88659668 14.66836548 129.88659668 11.12744141 129.91210938 C10.48154556 129.92057892 9.83564972 129.92904846 9.17018127 129.93777466 C7.03512879 129.96117189 4.900796 129.96216613 2.765625 129.9609375 C1.27973136 129.9680385 -0.20615953 129.9757374 -1.69204712 129.98400879 C-4.80747089 129.99746051 -7.92264124 129.99901984 -11.03808594 129.99316406 C-15.02539963 129.98727303 -19.01149354 130.01782942 -22.9985714 130.05828094 C-26.06817138 130.08416855 -29.13747829 130.08703438 -32.20717239 130.08338928 C-33.67676479 130.08508018 -35.14637077 130.09472005 -36.61585617 130.11253357 C-38.67490189 130.13474326 -40.73148799 130.125016 -42.79052734 130.10742188 C-44.54567154 130.11050354 -44.54567154 130.11050354 -46.33627319 130.11364746 C-50.40057206 129.30530494 -51.89343399 127.67377866 -54.4609375 124.4921875 C-55.25535283 121.25483024 -54.9501351 119.42128022 -53.39990234 116.47705078 C-51.89458918 114.10509003 -50.29552052 111.83045623 -48.6484375 109.5546875 C-48.05675781 108.71421875 -47.46507813 107.87375 -46.85546875 107.0078125 C-42.85537042 101.35102109 -38.76026999 95.76194156 -34.62988281 90.19970703 C-30.34141795 84.40176446 -26.28336336 78.45382408 -22.24194336 72.48193359 C-19.34054786 68.20295013 -16.37969445 63.99097012 -13.296875 59.84106445 C-6.59058255 50.76262676 0.46585928 40.27862479 -0.4609375 28.4921875 C-1.17997179 25.57047775 -2.17549697 23.25350418 -3.4609375 20.4921875 C-3.7703125 19.7084375 -4.0796875 18.9246875 -4.3984375 18.1171875 C-5.82345877 15.9377432 -7.04631119 15.47109006 -9.4609375 14.4921875 C-10.4715625 13.9559375 -11.4821875 13.4196875 -12.5234375 12.8671875 C-18.00951339 10.57151197 -24.03215707 10.55545883 -29.734375 12.11328125 C-35.83553661 14.74309229 -39.86340239 19.5785753 -42.35546875 25.68359375 C-42.71705078 26.73353516 -42.71705078 26.73353516 -43.0859375 27.8046875 C-44.98749909 32.90432994 -44.98749909 32.90432994 -48.4609375 34.4921875 C-52.09238687 35.02177387 -53.7465194 34.99421103 -56.7734375 32.8671875 C-58.97668335 29.76632298 -59.4609375 28.33863035 -59.4609375 24.4921875 C-57.03827267 14.22773914 -51.38339794 5.75108692 -42.6640625 -0.22265625 C-29.33657809 -7.99702216 -13.20439247 -8.09031031 0 0 Z " fill="#000000" transform="translate(148.4609375,156.5078125)"/>
<path d="M0 0 C2.4375 1.5625 2.4375 1.5625 4 4 C5.0961252 11.2842502 1.63200508 17.25524667 -1.3125 23.75 C-1.89421748 25.0589419 -2.47466266 26.36844984 -3.05395508 27.6784668 C-4.33032121 30.55937828 -5.61422009 33.43677629 -6.90332031 36.31201172 C-9.10749885 41.23251233 -11.28592698 46.16420615 -13.4609375 51.09765625 C-16.25894927 57.44235849 -19.05968929 63.78582687 -21.86621094 70.12677002 C-26.9518082 81.61735541 -32.01400003 93.11807233 -37.0625 104.625 C-37.61653503 105.88762161 -37.61653503 105.88762161 -38.1817627 107.17575073 C-40.788593 113.11683775 -43.39443262 119.05835901 -46 125 C-51.20790996 136.87592829 -56.4185384 148.75065061 -61.63671875 160.62207031 C-63.28902735 164.38128082 -64.9398313 168.1411483 -66.58984375 171.90136719 C-68.77898185 176.88952198 -70.97171885 181.87608168 -73.16677856 186.8616333 C-74.00704043 188.77155969 -74.84615109 190.681993 -75.68405151 192.59295654 C-76.84743602 195.24565247 -78.01500764 197.89646724 -79.18359375 200.546875 C-79.52652466 201.33138031 -79.86945557 202.11588562 -80.22277832 202.92416382 C-84.42475254 212.42475254 -84.42475254 212.42475254 -88 216 C-94.98899163 216.7890797 -94.98899163 216.7890797 -98.5625 214 C-100.43112726 210.10025615 -99.87725999 207.09299652 -99 203 C-98.08961801 200.49889218 -97.15492536 198.18289991 -96.03515625 195.78515625 C-95.73074112 195.10974792 -95.42632599 194.4343396 -95.11268616 193.73846436 C-94.45234779 192.27659335 -93.78711732 190.81692416 -93.11749268 189.35928345 C-92.03524861 187.00317206 -90.96594407 184.64155939 -89.89990234 182.27807617 C-88.76662496 179.76560841 -87.63267551 177.25347383 -86.49499512 174.74299622 C-82.67652333 166.31359897 -78.95261816 157.84377381 -75.24264526 149.36618042 C-74.11483029 146.78926348 -72.98550807 144.21301221 -71.85571289 141.63696289 C-70.33080496 138.16001137 -68.80631614 134.68287672 -67.28222656 131.20556641 C-63.89922396 123.48803527 -60.51092087 115.77283134 -57.12298584 108.0574646 C-55.24843713 103.78840636 -53.37423628 99.51919541 -51.5 95.25 C-50.75000166 93.54166594 -50.00000166 91.8333326 -49.25 90.125 C-48.87875 89.279375 -48.5075 88.43375 -48.125 87.5625 C-44.75 79.875 -44.75 79.875 -43.62521362 77.31307983 C-42.87441004 75.60285389 -42.12369812 73.8925877 -41.37307739 72.18228149 C-39.51111767 67.94007213 -37.64762698 63.69854919 -35.78076172 59.45849609 C-32.24788845 51.43006753 -28.73215179 43.39516344 -25.26617432 35.33758545 C-23.62194686 31.51758978 -21.96951118 27.7011706 -20.31640625 23.88500977 C-19.52810091 22.05882291 -18.74385424 20.2308782 -17.96386719 18.40112305 C-16.88447067 15.86968121 -15.79143903 13.34454555 -14.6953125 10.8203125 C-14.37942169 10.06924225 -14.06353088 9.318172 -13.73806763 8.54434204 C-10.64456573 1.49331495 -7.86115852 -0.98264482 0 0 Z " fill="#000000" transform="translate(321,152)"/>
<path d="M0 0 C0.69641602 -0.00846954 1.39283203 -0.01693909 2.11035156 -0.02566528 C4.40708793 -0.04902075 6.70315398 -0.05005799 9 -0.04882812 C10.59896106 -0.05592975 12.19791956 -0.06362875 13.796875 -0.07189941 C17.14590544 -0.08534019 20.49470015 -0.08691449 23.84375 -0.08105469 C28.13488945 -0.07515356 32.42489944 -0.10576768 36.71582031 -0.14617157 C40.01698904 -0.17202158 43.31788464 -0.1749286 46.61914062 -0.17127991 C48.2012008 -0.17297318 49.78327331 -0.18263571 51.36523438 -0.20042419 C53.57759261 -0.22256709 55.78764953 -0.21294041 58 -0.1953125 C59.258125 -0.19736694 60.51625 -0.19942139 61.8125 -0.20153809 C65 0.41992188 65 0.41992188 67.40725708 2.78645325 C69.42286635 6.11909639 69.57413674 7.5646313 69 11.41992188 C67.9566883 14.51379694 66.6263645 17.44612075 65.2578125 20.40820312 C64.86288101 21.28693085 64.46794952 22.16565857 64.06105042 23.0710144 C62.75900191 25.96276687 61.44185125 28.84738431 60.125 31.73242188 C59.2107045 33.75763709 58.29771696 35.78344326 57.38598633 37.80981445 C55.98147209 40.93099314 54.57615357 44.05178074 53.16676331 47.17076111 C48.97755539 56.44289206 44.8732382 65.75074491 40.79660034 75.07281494 C39.69154526 77.59817732 38.58367184 80.12228402 37.47485352 82.64599609 C34.20753733 90.08450216 30.9494334 97.52665695 27.72373962 104.98332214 C26.33662219 108.18695303 24.94294008 111.38770375 23.54824829 114.58804321 C22.8973209 116.08660095 22.24961014 117.5865605 21.60531616 119.08798218 C20.72528768 121.13838146 19.8346351 123.18384009 18.94140625 125.22851562 C18.44326416 126.38150146 17.94512207 127.5344873 17.43188477 128.72241211 C16 131.41992188 16 131.41992188 13 133.41992188 C9.52441797 133.95947796 6.18308436 134.06871007 3.0625 132.35742188 C1.19617457 128.95412256 0.52157794 125.31607887 1.48303223 121.50549316 C2.29848691 119.38483588 3.20960288 117.33754249 4.171875 115.27929688 C4.52123108 114.49591949 4.87058716 113.71254211 5.23052979 112.90542603 C6.38799725 110.31954265 7.56899002 107.74512714 8.75 105.16992188 C9.56815663 103.35251223 10.38453272 101.53430008 11.19921875 99.71533203 C12.91220831 95.89555504 14.63370404 92.07978092 16.36132812 88.26660156 C20.23278865 79.70775289 24.01396559 71.10908674 27.8013916 62.51281738 C28.95724034 59.89188123 30.11615308 57.27232657 31.27636719 54.65332031 C36.90911069 41.93404346 42.4669105 29.18284238 48 16.41992188 C47.33236633 16.4243631 46.66473267 16.42880432 45.97686768 16.43338013 C39.03407937 16.47759466 32.091331 16.50778055 25.1484375 16.52978516 C22.5566241 16.53984856 19.96482207 16.55350052 17.37304688 16.57080078 C13.64971106 16.59503382 9.92652523 16.60640162 6.203125 16.61523438 C4.46231659 16.63071823 4.46231659 16.63071823 2.68634033 16.64651489 C1.06511261 16.64674149 1.06511261 16.64674149 -0.58886719 16.64697266 C-2.01449982 16.65363449 -2.01449982 16.65363449 -3.46893311 16.66043091 C-6.1395861 16.40665801 -7.73841445 15.83520377 -10 14.41992188 C-12.0815902 11.74359162 -11.99587591 10.3023852 -11.875 6.85742188 C-11 3.41992188 -11 3.41992188 -9.3828125 1.73132324 C-6.14625863 -0.04994203 -3.6885144 0.024683 0 0 Z " fill="#000000" transform="translate(318,234.580078125)"/>
<path d="M0 0 C0.7734375 -0.00773437 1.546875 -0.01546875 2.34375 -0.0234375 C5.03507776 0.47387306 5.88034029 1.19240978 7.5 3.375 C8.84977352 6.86127219 8.59946407 10.428593 8.5625 14.125 C8.55347656 15.29546875 8.54445313 16.4659375 8.53515625 17.671875 C8.52355469 18.56390625 8.51195313 19.4559375 8.5 20.375 C9.25925781 20.34019531 10.01851562 20.30539062 10.80078125 20.26953125 C12.29158203 20.22892578 12.29158203 20.22892578 13.8125 20.1875 C14.79863281 20.15269531 15.78476562 20.11789062 16.80078125 20.08203125 C19.5 20.375 19.5 20.375 21.3046875 21.73828125 C22.94132171 23.97929345 23.30248713 25.60981989 23.5 28.375 C22.5638375 31.47153751 21.79576678 33.07923322 19.5 35.375 C16.8984375 35.5703125 16.8984375 35.5703125 13.875 35.5 C12.87210938 35.48195313 11.86921875 35.46390625 10.8359375 35.4453125 C9.67964844 35.41050781 9.67964844 35.41050781 8.5 35.375 C8.52320312 36.25542969 8.54640625 37.13585937 8.5703125 38.04296875 C8.59738281 39.78513672 8.59738281 39.78513672 8.625 41.5625 C8.64820312 42.71105469 8.67140625 43.85960937 8.6953125 45.04296875 C8.43738682 49.44318091 7.63095049 52.24404951 4.5 55.375 C2.44140625 55.67578125 2.44140625 55.67578125 0.0625 55.6875 C-1.11119141 55.71263672 -1.11119141 55.71263672 -2.30859375 55.73828125 C-5.05226282 55.28344841 -5.78155393 54.52472805 -7.5 52.375 C-7.84057617 50.47387695 -7.84057617 50.47387695 -7.79296875 48.36328125 C-7.78330078 47.60595703 -7.77363281 46.84863281 -7.76367188 46.06835938 C-7.73853516 45.28267578 -7.71339844 44.49699219 -7.6875 43.6875 C-7.66719727 42.49157227 -7.66719727 42.49157227 -7.64648438 41.27148438 C-7.61117089 39.30570033 -7.55736447 37.34026418 -7.5 35.375 C-8.33144531 35.40980469 -9.16289062 35.44460938 -10.01953125 35.48046875 C-11.64955078 35.52107422 -11.64955078 35.52107422 -13.3125 35.5625 C-14.39144531 35.59730469 -15.47039063 35.63210938 -16.58203125 35.66796875 C-19.5 35.375 -19.5 35.375 -21.36328125 34.14453125 C-22.79444126 31.91664299 -22.90136288 30.5112878 -22.875 27.875 C-22.88273437 27.1015625 -22.89046875 26.328125 -22.8984375 25.53125 C-22.5 23.375 -22.5 23.375 -21.36328125 21.60546875 C-18.65446203 19.81662587 -16.5200417 20.08403091 -13.3125 20.1875 C-12.22582031 20.21457031 -11.13914062 20.24164063 -10.01953125 20.26953125 C-8.77236328 20.32173828 -8.77236328 20.32173828 -7.5 20.375 C-7.55220703 18.58642578 -7.55220703 18.58642578 -7.60546875 16.76171875 C-7.63360753 15.19532658 -7.6609076 13.62891919 -7.6875 12.0625 C-7.72520508 10.88397461 -7.72520508 10.88397461 -7.76367188 9.68164062 C-7.77333984 8.92431641 -7.78300781 8.16699219 -7.79296875 7.38671875 C-7.81653442 6.34197388 -7.81653442 6.34197388 -7.84057617 5.27612305 C-7.05248171 0.87691761 -4.05750026 -0.040575 0 0 Z " fill="#000000" transform="translate(22.5,339.625)"/>
<path d="M0 0 C1.8046875 0.6328125 1.8046875 0.6328125 3.8046875 2.1953125 C5.27436259 5.77764552 4.99756323 8.77529783 4.8046875 12.6328125 C5.7121875 12.6946875 6.6196875 12.7565625 7.5546875 12.8203125 C10.8046875 13.6328125 10.8046875 13.6328125 13.2421875 15.7578125 C15.30299423 19.54969689 14.94519283 21.52699333 13.8046875 25.6328125 C12.6171875 27.5703125 12.6171875 27.5703125 10.8046875 28.6328125 C7.6171875 28.8203125 7.6171875 28.8203125 4.8046875 28.6328125 C4.9284375 30.458125 4.9284375 30.458125 5.0546875 32.3203125 C5.03235997 35.46291185 4.76183119 36.71852511 3.3046875 39.6328125 C0.26366454 42.06563087 -1.47725697 42.3235256 -5.2890625 42.0390625 C-7.1953125 41.6328125 -7.1953125 41.6328125 -9.6953125 40.1953125 C-11.90883676 36.41387522 -11.52448486 32.9120532 -11.1953125 28.6328125 C-12.1028125 28.7359375 -13.0103125 28.8390625 -13.9453125 28.9453125 C-17.1953125 28.6328125 -17.1953125 28.6328125 -19.5703125 26.5078125 C-21.47602389 23.13616927 -21.84381445 21.44276145 -21.1953125 17.6328125 C-18.99474535 14.50123618 -17.69372285 13.74783027 -13.9453125 12.8828125 C-13.0378125 12.8003125 -12.1303125 12.7178125 -11.1953125 12.6328125 C-11.2984375 11.4159375 -11.4015625 10.1990625 -11.5078125 8.9453125 C-11.48929715 5.47676974 -11.20003817 4.64004868 -9.1953125 1.5703125 C-5.66258672 -0.71123957 -4.01843807 -0.83401545 0 0 Z " fill="#000000" transform="translate(155.1953125,470.3671875)"/>
</svg>
