<?xml version="1.0" encoding="UTF-8"?>
<svg version="1.1" xmlns="http://www.w3.org/2000/svg" width="512" height="512">
<path d="M0 0 C0.82423462 -0.01409912 1.64846924 -0.02819824 2.49768066 -0.04272461 C3.38822144 -0.03260345 4.27876221 -0.0224823 5.19628906 -0.01205444 C6.14483765 -0.02081604 7.09338623 -0.02957764 8.07067871 -0.03860474 C11.20155782 -0.06058503 14.33102096 -0.04605036 17.46191406 -0.02914429 C19.63997671 -0.0325128 21.81803753 -0.03736571 23.99609375 -0.04364014 C28.55910147 -0.05100964 33.12161954 -0.04030301 37.68457031 -0.01693726 C43.53260268 0.01155003 49.37948775 -0.00485345 55.22747803 -0.03479958 C59.7245345 -0.05287013 64.22131911 -0.04711551 68.71838379 -0.03416061 C70.87455379 -0.03082596 73.0307485 -0.03491574 75.18688965 -0.04655838 C78.20110417 -0.05926262 81.21346274 -0.039895 84.22753906 -0.01205444 C85.56335022 -0.02723618 85.56335022 -0.02723618 86.92614746 -0.04272461 C91.00908459 0.02711694 93.24357107 0.35432556 96.8046875 2.487854 C99.60692942 7.11175943 99.12754259 11.36105399 98.71191406 16.63491821 C99.45568582 16.63123104 100.19945757 16.62754387 100.96576786 16.62374496 C119.12180003 16.53513861 137.27778865 16.46908499 155.43399143 16.42766953 C164.21445579 16.40710538 172.9947752 16.37910343 181.77514648 16.3331604 C189.43434613 16.29310321 197.09344073 16.2674408 204.75274223 16.25856423 C208.80268143 16.25338119 212.85232028 16.24133 216.90216255 16.21199799 C220.726314 16.18452912 224.5500459 16.17653551 228.37428665 16.18248749 C229.76609655 16.18140112 231.15792281 16.17363649 232.54964638 16.15809631 C254.61829986 15.92409076 271.61467505 24.60946653 288.59375 37.96841431 C290.75224089 39.66664608 292.92187424 41.34964163 295.09472656 43.02944946 C299.64432892 46.55116216 304.17856418 50.09232539 308.71191406 53.63491821 C312.0230791 56.21996759 315.33592529 58.80284843 318.64941406 61.38491821 C319.41302246 61.98159302 320.17663086 62.57826782 320.96337891 63.19302368 C321.67316895 63.74619263 322.38295898 64.29936157 323.11425781 64.86929321 C323.7380835 65.35623657 324.36190918 65.84317993 325.00463867 66.34487915 C328.72271995 69.15430879 330.6275338 69.88418461 335.24440002 69.87974548 C336.39522568 69.88368317 337.54605133 69.88762085 338.73175049 69.89167786 C339.99565613 69.88598282 341.25956177 69.88028778 342.56176758 69.87442017 C343.90557461 69.87553303 345.24938114 69.87759081 346.59318542 69.88052368 C349.48898076 69.88524914 352.38469504 69.88412218 355.28048897 69.87874794 C359.86640894 69.87113889 364.4521728 69.88179463 369.03807068 69.89595032 C382.07950401 69.93368651 395.12086804 69.95190915 408.16235352 69.94033813 C415.36383744 69.93410603 422.56507007 69.94578559 429.76649231 69.97678345 C434.31754917 69.99536988 438.86789057 69.99218358 443.41893494 69.97261584 C446.26354697 69.96569306 449.10777843 69.97977198 451.95231819 69.99956512 C453.88267978 70.00695099 455.81308754 69.98974882 457.74337769 69.97157288 C466.2194214 70.06134054 473.2218731 71.50658414 479.62107182 77.39027882 C484.92857452 83.01483084 487.08260905 89.04965412 487.10632324 96.71141052 C487.11241435 97.38820553 487.11850545 98.06500054 487.12478113 98.76230448 C487.14132019 101.01143958 487.13664862 103.26000286 487.13183594 105.50918579 C487.13918166 107.12944624 487.14776935 108.74970147 487.15750122 110.36994934 C487.17967494 114.75854261 487.18264992 119.14694787 487.18075371 123.53558946 C487.1806338 127.20584478 487.18920653 130.87606059 487.19753122 134.54630488 C487.21675103 143.20974006 487.21965457 151.87307889 487.21289062 160.53652954 C487.20625329 169.45766726 487.22910502 178.37839116 487.26620436 187.29944497 C487.29695047 194.97273915 487.308256 202.64590055 487.30436754 210.31925505 C487.30230482 214.89598067 487.30770499 219.4723843 487.33226013 224.04905128 C487.35460565 228.35600816 487.35258516 232.66229486 487.33233261 236.96925545 C487.32893611 238.54375993 487.3339527 240.11831021 487.34831619 241.69275284 C487.43549556 251.96308363 486.47673573 260.00376534 479.64941406 268.07241821 C470.75241933 275.24741396 462.84741661 275.78396784 451.67700195 275.79605103 C450.02469322 275.80349838 450.02469322 275.80349838 448.33900452 275.81109619 C444.70418671 275.82567163 441.06941251 275.83251108 437.43457031 275.83804321 C434.90400695 275.84379715 432.3734436 275.84955485 429.84288025 275.85531616 C425.21795607 275.86447223 420.59304491 275.87077877 415.96811396 275.87381291 C409.17462582 275.87829538 402.3813387 275.89586111 395.58791167 275.92481351 C389.6889993 275.94907557 383.79013678 275.95675906 377.89117241 275.95848846 C375.38775982 275.9615137 372.88434805 275.96953783 370.38096809 275.98267365 C366.87923066 275.9997411 363.37798293 275.99785221 359.8762207 275.99136353 C358.84482971 276.00057831 357.81343872 276.00979309 356.75079346 276.01928711 C350.97525064 275.98578779 346.77322763 275.51416212 341.71191406 272.63491821 C339.62568265 269.5055711 339.34436843 268.39137534 339.21191406 264.75991821 C339.16035156 263.91687134 339.10878906 263.07382446 339.05566406 262.20523071 C340.01750721 258.4380117 342.48171496 256.55990002 345.71191406 254.63491821 C348.50188555 254.14559687 350.6835106 253.94118727 353.46142578 253.97549438 C354.21332687 253.96501068 354.96522797 253.95452698 355.73991394 253.94372559 C358.20756876 253.91508776 360.6738111 253.92125327 363.14160156 253.92788696 C364.85940296 253.91476499 366.57718894 253.89945922 368.29495239 253.88206482 C372.8027767 253.84225997 377.31019696 253.83202732 381.81817627 253.82803345 C386.42350486 253.81869345 391.02859689 253.7812745 395.63378906 253.74624634 C404.65981972 253.68171658 413.6856729 253.6484387 422.71191406 253.63491821 C423.11587654 252.39733513 423.11587654 252.39733513 423.52799988 251.13475037 C424.06219292 249.51218575 424.06219292 249.51218575 424.60717773 247.85684204 C424.95898605 246.78428665 425.31079437 245.71173126 425.67326355 244.60667419 C430.74961158 230.08237806 440.87071971 220.86329563 454.46582031 214.30679321 C459.00408226 212.38597892 461.63793089 211.63491821 466.71191406 211.63491821 C466.21691406 173.51991821 466.21691406 173.51991821 465.71191406 134.63491821 C459.77191406 132.65491821 459.77191406 132.65491821 453.71191406 130.63491821 C438.15629936 123.27753288 429.47657628 111.50496438 423.71191406 95.63491821 C423.367561 94.3043883 423.03210861 92.97146763 422.71191406 91.63491821 C395.97376425 91.56484621 369.23562819 91.51193886 342.49740505 91.4794817 C330.08246733 91.46401091 317.66758666 91.44291726 305.25268555 91.40859985 C294.43223074 91.37870409 283.61181725 91.35934475 272.79132229 91.35265273 C267.06162437 91.3487408 261.33204463 91.33954263 255.60238457 91.31772804 C250.20900076 91.2973602 244.8157838 91.29108507 239.42236519 91.29559517 C237.44346332 91.29477011 235.46455585 91.2888063 233.48568726 91.27730179 C230.7816712 91.26235311 228.07828323 91.26597332 225.37425232 91.27415466 C224.59310686 91.26541614 223.8119614 91.25667761 223.00714487 91.24767429 C217.86596785 91.28965418 214.28708611 92.24751305 209.71191406 94.63491821 C207.83947982 96.99581356 207.7196985 98.57394012 207.33691406 101.57241821 C207.8347117 105.63776562 208.80525635 106.69838296 211.71191406 109.63491821 C215.2405836 111.88109942 218.93394488 113.78059241 222.64941406 115.69741821 C224.81101064 116.83270085 226.97113832 117.97078415 229.12988281 119.11148071 C230.22349121 119.68930298 231.31709961 120.26712524 232.44384766 120.86245728 C235.61509742 122.58240896 238.72444429 124.37727513 241.82519531 126.22085571 C242.77595947 126.78409546 243.72672363 127.34733521 244.70629883 127.92764282 C246.51501117 129.00722952 248.3166062 130.09884932 250.11010742 131.20352173 C251.32839233 131.92559814 251.32839233 131.92559814 252.57128906 132.66226196 C253.27737305 133.09272827 253.98345703 133.52319458 254.7109375 133.96670532 C256.74454822 134.87587814 256.74454822 134.87587814 258.87255859 133.85293579 C260.85337039 132.54124611 262.25274774 131.15217914 263.83691406 129.38491821 C273.95742671 118.98328022 288.2386223 113.79406704 302.5090332 113.34902954 C319.21622124 113.13506132 334.45661625 118.58680544 346.53613281 130.33023071 C359.45761211 144.01725546 364.3866713 158.70931257 363.95800781 177.19351196 C363.30466454 192.5324517 356.49363383 205.00114657 345.71191406 215.63491821 C345.07382812 216.28331665 344.43574219 216.93171509 343.77832031 217.59976196 C332.21042828 228.59046188 317.68420231 232.13785634 302.20068359 232.05899048 C294.87097266 231.8544308 288.49228693 230.49377168 281.71191406 227.63491821 C280.8340625 227.28429321 279.95621094 226.93366821 279.05175781 226.57241821 C269.36384041 222.26002221 260.90795291 214.19037583 254.71191406 205.63491821 C254.71191406 204.97491821 254.71191406 204.31491821 254.71191406 203.63491821 C254.05191406 203.96491821 253.39191406 204.29491821 252.71191406 204.63491821 C241.35885012 205.88991661 230.04432595 203.21432793 218.94970703 201.11929321 C215.74951497 200.51699496 212.54575755 199.937926 209.34082031 199.36148071 C191.9053412 196.16388814 174.77736787 192.01396884 158.27441406 185.44741821 C157.41783203 185.11806274 156.56125 184.78870728 155.67871094 184.44937134 C151.19258325 182.70418787 147.04539691 180.80165964 142.71191406 178.63491821 C142.71191406 189.52491821 142.71191406 200.41491821 142.71191406 211.63491821 C145.35191406 211.96491821 147.99191406 212.29491821 150.71191406 212.63491821 C165.5952297 218.22864758 176.30222662 227.89193816 182.99316406 242.41616821 C184.51753079 246.11820169 185.76341241 249.74769152 186.71191406 253.63491821 C187.66325226 253.63634323 188.61459045 253.63776825 189.59475708 253.63923645 C198.56996915 253.65592202 207.54472873 253.69874306 216.519701 253.76700878 C221.13364255 253.80126742 225.74725338 253.82638699 230.36132812 253.83047485 C234.81609036 253.83476026 239.27010672 253.86324256 243.72463608 253.90834999 C245.42219571 253.92131734 247.11984464 253.92563535 248.81744766 253.92107201 C251.19991357 253.91616025 253.58020424 253.94227957 255.96240234 253.97549438 C256.66083755 253.96686874 257.35927277 253.9582431 258.07887268 253.94935608 C263.63711001 254.07885847 265.9624147 255.80968604 269.71191406 259.63491821 C270.75755431 263.06676312 270.48517723 266.14664217 269.71191406 269.63491821 C267.05163513 273.25585342 265.06372515 274.84195556 260.71191406 275.63491821 C259.12885005 275.7254143 257.5424934 275.76541624 255.95684814 275.76863098 C255.0036972 275.77289597 254.05054626 275.77716095 253.06851196 275.78155518 C252.02947723 275.78110199 250.9904425 275.7806488 249.91992188 275.78018188 C248.27046066 275.7852198 248.27046066 275.7852198 246.587677 275.7903595 C242.94678624 275.79987013 239.30594148 275.80181279 235.66503906 275.80288696 C233.13401266 275.80609989 230.60298645 275.80946399 228.07196045 275.81297302 C222.76248672 275.81896487 217.45303014 275.82085572 212.14355469 275.82022095 C206.02015216 275.81962099 199.89683796 275.83015773 193.77345777 275.84596461 C187.8702783 275.86065638 181.9671256 275.86420788 176.0639267 275.86361122 C173.55855703 275.86479008 171.05318668 275.86920659 168.54782867 275.87694359 C165.03897323 275.88676334 161.53034362 275.88385723 158.02148438 275.87783813 C156.99054657 275.88345764 155.95960876 275.88907715 154.89743042 275.89486694 C145.70750541 275.85489823 137.01103928 274.63550117 130.04785156 268.06460571 C124.09882766 261.52947108 122.24478574 255.54735876 122.48583984 246.8890686 C122.49653 246.04258255 122.50722015 245.1960965 122.51823425 244.32395935 C122.54182326 242.4965825 122.57157253 240.66927676 122.60687637 238.8420887 C122.65788995 235.9448988 122.68151252 233.04872819 122.69625854 230.15113831 C122.73832708 221.91702972 122.79183211 213.68429254 122.95507812 205.4515686 C123.05314824 200.40481936 123.08755259 195.36103513 123.08068466 190.3133831 C123.0899869 188.39667363 123.12276566 186.47992322 123.17990494 184.56404305 C123.8483213 174.80804633 123.8483213 174.80804633 120.4630661 166.03547287 C114.43257932 160.66731789 106.70791726 158.34612352 98.71191406 158.63491821 C98.76992187 159.8040979 98.82792969 160.97327759 98.88769531 162.17788696 C98.93460856 163.72602401 98.98010704 165.27420438 99.02441406 166.82241821 C99.06630859 167.59134399 99.10820313 168.36026978 99.15136719 169.15249634 C99.16748047 169.90337524 99.18359375 170.65425415 99.20019531 171.42788696 C99.22637939 172.11390991 99.25256348 172.79993286 99.27954102 173.50674438 C98.34210171 177.02143617 96.54606895 178.40320318 93.71191406 180.63491821 C90.55132177 181.36938175 87.46112823 181.31864119 84.22753906 181.28189087 C83.27899048 181.29065247 82.33044189 181.29941406 81.35314941 181.30844116 C78.2222703 181.33042145 75.09280716 181.31588678 71.96191406 181.29898071 C69.78385141 181.30234923 67.60579059 181.30720214 65.42773438 181.31347656 C60.86472666 181.32084606 56.30220858 181.31013943 51.73925781 181.28677368 C45.89122544 181.2582864 40.04434038 181.27468988 34.1963501 181.304636 C29.69929362 181.32270655 25.20250901 181.31695194 20.70544434 181.30399704 C18.54927433 181.30066239 16.39307962 181.30475216 14.23693848 181.31639481 C11.22272395 181.32909905 8.21036539 181.30973143 5.19628906 181.28189087 C4.30574829 181.29201202 3.41520752 181.30213318 2.49768066 181.31256104 C1.26132874 181.29141235 1.26132874 181.29141235 0 181.26983643 C-0.71158264 181.2679513 -1.42316528 181.26606617 -2.15631104 181.26412392 C-5.58961398 180.25076468 -7.10810046 178.41706 -9.28808594 175.63491821 C-9.91729164 172.37869263 -9.91729164 172.37869263 -9.92300415 168.61343384 C-9.9308041 167.91848564 -9.93860406 167.22353745 -9.94664037 166.50753021 C-9.96654343 164.18486611 -9.95080449 161.8638437 -9.93505859 159.54116821 C-9.94183554 157.87367803 -9.95073911 156.20619533 -9.96160889 154.53872681 C-9.98439985 150.01385136 -9.97556686 145.48954603 -9.95971346 140.96466064 C-9.94705338 136.22907984 -9.95879487 131.49354781 -9.96664429 126.75796509 C-9.97574054 118.80540199 -9.96375359 110.85307106 -9.93994141 102.90054321 C-9.91273014 93.7066665 -9.92154433 84.51334417 -9.94907343 75.3194809 C-9.97176421 67.42547612 -9.97496475 59.53163824 -9.96188009 51.63761139 C-9.95408539 46.92299818 -9.95304446 42.20864554 -9.96956253 37.49404907 C-9.98400762 33.0615138 -9.97398524 28.62969318 -9.94509125 24.19723511 C-9.93848059 22.57066027 -9.94037785 20.94402526 -9.95140457 19.31747437 C-9.96507392 17.09630572 -9.94793245 14.87742542 -9.92300415 12.65640259 C-9.92111902 11.41386719 -9.91923389 10.17133179 -9.91729164 8.8911438 C-8.88473205 3.54750669 -5.59341502 0.0148181 0 0 Z M10.71191406 20.63491821 C10.71191406 66.83491821 10.71191406 113.03491821 10.71191406 160.63491821 C33.15191406 160.63491821 55.59191406 160.63491821 78.71191406 160.63491821 C78.71191406 114.43491821 78.71191406 68.23491821 78.71191406 20.63491821 C56.27191406 20.63491821 33.83191406 20.63491821 10.71191406 20.63491821 Z M98.71191406 36.63491821 C98.71191406 70.29491821 98.71191406 103.95491821 98.71191406 138.63491821 C104.98191406 138.96491821 111.25191406 139.29491821 117.71191406 139.63491821 C125.67863237 144.37374203 125.67863237 144.37374203 128.59472656 146.67788696 C139.79016458 155.03390229 153.35341292 161.00557619 166.33691406 166.00991821 C167.07312988 166.29496216 167.8093457 166.5800061 168.56787109 166.87368774 C184.67646244 172.78619165 201.25350846 176.62292636 218.13769531 179.50552368 C221.13628187 180.01836142 224.1311057 180.55006621 227.12597656 181.08413696 C229.05807863 181.42246112 230.99036388 181.75974117 232.92285156 182.09585571 C233.80516449 182.25202362 234.68747742 182.40819153 235.5965271 182.5690918 C245.75368516 184.34333485 245.75368516 184.34333485 255.12988281 180.95523071 C257.95775833 178.59517657 259.65091572 176.17157935 260.71191406 172.63491821 C261.11946469 167.86075373 260.45388327 164.77475496 257.82519531 160.73648071 C254.01653832 156.42698907 248.88352466 154.15835448 243.83691406 151.57241821 C241.67964639 150.43632769 239.52342324 149.29825191 237.36816406 148.15835571 C236.26730469 147.57924438 235.16644531 147.00013306 234.03222656 146.4034729 C228.75021074 143.59002271 223.54159492 140.65085785 218.33691406 137.69741821 C217.41797363 137.17848999 216.4990332 136.65956177 215.55224609 136.12490845 C212.93217367 134.6394359 210.31998238 133.14135782 207.71191406 131.63491821 C206.35187256 130.85193359 206.35187256 130.85193359 204.96435547 130.0531311 C204.08183105 129.53613647 203.19930664 129.01914185 202.29003906 128.48648071 C201.50274414 128.02709106 200.71544922 127.56770142 199.90429688 127.09439087 C192.50315231 122.1674374 188.68504987 115.16960624 186.71191406 106.63491821 C185.44315646 97.38737565 187.61011852 88.36329683 193.21191406 80.82241821 C201.87234759 72.24100007 211.57559935 70.86747538 223.18353271 70.80267334 C225.02112125 70.81121951 226.85870684 70.82042016 228.69628906 70.83023071 C230.60729638 70.81896161 232.51828988 70.80507275 234.42926025 70.78869629 C239.42041949 70.75286629 244.41096359 70.75225827 249.40222168 70.7593689 C254.51077065 70.76028605 259.61909428 70.72736312 264.72753906 70.69741821 C274.72239525 70.64375165 284.71692957 70.62735046 294.71191406 70.63491821 C291.87315801 67.77231732 289.10460732 65.02267639 285.89160156 62.58413696 C285.19695801 62.05433228 284.50231445 61.52452759 283.78662109 60.97866821 C283.06071777 60.43210571 282.33481445 59.88554321 281.58691406 59.32241821 C280.8313623 58.75136353 280.07581055 58.18030884 279.29736328 57.59194946 C277.79049148 56.45512448 276.28222441 55.32014619 274.77246094 54.18716431 C273.01823103 52.86567215 271.27654905 51.53029672 269.54003906 50.18569946 C254.14060348 38.50260166 238.99448144 36.46624871 220.18408203 36.52139282 C218.86588974 36.5212468 217.54769745 36.52110077 216.18955994 36.52095032 C212.60554173 36.52066555 209.02155756 36.52651011 205.43754721 36.53352427 C201.68062612 36.53981151 197.9237041 36.54036584 194.16677856 36.54154968 C187.06620269 36.54464725 179.96564237 36.55283926 172.86507332 36.56289917 C163.26039315 36.57620901 153.65570866 36.58157294 144.05102158 36.58740139 C128.93797411 36.59678033 113.82495945 36.61670972 98.71191406 36.63491821 Z M444.71191406 90.63491821 C447.04193242 98.64435631 451.2265074 104.85577576 458.42285156 109.31460571 C462.37777829 111.59590641 462.37777829 111.59590641 466.71191406 112.63491821 C466.76616632 110.23877695 466.80570433 107.84387968 466.83691406 105.44741821 C466.85367187 104.77388306 466.87042969 104.1003479 466.88769531 103.40640259 C466.92701831 99.37579512 466.75823027 96.15483949 464.71191406 92.63491821 C461.19044588 89.78013576 456.76957252 90.41097906 452.46191406 90.50991821 C451.71683594 90.51894165 450.97175781 90.52796509 450.20410156 90.53726196 C448.37323348 90.56073463 446.54253168 90.59660296 444.71191406 90.63491821 Z M275.96582031 147.85366821 C275.55203125 148.44148071 275.13824219 149.02929321 274.71191406 149.63491821 C275.06125 150.2987854 275.41058594 150.96265259 275.77050781 151.64663696 C276.22554688 152.52964478 276.68058594 153.41265259 277.14941406 154.32241821 C277.82810547 155.62759399 277.82810547 155.62759399 278.52050781 156.95913696 C282.11919268 165.04142921 281.42709301 173.92534892 278.71191406 182.16226196 C277.07948522 186.19869734 274.97924665 189.92473761 272.71191406 193.63491821 C279.26221724 201.93337304 287.03998499 208.67542896 297.71191406 210.63491821 C309.4716618 211.76485839 319.59627376 209.90723477 328.86816406 202.32632446 C336.57526462 195.25603941 342.12139151 187.23426579 342.95019531 176.56851196 C343.21624737 164.03605989 340.44521425 154.80141782 331.71191406 145.63491821 C324.1280018 138.26977265 315.29519259 134.56378309 304.71191406 134.13491821 C293.45600433 134.59104005 283.03962477 138.86503078 275.96582031 147.85366821 Z M142.71191406 232.63491821 C142.63059219 235.1980632 142.57127232 237.75860239 142.52441406 240.32241821 C142.49927734 241.04364868 142.47414062 241.76487915 142.44824219 242.50796509 C142.38538709 247.09638696 142.84487655 250.00426296 145.71191406 253.63491821 C149.02186119 255.28989178 152.70314407 254.73576157 156.33691406 254.69741821 C157.13871094 254.69290649 157.94050781 254.68839478 158.76660156 254.68374634 C160.74840412 254.67194989 162.7301684 254.65401426 164.71191406 254.63491821 C161.91496209 245.42142935 156.84556485 239.4952583 148.60644531 234.54507446 C146.65731685 233.60868904 144.82323403 233.07965302 142.71191406 232.63491821 Z M452.31738281 240.92398071 C448.53485918 244.9549913 445.97117518 249.26736999 444.71191406 254.63491821 C447.46250787 254.71599467 450.21070428 254.77544634 452.96191406 254.82241821 C453.73921875 254.84755493 454.51652344 254.87269165 455.31738281 254.89859009 C458.79601265 254.94318791 461.0847265 254.96922102 464.19628906 253.31069946 C467.53198107 249.62252454 466.82734497 245.10940928 466.77441406 240.44741821 C466.76990234 239.69782837 466.76539063 238.94823853 466.76074219 238.17593384 C466.7489776 236.32889438 466.73104272 234.48189608 466.71191406 232.63491821 C461.81282037 232.63491821 455.80806857 237.77677204 452.31738281 240.92398071 Z " fill="#000000" transform="translate(9.2880859375,-0.634918212890625)"/>
<path d="M0 0 C0.433125 -0.78375 0.86625 -1.5675 1.3125 -2.375 C3 -5 3 -5 6 -7 C7.88567924 -7.26006222 7.88567924 -7.26006222 10.0475769 -7.27415466 C10.86906219 -7.28412979 11.69054749 -7.29410492 12.53692627 -7.30438232 C13.43465759 -7.305047 14.33238892 -7.30571167 15.25732422 -7.30639648 C16.20558075 -7.31472 17.15383728 -7.32304352 18.13082886 -7.33161926 C21.27215658 -7.35575648 24.41327682 -7.36449585 27.5546875 -7.37109375 C29.73560652 -7.38005706 31.9165249 -7.38917884 34.09744263 -7.39845276 C38.67223608 -7.41495531 43.24695624 -7.42264522 47.82177734 -7.42553711 C53.68545899 -7.43092297 59.54845241 -7.46860657 65.41193962 -7.51428127 C69.91751627 -7.54401506 74.42292644 -7.55125987 78.92859268 -7.55226326 C81.09037555 -7.55647266 83.2521586 -7.56893561 85.41384506 -7.58978081 C88.43770795 -7.61661894 91.45996578 -7.61189198 94.48388672 -7.59936523 C95.37756958 -7.61419952 96.27125244 -7.62903381 97.1920166 -7.64431763 C98.43270401 -7.62967216 98.43270401 -7.62967216 99.69845581 -7.61473083 C100.41263609 -7.61674216 101.12681637 -7.61875349 101.86263847 -7.62082577 C105.30552061 -6.62079376 106.81843652 -4.78639905 109 -2 C109.6292057 1.25622559 109.6292057 1.25622559 109.63491821 5.02148438 C109.64271817 5.71643257 109.65051812 6.41138077 109.65855443 7.127388 C109.6784575 9.4500521 109.66271855 11.77107452 109.64697266 14.09375 C109.65374961 15.76124018 109.66265318 17.42872288 109.67352295 19.09619141 C109.69631392 23.62106685 109.68748092 28.14537218 109.67162752 32.67025757 C109.65896744 37.40583837 109.67070893 42.1413704 109.67855835 46.87695312 C109.6876546 54.82951623 109.67566766 62.78184715 109.65185547 70.734375 C109.62464421 79.92825171 109.63345839 89.12157404 109.6609875 98.31543732 C109.68367827 106.20944209 109.68687881 114.10327998 109.67379415 121.99730682 C109.66599946 126.71192004 109.66495852 131.42627267 109.68147659 136.14086914 C109.69592169 140.57340441 109.6858993 145.00522503 109.65700531 149.43768311 C109.65039465 151.06425795 109.65229191 152.69089295 109.66331863 154.31744385 C109.67698798 156.53861249 109.65984651 158.75749279 109.63491821 160.97851562 C109.63303308 162.22105103 109.63114796 163.46358643 109.6292057 164.74377441 C108.81905014 168.93644027 107.34856158 170.42156963 104 173 C101.8682251 173.6292057 101.8682251 173.6292057 99.71191406 173.63491821 C98.88767944 173.64901733 98.06344482 173.66311646 97.2142334 173.67764282 C95.87842224 173.66246109 95.87842224 173.66246109 94.515625 173.64697266 C93.56707642 173.65573425 92.61852783 173.66449585 91.64123535 173.67352295 C88.51035624 173.69550324 85.3808931 173.68096857 82.25 173.6640625 C80.07193735 173.66743101 77.89387653 173.67228392 75.71582031 173.67855835 C71.15281259 173.68592785 66.59029452 173.67522122 62.02734375 173.65185547 C56.17931138 173.62336819 50.33242631 173.63977167 44.48443604 173.66971779 C39.98737956 173.68778834 35.49059495 173.68203372 30.99353027 173.66907883 C28.83736027 173.66574417 26.68116556 173.66983395 24.52502441 173.68147659 C21.51080989 173.69418084 18.49845132 173.67481321 15.484375 173.64697266 C14.59383423 173.65709381 13.70329346 173.66721497 12.7857666 173.67764282 C8.53270716 173.60489121 6.50617374 173.34417357 2.90722656 170.89706421 C0.55862539 167.32955497 0.84963492 165.18661709 1 161 C-0.02685 161.00368717 -1.05370001 161.00737434 -2.11166668 161.01117325 C-27.17963771 161.10025343 -52.24758805 161.1658362 -77.31568432 161.20724869 C-89.43878518 161.22781142 -101.56178103 161.25581084 -113.68481445 161.30175781 C-124.26002765 161.34181911 -134.83516473 161.36747842 -145.41045171 161.37635398 C-151.00202924 161.38153625 -156.59338917 161.39358315 -162.18489647 161.42292023 C-167.4650926 161.45039527 -172.74498483 161.45838129 -178.02524567 161.45243073 C-179.9466728 161.4535168 -181.86811183 161.46127711 -183.78947639 161.4768219 C-229.58322455 161.82863829 -263.95008237 141.64434332 -295.94873047 110.22827148 C-298.00972841 108.1974031 -300.06455569 106.16041479 -302.1171875 104.12109375 C-302.66135441 103.58100237 -303.20552132 103.04091099 -303.76617813 102.4844532 C-306.63540639 99.63582432 -309.50153515 96.78411822 -312.36523438 93.92993164 C-315.29502373 91.01127595 -318.23633725 88.10451749 -321.18023491 85.20010281 C-323.47251795 82.93409481 -325.75574591 80.65912057 -328.03671646 78.38173103 C-329.11686542 77.30640355 -330.20034437 76.23440882 -331.28741074 75.16607475 C-340.60222966 66.00215555 -349.09504918 56.54391621 -349.38037109 42.88452148 C-349.36216845 35.43881252 -349.20091057 29.41951647 -345 23 C-344.5875 22.31808594 -344.175 21.63617188 -343.75 20.93359375 C-338.54003513 13.13344748 -331.12251066 8.0574173 -322 6 C-309.01624768 4.86177095 -299.84474236 6.66465331 -289.58581543 14.78689575 C-285.0111233 18.70220636 -280.83225912 23.00500006 -276.63039398 27.31097221 C-274.94354872 29.03788989 -273.24874283 30.75663324 -271.55157471 32.47340393 C-266.73270861 37.34970676 -261.92389212 42.23573867 -257.13037109 47.13696289 C-254.18082334 50.15163655 -251.21863319 53.15341451 -248.24860382 56.14790535 C-247.13249357 57.27809026 -246.0210382 58.41289522 -244.91478729 59.55273247 C-236.49294859 68.22669684 -227.94865957 74.68717516 -217 80 C-217.16048828 79.12601563 -217.16048828 79.12601563 -217.32421875 78.234375 C-218.78470236 68.24655162 -216.74541058 59.19970304 -210.72265625 51.03125 C-203.65782464 42.70083631 -195.80959486 38.52925845 -185 37 C-182.96010368 36.94217059 -180.91835236 36.93464714 -178.87792969 36.96923828 C-177.68939392 36.98479767 -176.50085815 37.00035706 -175.27630615 37.01638794 C-174.00434387 37.03418304 -172.73238159 37.05197815 -171.421875 37.0703125 C-168.00297639 37.08917723 -164.58403922 37.09195531 -161.16509628 37.09665108 C-157.60472892 37.10485904 -154.04655156 37.13259802 -150.48681641 37.20214844 C-147.02297542 37.26866434 -143.56259771 37.28051503 -140.09824371 37.25689316 C-138.1582694 37.2577899 -136.2185765 37.31471816 -134.27947998 37.37307739 C-128.8252609 37.30059532 -125.35950384 37.08998875 -121.01574707 33.60736084 C-118.47817073 30.84233038 -116.21104912 28.02972107 -114 25 C-98.72508676 5.92862016 -75.91670163 -5.5372419 -51.8125 -8.4375 C-34.89944538 -10.0809367 -15.15194187 -8.32778484 0 0 Z M-96 36 C-98.42212067 38.70949092 -100.69715967 41.4768877 -102.9296875 44.34375 C-105.01624714 47.02084539 -107.19127374 49.58088711 -109.4375 52.125 C-110.39462891 53.21167969 -110.39462891 53.21167969 -111.37109375 54.3203125 C-113.60050705 56.61922789 -114.58281276 56.97952841 -117.81291199 57.13803101 C-119.01313492 57.14452667 -120.21335785 57.15102234 -121.44995117 57.15771484 C-122.11199554 57.16279556 -122.77403992 57.16787628 -123.45614624 57.17311096 C-124.89609131 57.18382086 -126.33605308 57.19243861 -127.77602196 57.19923019 C-130.05912828 57.21102095 -132.34204558 57.23047652 -134.62507629 57.25234985 C-141.11725518 57.3139427 -147.60941707 57.36790959 -154.10180664 57.40136719 C-158.07244252 57.42238047 -162.04273751 57.45774209 -166.01317787 57.50212479 C-167.52291141 57.51623859 -169.0327053 57.52499675 -170.54250145 57.52817917 C-172.66305229 57.53311986 -174.78270885 57.55635842 -176.90307617 57.58349609 C-178.10727707 57.59158295 -179.31147797 57.5996698 -180.5521698 57.60800171 C-186.03068792 58.23087744 -189.82623636 59.87726957 -193.875 63.75 C-196.30155037 67.46119469 -197 69.57585556 -197 74 C-195.27848603 79.87340059 -192.84127304 82.57076493 -188 86 C-185.11917668 86.96027444 -183.29386512 87.13102361 -180.30030823 87.14476013 C-179.33433716 87.15165863 -178.36836609 87.15855713 -177.37312317 87.16566467 C-175.78572578 87.16958473 -175.78572578 87.16958473 -174.16625977 87.17358398 C-173.05058624 87.180271 -171.93491272 87.18695801 -170.78543091 87.19384766 C-168.35947835 87.20791009 -165.93351247 87.21980033 -163.50753975 87.22979546 C-159.67098775 87.24618096 -155.83453471 87.26941712 -151.99803162 87.29469299 C-141.08882541 87.36554243 -130.17957981 87.42569284 -119.27026367 87.47680664 C-112.60131095 87.50813591 -105.93248622 87.54982371 -99.26362419 87.59700203 C-96.7186888 87.61304294 -94.17372713 87.6253548 -91.62875557 87.63390923 C-88.0734305 87.64603321 -84.51837469 87.67017062 -80.96313477 87.69702148 C-79.90689407 87.69761063 -78.85065338 87.69819977 -77.7624054 87.69880676 C-76.7936145 87.70852509 -75.82482361 87.71824341 -74.82667542 87.72825623 C-73.9862095 87.73248816 -73.14574358 87.7367201 -72.279809 87.74108028 C-69.76126415 88.02711342 -68.1529098 88.68085269 -66 90 C-63.45424209 93.43677318 -63.56327124 96.85107675 -64 101 C-66.13679285 104.38939556 -67.1774767 105.72582557 -71 107 C-72.64916873 107.09598153 -74.30193774 107.1349179 -75.95388794 107.14044189 C-77.488255 107.14900711 -77.488255 107.14900711 -79.05361938 107.15774536 C-80.73661636 107.15942215 -80.73661636 107.15942215 -82.45361328 107.16113281 C-84.22747406 107.16858017 -84.22747406 107.16858017 -86.03717041 107.17617798 C-89.28597032 107.1882938 -92.53473422 107.19574885 -95.78355265 107.20018864 C-97.82011979 107.20312472 -99.85668137 107.20723094 -101.8932457 107.21169281 C-108.28394994 107.22537882 -114.67464136 107.23503525 -121.06535923 107.2388947 C-128.4049466 107.24335267 -135.74434561 107.26078958 -143.08387578 107.2898953 C-148.77672762 107.31167315 -154.46952718 107.32160777 -160.16242015 107.32293582 C-163.55168396 107.32397413 -166.94077104 107.32966795 -170.32999039 107.34775543 C-202.2364022 107.49268637 -230.81523222 102.74664743 -254.59811211 79.69729614 C-257.27449693 77.04433891 -259.91680568 74.35912608 -262.5546875 71.66796875 C-263.71061572 70.50132804 -264.86738162 69.3355168 -266.02493286 68.17048645 C-269.0374275 65.13545975 -272.04158689 62.09233934 -275.04302979 59.04638672 C-279.86441313 54.15416446 -284.69382064 49.26996987 -289.53235245 44.39470863 C-291.20857536 42.70191321 -292.87817003 41.00277762 -294.54733276 39.30302429 C-295.57930255 38.26058975 -296.61152591 37.21840615 -297.64404297 36.17651367 C-298.53606415 35.27100266 -299.42808533 34.36549164 -300.34713745 33.43254089 C-304.5107725 29.61469796 -308.1774696 26.42535217 -314 26.5 C-318.68905622 26.70448516 -321.44966389 27.79603814 -325 31 C-328.25335329 34.68713373 -328.7355136 38.49353866 -328.50123596 43.27700806 C-326.80933869 52.46833306 -315.90606431 60.37057812 -309.44140625 66.7890625 C-308.32677705 67.90249598 -307.21252125 69.01630336 -306.09861755 70.13046265 C-303.7761054 72.45142085 -301.45030675 74.76901428 -299.12182617 77.08398438 C-296.15707992 80.0317328 -293.19896763 82.98602966 -290.24308872 85.94266701 C-287.94666207 88.23882003 -285.64762548 90.53234492 -283.34773064 92.82502365 C-282.25685272 93.91274974 -281.16655273 95.00105578 -280.07687569 96.08998489 C-248.9414046 127.18067954 -216.62502268 141.13310502 -172.39085388 141.12442017 C-170.67544536 141.12088297 -168.96003704 141.11724819 -167.24462891 141.11352539 C-165.40022279 141.11324269 -163.55581657 141.11340288 -161.71141052 141.1139679 C-156.74751179 141.11425262 -151.78363765 141.10840869 -146.81974459 141.10139394 C-141.61610828 141.09510605 -136.4124713 141.09455233 -131.20883179 141.09336853 C-121.37427852 141.09027115 -111.53973649 141.0820794 -101.70518816 141.07201904 C-90.50072511 141.06080822 -79.29626151 141.05533497 -68.09179425 141.05032361 C-45.06118996 141.03989532 -22.03059561 141.02232697 1 141 C1.23376178 125.97953298 1.41001973 110.95920703 1.51812172 95.93730736 C1.56965411 88.96198037 1.63988448 81.98778445 1.75439453 75.01318359 C1.86484288 68.28275634 1.92283247 61.55374681 1.94877243 54.82237625 C1.96725826 52.25376506 2.00335845 49.68521865 2.05730057 47.11710739 C2.1298581 43.51985256 2.13989392 39.92745801 2.13525391 36.32958984 C2.17120667 35.26647583 2.20715942 34.20336182 2.24420166 33.10803223 C2.20206743 30.09112898 2.06842288 27.82495795 1 25 C-2.02708327 22.24735243 -5.25600475 20.59686996 -9 19 C-9.65069647 18.70863348 -10.30139294 18.41726696 -10.97180748 18.11707115 C-40.77026285 5.80829197 -73.36268597 13.50677608 -96 36 Z M21 13 C21 59.2 21 105.4 21 153 C43.44 153 65.88 153 89 153 C89 106.8 89 60.6 89 13 C66.56 13 44.12 13 21 13 Z " fill="#000000" transform="translate(403,339)"/>
<path d="M0 0 C4.37758112 2.34513274 4.37758112 2.34513274 6 5 C6.79637068 8.49486415 6.76412732 11.50110122 6 15 C3.63095184 18.41421647 2.02503506 19.64346607 -1.875 21 C-6.0430077 21 -8.42900496 20.15607248 -12 18 C-14.51245442 14.04098091 -15.13145609 11.96948868 -14.5 7.3125 C-11.55499194 0.80894054 -7.0628733 -1.52822405 0 0 Z " fill="#000000" transform="translate(422,162)"/>
<path d="M0 0 C4.37758112 2.34513274 4.37758112 2.34513274 6 5 C6.79637068 8.49486415 6.76412732 11.50110122 6 15 C3.63095184 18.41421647 2.02503506 19.64346607 -1.875 21 C-5.90306262 21 -8.47273862 19.89929459 -12 18 C-14.82827437 13.75758844 -14.8876122 9.97696843 -14 5 C-10.90973636 -0.13529105 -5.51511126 -1.31312173 0 0 Z " fill="#000000" transform="translate(318,254)"/>
</svg>
