<?xml version="1.0" encoding="UTF-8"?>
<svg version="1.1" xmlns="http://www.w3.org/2000/svg" width="512" height="512">
<path d="M0 0 C0.72001235 -0.00235223 1.44002471 -0.00470446 2.18185562 -0.00712797 C4.61318713 -0.01382586 7.0444653 -0.01335951 9.47580528 -0.01294994 C11.229146 -0.01624808 12.98248596 -0.01997354 14.73582494 -0.02409142 C19.56874296 -0.03412531 24.40164855 -0.03783045 29.23457551 -0.04048073 C34.44129291 -0.04437969 39.64800043 -0.05395832 44.85471153 -0.0626936 C57.43648226 -0.08246985 70.01825381 -0.09252581 82.6000362 -0.10142139 C88.52226347 -0.10580249 94.44448983 -0.11116977 100.36671638 -0.11641026 C120.04900553 -0.13342389 139.73129411 -0.14791853 159.41358948 -0.155159 C164.52298165 -0.15706895 169.63237382 -0.15898927 174.74176598 -0.16094494 C176.01171057 -0.16142868 177.28165516 -0.16191242 178.59008293 -0.16241082 C199.16679365 -0.17071282 219.74344627 -0.19605202 240.32013161 -0.22852562 C261.43681295 -0.26158022 282.55346475 -0.27960632 303.6701721 -0.28280324 C315.53003756 -0.28496984 327.3898183 -0.2937405 339.24965858 -0.31926441 C349.34925217 -0.34094956 359.44874047 -0.34903258 369.5483547 -0.33929763 C374.70185095 -0.33474658 379.85512985 -0.336686 385.00859642 -0.35605907 C389.72765038 -0.37364595 394.4463277 -0.37272937 399.16538541 -0.35716178 C400.87137108 -0.3547789 402.57738252 -0.35914444 404.28332873 -0.37099043 C415.76506952 -0.44577193 424.70055758 0.42606945 433.49909019 8.48968983 C438.31740152 13.75854455 440.1235184 19.32478187 440.13721752 26.34895325 C440.14167537 27.41031941 440.14613321 28.47168557 440.15072614 29.56521434 C440.1504496 31.31280109 440.1504496 31.31280109 440.15016747 33.09569263 C440.15384415 34.33416016 440.15752084 35.57262768 440.16130894 36.84862453 C440.17042936 40.2883034 440.17504406 43.72793459 440.17769825 47.16762102 C440.18160434 50.87669482 440.19118242 54.58575484 440.19991112 58.29481983 C440.21966621 67.2528544 440.22974021 76.21089009 440.23863891 85.16894099 C440.24302309 89.38816588 440.24838954 93.60738952 440.25362778 97.82661343 C440.27063858 111.85323005 440.28513283 125.8798459 440.29237652 139.90647125 C440.29428639 143.54578305 440.29620672 147.18509485 440.29816246 150.82440662 C440.2986462 151.72893071 440.29912994 152.63345481 440.29962834 153.56538872 C440.307929 168.21870889 440.33326719 182.87194745 440.36574314 197.52523198 C440.3988181 212.57151883 440.41682565 227.6177642 440.42002076 242.66408759 C440.42218538 251.11122692 440.43092703 259.55824718 440.45648193 268.00535107 C440.47819485 275.19906635 440.48623644 282.39263366 440.47651515 289.586378 C440.47197222 293.25539426 440.47385592 296.92410523 440.4932766 300.59307957 C440.51417025 304.57478989 440.50391723 308.55608037 440.49074364 312.53783131 C440.50719751 314.26868765 440.50719751 314.26868765 440.52398378 316.03451079 C440.45601655 324.54461795 438.5449954 330.35753691 433.81549644 337.38422108 C427.04190025 344.00729291 420.213654 346.25546258 410.91697311 346.26844215 C410.19948326 346.27079438 409.4819934 346.27314661 408.74276143 346.27557012 C406.32602248 346.28225466 403.90933737 346.28180207 401.49258995 346.2813921 C399.74734847 346.28469106 398.00210775 346.2884167 396.256868 346.29253358 C391.45094309 346.30255798 386.64503067 346.30627108 381.83909678 346.30892289 C376.6596446 346.31282462 371.48020232 346.32240303 366.30075645 346.33113575 C353.78762263 346.35090356 341.274488 346.36096663 328.76134247 346.36986354 C322.87012837 346.3742458 316.97891518 346.37961276 311.0877018 346.38485241 C291.50659878 346.40186477 271.92549633 346.41635937 252.34438705 346.42360115 C247.26232846 346.42551107 242.18026987 346.4274314 237.09821129 346.42938709 C235.83507574 346.42987083 234.57194018 346.43035457 233.27052779 346.43085297 C212.80448701 346.43915486 192.33850465 346.46449443 171.87248938 346.49696777 C150.86538275 346.5300282 129.85830583 346.54804898 108.85117304 346.55124539 C97.0544476 346.55341139 85.25780736 346.56217333 73.46110725 346.58770657 C63.41536511 346.60939962 53.36972886 346.61747081 43.32396595 346.60773978 C38.19869211 346.60319111 33.07363682 346.60511442 27.94839287 346.62450123 C23.25399822 346.64210491 18.55998201 346.6411578 13.86558349 346.62560394 C12.16970404 346.62322363 10.47379857 346.62757332 8.77795891 346.63943259 C-2.66689738 346.7144938 -12.72404548 346.00956901 -21.52825356 337.84906483 C-25.87731438 332.77130498 -28.11943149 326.66782086 -28.12843132 320.03974342 C-28.13227247 318.97975161 -28.13611361 317.9197598 -28.14007115 316.82764703 C-28.13877143 315.07466783 -28.13877143 315.07466783 -28.13744545 313.28627491 C-28.14041657 312.04795624 -28.14338769 310.80963758 -28.14644885 309.53379411 C-28.15363771 306.08992333 -28.15630884 302.64610242 -28.15704632 299.20222771 C-28.15889562 295.49043061 -28.16644239 291.77864436 -28.17318153 288.06685352 C-28.18677125 279.94691977 -28.19279074 271.82699094 -28.19719219 263.7070477 C-28.19995387 258.63728655 -28.20419112 253.56752731 -28.20869637 248.49776745 C-28.22089051 234.46260955 -28.23118912 220.42745319 -28.23457146 206.39229012 C-28.23479102 205.49375415 -28.23501059 204.59521819 -28.23523681 203.66945387 C-28.23545509 202.76875766 -28.23567336 201.86806144 -28.23589826 200.9400714 C-28.23634172 199.11489538 -28.23678829 197.28971936 -28.23723793 195.46454334 C-28.23745936 194.55919144 -28.23768079 193.65383954 -28.23790893 192.72105273 C-28.24185616 178.05407648 -28.25930726 163.38714994 -28.28259745 148.72019289 C-28.30631316 133.66377207 -28.31877343 118.6073762 -28.31993937 103.5509364 C-28.32085608 95.09657217 -28.32660716 86.64227269 -28.34475899 78.18792629 C-28.36016302 70.98795239 -28.36527871 63.78806322 -28.35702088 56.58807597 C-28.35311526 52.91519189 -28.3540395 49.24247843 -28.36807823 45.56961536 C-28.3831677 41.58536517 -28.37494784 37.60135484 -28.36449623 33.61708546 C-28.37255264 32.45958627 -28.38060904 31.30208707 -28.38890958 30.10951215 C-28.33071549 20.63371367 -26.51889534 13.97356379 -19.96965981 6.89593983 C-14.14047245 1.69007151 -7.66417757 0.01064222 0 0 Z M-11.84823376 21.062657 C-13.27462192 23.63484726 -13.37397659 25.34366121 -13.37732029 28.27924633 C-13.38576023 29.32504561 -13.39420017 30.37084489 -13.40289587 31.44833505 C-13.39688582 32.59598451 -13.39087578 33.74363396 -13.38468361 34.92606068 C-13.39006915 36.14622714 -13.39545468 37.3663936 -13.40100342 38.6235348 C-13.41285144 42.01215418 -13.4112038 45.40028296 -13.40383661 48.78888321 C-13.39911487 52.44270026 -13.41160601 56.09646407 -13.42185402 59.75026417 C-13.43906746 66.90929829 -13.4398767 74.06824474 -13.43464112 81.22729419 C-13.43060259 87.04571151 -13.43203919 92.86410288 -13.43738937 98.68251896 C-13.43851201 99.92385703 -13.43851201 99.92385703 -13.43965732 101.19027264 C-13.44118877 102.87137512 -13.44272712 104.5524776 -13.44427229 106.23358007 C-13.45800676 122.00607877 -13.4525532 137.77852789 -13.44108707 153.55102547 C-13.43115563 167.98328742 -13.44409212 182.41542115 -13.46802127 196.84766333 C-13.49239956 211.66229487 -13.50202315 226.47686665 -13.49536854 241.29151785 C-13.49187324 249.61055677 -13.49412873 257.92949708 -13.51161957 266.24852085 C-13.52632578 273.33108209 -13.52699789 280.41347529 -13.50954866 287.49603318 C-13.50102276 291.10998508 -13.49892742 294.72363663 -13.51420021 298.33757305 C-13.53054928 302.2546747 -13.51593077 306.17131047 -13.498209 310.08841419 C-13.50781401 311.23160221 -13.51741901 312.37479022 -13.52731508 313.55262029 C-13.47142216 319.538207 -13.28633461 323.55633208 -8.99700356 328.13422108 C-4.89600359 331.17631745 -1.89666272 331.51044187 3.16077137 331.51453781 C4.23040426 331.52152769 4.23040426 331.52152769 5.32164589 331.52865878 C7.71752319 331.54063518 10.11283618 331.53120342 12.50871849 331.52190113 C14.24117728 331.5260729 15.97363334 331.53154955 17.70608431 331.53822094 C22.47191911 331.55271491 27.23758156 331.54841852 32.00342596 331.54105413 C37.14121347 331.53633453 42.27896305 331.54882158 47.41673851 331.55907154 C57.48396607 331.5762885 67.55113129 331.57709357 77.61836975 331.57185864 C85.79898441 331.56782116 93.97958062 331.56925546 102.1601944 331.5746069 C103.32343633 331.57535532 104.48667826 331.57610374 105.68516995 331.57687484 C108.0481079 331.57840628 110.41104585 331.57994463 112.77398378 331.58148981 C134.94495546 331.59522528 157.11589187 331.58976976 179.28686274 331.5783046 C199.58095309 331.56837065 219.87495228 331.58131385 240.16902857 331.60523879 C260.99535388 331.62960667 281.8216367 331.63924338 302.64797598 331.63258606 C314.34506255 331.62908876 326.042079 331.63135959 337.73915482 331.64883709 C347.69643268 331.66353016 357.65359103 331.66423245 367.61086648 331.64676618 C372.69311315 331.63823 377.77514607 331.63617033 382.85738182 331.65141773 C387.50774959 331.66519699 392.15771912 331.66058925 396.80806345 331.6411785 C398.49239603 331.63739732 400.17676 331.640401 401.86106478 331.65079015 C404.14765279 331.66389387 406.43285278 331.65243761 408.71938038 331.63479233 C410.62568782 331.63463132 410.62568782 331.63463132 412.57050651 331.63446707 C417.70259066 330.88652474 420.72315209 328.8079565 423.85405207 324.71347564 C425.11890762 321.87401315 425.3807185 319.96321022 425.38610649 316.86614799 C425.39516313 315.81835767 425.40421977 314.77056734 425.41355085 313.69102579 C425.40822293 312.54628918 425.402895 311.40155256 425.39740562 310.22212696 C425.40654228 308.39059563 425.40654228 308.39059563 425.41586351 306.52206367 C425.42963583 303.13570915 425.42994385 299.74983942 425.42448854 296.36349332 C425.42181923 292.71036982 425.43634822 289.05730848 425.4485836 285.40421009 C425.46964349 278.24866141 425.47417816 271.09319374 425.47239572 263.93761773 C425.47108845 258.12208378 425.4748904 252.30657513 425.48232079 246.49104595 C425.48441996 244.81634631 425.48651756 243.14164667 425.48861361 241.46694702 C425.48965713 240.63342411 425.49070066 239.7999012 425.49177581 238.94112002 C425.51068019 223.17529701 425.50962728 207.40952053 425.50280648 191.64369088 C425.49722997 177.21793535 425.51806068 162.79235735 425.55116695 148.36664332 C425.58489188 133.55649821 425.60007385 118.74643819 425.59544992 103.93625396 C425.59320413 95.62055569 425.59846445 87.30502154 425.62334251 78.98935604 C425.64434014 71.9104547 425.64796301 64.8318075 425.62904292 57.75289578 C425.61987566 54.14089722 425.61877154 50.52937267 425.63939857 46.91741085 C425.66150867 43.00247694 425.64491473 39.08825428 425.62445641 35.17329884 C425.63697425 34.03079294 425.6494921 32.88828705 425.66238928 31.71115977 C425.64967496 25.16251242 425.64967496 25.16251242 422.7141552 19.50677872 C418.0647111 15.43801141 415.17083664 14.88382697 408.96826935 14.87695217 C408.2563346 14.8734461 407.54439986 14.86994002 406.81089133 14.8663277 C404.41302683 14.85698577 402.01540371 14.86194415 399.61752892 14.86679554 C397.88593468 14.86306069 396.15434212 14.85845983 394.42275226 14.85306489 C389.6546931 14.84079914 384.88670391 14.84109956 380.11863256 14.84345365 C374.98015139 14.84386091 369.84169293 14.83283137 364.70322227 14.82333851 C354.63252903 14.80670818 344.5618592 14.80122805 334.49115337 14.80011375 C326.30765743 14.79916428 318.12416923 14.79505906 309.94067574 14.7887125 C286.75293645 14.7710949 263.5652157 14.7618745 240.37746967 14.76337345 C239.12676948 14.76345336 237.8760693 14.76353327 236.5874691 14.76361561 C234.7091356 14.76373825 234.7091356 14.76373825 232.79285596 14.76386337 C212.49223871 14.76467652 192.19169562 14.7455329 171.89109983 14.71733887 C151.06029033 14.68863611 130.22951703 14.67479713 109.39868724 14.67652643 C97.69822743 14.67719121 85.99784537 14.67166031 74.29740334 14.65017033 C64.33644756 14.63199285 54.37560476 14.62758291 44.41463961 14.64118917 C39.33037038 14.64773607 34.24631814 14.64777407 29.16206932 14.63048267 C24.50981838 14.6148229 19.85795773 14.61754258 15.20571671 14.63505094 C13.5206784 14.63813654 11.83561147 14.63443013 10.15060689 14.62333079 C7.86306466 14.60925773 5.57690058 14.6197565 3.28940582 14.63644314 C1.38228528 14.63579103 1.38228528 14.63579103 -0.56336296 14.63512576 C-5.50053321 15.35276597 -8.43744429 17.50962026 -11.84823376 21.062657 Z " fill="#000000" transform="translate(49.99700355529785,86.86577892303467)"/>
<path d="M0 0 C2.05436883 1.96806103 4.06545518 3.97399151 6.0625 6 C6.75085938 6.67804688 7.43921875 7.35609375 8.1484375 8.0546875 C23.2941995 24.02284382 29.85003175 47.37052292 29.34375 68.9296875 C27.92459423 93.37464561 17.6919317 114.1327892 0.0625 131 C-19.17382784 147.70446623 -42.9794082 153.31898313 -67.9375 152 C-90.08615378 149.91459116 -110.47555968 137.98076255 -125.0625 121.5 C-139.18876713 103.84216608 -146.54937591 81.64181945 -144.9375 59 C-142.16204168 34.05130776 -131.44976853 12.1386266 -111.70703125 -3.80078125 C-78.5363008 -28.20534803 -30.88579786 -28.48672841 0 0 Z M-103.9375 10 C-104.55882813 10.44601563 -105.18015625 10.89203125 -105.8203125 11.3515625 C-119.43202938 21.67114321 -126.3943505 39.28425249 -129.625 55.4375 C-131.35738054 75.1866382 -126.6130355 94.78472017 -114 110.3984375 C-112.34522732 112.30009159 -110.66791158 114.1671972 -108.9375 116 C-106.54466098 113.60716098 -105.93382272 111.6010945 -104.75 108.4375 C-100.29288721 97.5423354 -92.41175297 88.56444689 -81.9375 83 C-83.06376016 80.55976966 -84.27001324 78.54949819 -85.875 76.375 C-90.98894264 68.00673022 -92.17569555 58.96484996 -90.46875 49.36328125 C-88.22786477 40.65317377 -83.26971141 34.17567864 -75.9375 29 C-67.30681585 23.99081861 -58.03005927 22.87771113 -48.34375 25.22265625 C-39.08974676 28.21218003 -32.18657716 33.97776684 -27.55078125 42.5703125 C-23.40050891 52.56009082 -23.66297739 62.65453402 -27.71484375 72.6171875 C-29.39460591 75.89084539 -31.44828759 78.30335322 -33.9375 81 C-33.9375 81.66 -33.9375 82.32 -33.9375 83 C-32.05747021 84.52429097 -32.05747021 84.52429097 -29.6875 86 C-28.50414062 86.7734375 -28.50414062 86.7734375 -27.296875 87.5625 C-25.02356969 89.02264986 -25.02356969 89.02264986 -22.765625 89.9375 C-20.43121953 91.29424848 -20.00360227 92.55291293 -18.9375 95 C-18.01409555 96.34313374 -17.07546112 97.67587475 -16.125 99 C-12.51696487 104.31010575 -10.22217788 110.02546625 -7.9375 116 C-3.5725337 112.62735697 -0.32534704 109.25776846 2.625 104.5625 C3.20133179 103.65213989 3.20133179 103.65213989 3.78930664 102.72338867 C14.01945595 85.9511291 16.59616131 66.36541568 12.03515625 47.37890625 C6.44085385 27.94488384 -5.38723901 12.13837855 -22.9375 2 C-49.75717812 -12.33303685 -80.38989179 -8.91529184 -103.9375 10 Z M-73.27734375 45.78515625 C-76.34309591 50.92383691 -77.33317118 55.06493229 -76.9375 61 C-74.88014062 67.28036022 -71.82837004 70.86988523 -66.5625 74.75 C-61.58439635 77.12052555 -57.54026369 77.40167069 -52.3125 75.8125 C-46.05884781 73.43420103 -42.43863259 70.3024917 -39.66796875 64.20703125 C-37.91215568 58.90203454 -38.24852396 53.9572001 -40.375 48.8125 C-43.12165021 44.03696532 -46.85950092 41.07496248 -51.9375 39 C-60.28241831 37.47576394 -67.98230223 38.7302467 -73.27734375 45.78515625 Z M-85.9375 104 C-90.5282824 110.36356221 -93.21773244 116.41148181 -94.4375 124.1875 C-94.21729448 127.24055318 -94.21729448 127.24055318 -91.375 129.0078125 C-87.82871781 131.06304422 -84.32542837 132.46614068 -80.4375 133.6875 C-79.79941406 133.89955078 -79.16132813 134.11160156 -78.50390625 134.33007812 C-60.14209945 140.28170671 -40.84676365 137.28511108 -23.78125 128.953125 C-23.1728125 128.63859375 -22.564375 128.3240625 -21.9375 128 C-21.03288362 118.59198966 -24.62774475 110.36637832 -30.5625 103.125 C-37.31612791 96.06322176 -45.65103405 92.0033967 -55.36914062 91.65649414 C-67.4268883 91.47289529 -77.78676191 94.59390269 -85.9375 104 Z " fill="#000000" transform="translate(214.9375,151)"/>
<path d="M0 0 C1.17625443 -0.01272446 2.35250885 -0.02544891 3.56440735 -0.03855896 C4.85127441 -0.03203308 6.13814148 -0.0255072 7.46400452 -0.01878357 C8.83578418 -0.02584249 10.20755606 -0.0345874 11.57931519 -0.04489136 C15.30256335 -0.06739946 19.02538671 -0.06444242 22.74867702 -0.05556989 C25.85758144 -0.05046058 28.96640599 -0.05775212 32.07530218 -0.06504196 C39.41001873 -0.08204568 46.74452725 -0.07847073 54.07923889 -0.06175232 C61.64455606 -0.04483117 69.20929624 -0.0606639 76.77455038 -0.0929752 C83.27151411 -0.11967193 89.76829823 -0.12694691 96.2653113 -0.11846012 C100.14496035 -0.11353095 104.02426224 -0.11574541 107.90386772 -0.13624763 C111.55257631 -0.1546064 115.20045517 -0.14864508 118.84911919 -0.12404823 C120.82456619 -0.11665468 122.80005735 -0.13389458 124.7754364 -0.15187073 C133.32163784 -0.06015191 133.32163784 -0.06015191 137.53198242 2.58181763 C139.61380364 6.16137312 139.94350362 9.03534092 139.88465881 13.07130432 C139.89342041 13.81502792 139.90218201 14.55875153 139.91120911 15.32501221 C139.93314872 17.77424613 139.91867157 20.22166265 139.90174866 22.6709137 C139.9051184 24.37815191 139.90997234 26.08538778 139.91624451 27.7926178 C139.9236084 31.36702868 139.91292644 34.94081394 139.88954163 38.51515198 C139.86105348 43.0920771 139.87746014 47.66753629 139.90740395 52.24440765 C139.92549037 55.76870222 139.91971287 59.29265044 139.90676498 62.81695557 C139.90343466 64.50422337 139.90750496 66.19152284 139.91916275 67.87875366 C139.93189453 70.23935461 139.91246632 72.59759738 139.88465881 74.95802307 C139.89477997 75.65219833 139.90490112 76.3463736 139.91532898 77.06158447 C139.84196245 80.43112587 139.22874758 82.530033 137.53198242 85.44750977 C132.25259036 88.76030108 126.98971515 88.20134828 120.88197327 88.14576721 C119.50842363 88.15090803 118.13488059 88.15819054 116.76135254 88.16744995 C113.03810935 88.18595043 109.31558306 88.1730354 105.59236979 88.15335965 C101.69447555 88.13696358 97.79662637 88.14578722 93.89871216 88.15087891 C87.35427915 88.15539828 80.81013211 88.13953862 74.26576233 88.11158752 C66.69989013 88.07952272 59.13453329 88.0795569 51.56862444 88.09680229 C44.28834505 88.11266517 37.00825459 88.1059363 29.72798347 88.08886528 C26.63034091 88.08199331 23.53284971 88.08302861 20.43520927 88.09041023 C16.78819462 88.09807091 13.14176666 88.08595509 9.49485207 88.05856133 C7.51806089 88.04838913 5.54119928 88.05786177 3.56440735 88.06788635 C2.38815292 88.0551619 1.2118985 88.04243744 0 88.02932739 C-1.02222688 88.02652047 -2.04445375 88.02371355 -3.0976572 88.02082157 C-6.4943615 87.3756095 -7.6816987 86.23263186 -9.76231384 83.5146637 C-10.1571975 80.83000528 -10.31014161 78.55465352 -10.27989197 75.87208557 C-10.28690125 75.10739456 -10.29391052 74.34270355 -10.3011322 73.55484009 C-10.31871735 71.03066036 -10.30708833 68.50760454 -10.29356384 65.9834137 C-10.29625863 64.22751144 -10.30014093 62.47161065 -10.30516052 60.7157135 C-10.31105625 57.03706138 -10.3024904 53.35879796 -10.28379822 49.68019104 C-10.26100841 44.96544709 -10.27413112 40.25161391 -10.29808807 35.53690338 C-10.31254416 31.91146485 -10.30794098 28.28624216 -10.2975769 24.66079712 C-10.29490908 22.92246391 -10.29818134 21.18411109 -10.30749512 19.44580078 C-10.31765791 17.01575336 -10.30216516 14.58717951 -10.27989197 12.15724182 C-10.29203735 11.08017723 -10.29203735 11.08017723 -10.3044281 9.98135376 C-10.25024782 6.78972382 -10.05559003 4.89777893 -8.09071255 2.33100224 C-5.1782919 0.05907954 -3.66576667 0.01006579 0 0 Z M5.23768616 15.5146637 C5.23768616 34.3246637 5.23768616 53.1346637 5.23768616 72.5146637 C44.50768616 72.5146637 83.77768616 72.5146637 124.23768616 72.5146637 C124.23768616 53.7046637 124.23768616 34.8946637 124.23768616 15.5146637 C84.96768616 15.5146637 45.69768616 15.5146637 5.23768616 15.5146637 Z " fill="#000000" transform="translate(302.76231384277344,164.48533630371094)"/>
<path d="M0 0 C1.18611374 -0.01272446 2.37222748 -0.02544891 3.59428406 -0.03855896 C4.89207291 -0.03203308 6.18986176 -0.0255072 7.52697754 -0.01878357 C8.91023174 -0.02584235 10.29347821 -0.0345872 11.67671204 -0.04489136 C15.43088275 -0.06739893 19.18463217 -0.06444286 22.93884468 -0.05556989 C26.07269643 -0.05046136 29.2064689 -0.05775133 32.34031248 -0.06504196 C39.73251996 -0.08204491 47.12452102 -0.07847079 54.51672363 -0.06175232 C62.14454293 -0.04482416 69.77179026 -0.06067372 77.3995471 -0.0929752 C83.94829912 -0.11965737 90.49687293 -0.12695106 97.04567385 -0.11846012 C100.957148 -0.11352757 104.86827784 -0.11576394 108.77970886 -0.13624763 C112.45713955 -0.15458404 116.13374622 -0.14867251 119.81113243 -0.12404823 C121.80466352 -0.11664173 123.79823832 -0.13391097 125.79170227 -0.15187073 C126.97781601 -0.13921677 128.16392975 -0.12656281 129.38598633 -0.11352539 C130.41688637 -0.11293908 131.44778641 -0.11235277 132.50992584 -0.1117487 C135.19299316 0.5146637 135.19299316 0.5146637 137.55593109 2.82736301 C139.19299316 5.5146637 139.19299316 5.5146637 139.19299316 9.1396637 C138.06895421 12.93329516 137.5312266 13.60461679 134.19299316 15.5146637 C131.5439539 15.89498043 131.5439539 15.89498043 128.46864319 15.90234375 C127.30080292 15.91224838 126.13296265 15.92215302 124.92973328 15.93235779 C123.65221695 15.92785614 122.37470062 15.92335449 121.05847168 15.91871643 C119.69654785 15.92442004 118.3346288 15.93138426 116.97271729 15.93951416 C113.27638643 15.95746237 109.58029275 15.9562741 105.8839314 15.95057178 C102.79740689 15.94748218 99.7109281 15.95356983 96.62441009 15.95961052 C89.34246359 15.9736597 82.0606344 15.97209134 74.77868652 15.96070862 C67.26797955 15.94922769 59.75762967 15.96330151 52.24696976 15.99010509 C45.79673262 16.01226186 39.34660756 16.01889953 32.89633507 16.01302868 C29.04467497 16.00965772 25.19324376 16.01208313 21.34161568 16.02927971 C17.71928007 16.04474654 14.09747338 16.0407969 10.47515869 16.02197456 C8.51402465 16.01653121 6.55286688 16.03080493 4.59178162 16.04566956 C3.42112152 16.03583542 2.25046143 16.02600128 1.04432678 16.01586914 C0.02909722 16.01565986 -0.98613234 16.01545057 -2.03212643 16.01523495 C-5.59283739 15.37290473 -7.27797747 14.06464943 -9.80700684 11.5146637 C-10.36950684 8.0146637 -10.36950684 8.0146637 -9.80700684 4.5146637 C-6.84295507 0.63888584 -4.79814118 0.01306432 0 0 Z " fill="#000000" transform="translate(302.8070068359375,291.48533630371094)"/>
<path d="M0 0 C1.04608429 -0.00700928 2.09216858 -0.01401855 3.16995239 -0.02124023 C6.62529095 -0.0388348 10.07980946 -0.02719165 13.53515625 -0.01367188 C15.93742022 -0.01636635 18.33968312 -0.0202484 20.74194336 -0.02526855 C25.77565905 -0.03116561 30.80909076 -0.02259357 35.84277344 -0.00390625 C42.29598089 0.01888294 48.7485229 0.00576104 55.20170593 -0.01819611 C60.16195695 -0.03264818 65.12205014 -0.0280507 70.08230591 -0.01768494 C72.46176227 -0.01501604 74.84123296 -0.01829309 77.22067261 -0.02760315 C80.54593888 -0.03775853 83.87012659 -0.02228038 87.1953125 0 C88.67138474 -0.01214539 88.67138474 -0.01214539 90.17727661 -0.02453613 C94.45539142 0.02858517 96.95673072 0.14442072 100.71264648 2.33117676 C102.59765625 4.51757812 102.59765625 4.51757812 103.16015625 8.01757812 C102.59765625 11.51757812 102.59765625 11.51757812 101.21801758 13.70397949 C97.08963753 16.56130467 93.01602769 16.07457302 88.109375 16.03515625 C87.0423233 16.04216553 85.97527161 16.0491748 84.87588501 16.05639648 C81.34537811 16.07401527 77.81567144 16.0623393 74.28515625 16.04882812 C71.83422695 16.0515219 69.38329869 16.05540337 66.93237305 16.0604248 C61.79433015 16.06632515 56.65656529 16.05773925 51.51855469 16.0390625 C44.9273414 16.01627314 38.33677959 16.02939328 31.74559021 16.05335236 C26.68415403 16.06779556 21.62287269 16.06321102 16.56143188 16.05284119 C14.13090946 16.05016984 11.70037304 16.05345793 9.26986694 16.0627594 C5.87484409 16.0729002 2.48088125 16.05745705 -0.9140625 16.03515625 C-2.42593643 16.04730164 -2.42593643 16.04730164 -3.96835327 16.05969238 C-10.73831367 15.97716514 -10.73831367 15.97716514 -14.02270508 13.70397949 C-16.08154885 10.4411985 -16.00792005 8.28560844 -15.40234375 4.51757812 C-11.0338699 -0.54936496 -6.2091056 -0.05108963 0 0 Z " fill="#000000" transform="translate(113.40234375,328.482421875)"/>
<path d="M0 0 C0.79541199 -0.00525696 1.59082397 -0.01051392 2.41033936 -0.01593018 C5.04198796 -0.02914387 7.67303265 -0.02038744 10.3046875 -0.01025391 C12.13167436 -0.01227425 13.95866044 -0.01518536 15.78564453 -0.01895142 C19.61563796 -0.02337662 23.44542157 -0.01693743 27.27539062 -0.00292969 C32.18853455 0.01416234 37.10118686 0.0043222 42.01431274 -0.01364708 C45.78722854 -0.02447963 49.56002749 -0.02104101 53.33294678 -0.0132637 C55.14467425 -0.01126023 56.95641229 -0.01372612 58.76812744 -0.02070236 C61.2988298 -0.02830821 63.82873233 -0.01672527 66.359375 0 C67.4862674 -0.00910904 67.4862674 -0.00910904 68.63592529 -0.0184021 C73.69751639 0.04367611 73.69751639 0.04367611 76.14355469 1.79135132 C78.07601407 4.769554 77.71287979 7.98286216 77.1796875 11.38818359 C75.36805483 14.06249849 74.30207673 14.34738718 71.1796875 15.38818359 C68.79930749 15.48845023 66.41617213 15.5265181 64.03369141 15.53344727 C63.309767 15.53680588 62.58584259 15.54016449 61.83998108 15.54362488 C59.44538662 15.55312831 57.05086215 15.55507773 54.65625 15.55615234 C52.99099702 15.55936551 51.32574433 15.56272962 49.66049194 15.5662384 C46.16851141 15.57222826 42.67655562 15.57407847 39.18457031 15.57348633 C34.71340301 15.57338475 30.24239467 15.58703309 25.77126503 15.60425854 C22.33113885 15.61538609 18.891051 15.6174053 15.45090866 15.6168766 C13.80271227 15.61805573 12.15451487 15.62247372 10.50633621 15.63020897 C8.19893569 15.64002349 5.89187889 15.63712507 3.58447266 15.63110352 C1.61614975 15.63324104 1.61614975 15.63324104 -0.39193726 15.63542175 C-4.83119299 15.31528369 -7.65796672 14.55052938 -10.8203125 11.38818359 C-11.38582154 4.2627697 -11.38582154 4.2627697 -9.78637695 1.78915405 C-6.75326436 -0.37216937 -3.58903411 -0.02901133 0 0 Z " fill="#000000" transform="translate(123.8203125,367.61181640625)"/>
<path d="M0 0 C0.75493744 -0.00861557 1.50987488 -0.01723114 2.28768921 -0.02610779 C4.77938263 -0.04878283 7.26995285 -0.04202708 9.76171875 -0.03295898 C11.49520197 -0.03819367 13.22868234 -0.04446958 14.9621582 -0.05174255 C18.59372367 -0.06214936 22.22489736 -0.05758106 25.85644531 -0.04296875 C30.51079749 -0.02577412 35.16391598 -0.04928224 39.81813049 -0.08445835 C43.39725935 -0.10641544 46.97609218 -0.10499516 50.55526733 -0.09669304 C52.27128452 -0.0958727 53.98732327 -0.10275187 55.70327759 -0.11746407 C58.10243663 -0.13488136 60.49936823 -0.12039465 62.8984375 -0.09765625 C63.96147598 -0.11519455 63.96147598 -0.11519455 65.04598999 -0.13308716 C68.71835685 -0.06225114 70.19930067 0.29923868 72.91723633 2.84632874 C74.44921875 5.53344727 74.44921875 5.53344727 74.51171875 9.15844727 C73.44921875 12.53344727 73.44921875 12.53344727 71.33789062 14.22012329 C67.75440704 15.84934084 65.10252166 15.91434214 61.16796875 15.92163086 C60.09627441 15.9295163 60.09627441 15.9295163 59.00292969 15.93756104 C56.65146746 15.95071797 54.30068735 15.94203869 51.94921875 15.93188477 C50.30924348 15.93390675 48.66926908 15.93681923 47.02929688 15.94058228 C43.59626688 15.94499978 40.16347143 15.93859318 36.73046875 15.92456055 C32.33546274 15.90746886 27.94100637 15.91731313 23.54602051 15.93527794 C20.16076535 15.94613137 16.77563998 15.94266231 13.39038086 15.93489456 C11.77010025 15.93289686 10.14980776 15.93533672 8.52954102 15.94233322 C6.26286723 15.94997357 3.99707693 15.93830837 1.73046875 15.92163086 C0.44205078 15.91924408 -0.84636719 15.9168573 -2.17382812 15.91439819 C-5.78398757 15.50713948 -7.6781062 14.71545063 -10.55078125 12.53344727 C-11.97119946 9.69261085 -11.86530397 7.67867449 -11.55078125 4.53344727 C-8.37815276 0.10135808 -5.10621434 -0.04701975 0 0 Z " fill="#000000" transform="translate(367.55078125,346.466552734375)"/>
<path d="M0 0 C2.4375 1.5625 2.4375 1.5625 4 4 C4.7099846 8.9698922 4.79117716 10.84919686 1.9375 15 C-1.76272533 17.51930235 -3.6031656 17.7066341 -8 17 C-11.43250143 15.0598905 -12.70166193 13.85772196 -14 10.125 C-14 6.25173287 -13.12269877 4.2206464 -11 1 C-7.51811815 -1.86011723 -4.17847912 -1.04461978 0 0 Z " fill="#000000" transform="translate(337,346)"/>
<path d="M0 0 C3.14674823 2.74331897 3.89954133 4.37492386 4.5625 8.5 C4 12 4 12 1.9375 14.9375 C-1.7595073 17.53327109 -3.56644342 17.71253588 -8 17 C-10.875 15.4375 -10.875 15.4375 -13 13 C-14.14009771 9.08091414 -14.40888632 6.96841496 -12.8125 3.1875 C-8.96523814 -1.45574707 -5.79259322 -1.55158747 0 0 Z " fill="#000000" transform="translate(305,346)"/>
</svg>
