<?xml version="1.0" encoding="UTF-8"?>
<svg version="1.1" xmlns="http://www.w3.org/2000/svg" width="1300" height="260">
<path d="M0 0 C1.86851837 7.86744576 1.08058908 14.86193719 -3.0703125 21.78515625 C-5.26051125 24.73684794 -7.39422022 26.33219959 -10.75 27.625 C-11.8225 28.07875 -12.895 28.5325 -14 29 C-17.48445535 38.25562314 -15.86623803 52.41117075 -12.3203125 61.30078125 C-6.82489056 72.53550479 0.57385857 82.40848398 12 88 C12.721875 87.0925 13.44375 86.185 14.1875 85.25 C16.52652794 82.4298006 19.05066655 80.19093342 22 78 C21.505 77.21625 21.01 76.4325 20.5 75.625 C19 73 19 73 19 71 C18.195625 70.79375 17.39125 70.5875 16.5625 70.375 C12.64632299 68.86349308 9.66498779 66.82960915 6.23828125 64.4453125 C4.25159179 63.16245892 2.45007894 62.27151685 0.25 61.4375 C-5.63088687 58.8363385 -8.59107679 54.84043775 -11 49 C-11.20597558 46.2811224 -11.28948136 43.82358378 -11.1875 41.125 C-11.16719727 40.09246094 -11.16719727 40.09246094 -11.14648438 39.0390625 C-11.1114837 37.35902999 -11.05768954 35.6794065 -11 34 C-3.9601755 35.71106845 1.24905391 38.43492465 6 44 C8.55711895 48.21323961 9.11455618 51.87902431 8.875 56.75 C8.7260831 58.97242139 8.7260831 58.97242139 9 61 C11.25032605 63.36876426 13.11694778 64.55847389 16 66 C15.77953082 62.10190765 15.51847036 58.20755745 15.25 54.3125 C15.188125 53.20970703 15.12625 52.10691406 15.0625 50.97070312 C14.52970266 43.18701147 14.52970266 43.18701147 10 37 C8.08816136 31.26448408 7.9431876 24.24055745 9.82421875 18.47265625 C11.31740909 15.49182646 13.1524239 12.77136414 15 10 C17.59521528 10.37074504 18.72403114 10.67493694 20.44921875 12.70703125 C20.85785156 13.40183594 21.26648438 14.09664062 21.6875 14.8125 C22.10386719 15.49957031 22.52023438 16.18664062 22.94921875 16.89453125 C25.34345254 21.69189934 25.64737502 26.72605149 25 32 C23.60568803 35.87896267 21.91962088 39.08037912 19 42 C18.79828499 44.56593354 18.71742161 46.99811531 18.75 49.5625 C18.75386719 50.28179687 18.75773438 51.00109375 18.76171875 51.7421875 C18.84803842 57.06523364 19.53275191 61.86463169 21 67 C29.9083191 62.90217322 36.49996217 55.15718777 40.15625 46.15234375 C41.08755276 42.67289316 41.19836724 39.71999471 41.125 36.125 C41.10695312 34.97257812 41.08890625 33.82015625 41.0703125 32.6328125 C41.04710937 31.76398437 41.02390625 30.89515625 41 30 C40.22785156 29.8659375 39.45570313 29.731875 38.66015625 29.59375 C34.47683708 28.66002825 32.11132023 26.73553581 29.796875 23.12109375 C26.21817713 16.07710745 25.82598356 8.58254513 28 1 C33.40564044 1.33785253 37.12147586 4.49472296 41 8 C45.78961331 13.69279754 46.30933652 18.84956735 46 26 C45.69350684 28.33701038 45.36526253 30.67145135 45 33 C45 34.32 45 35.64 45 37 C50.99915959 34.30953721 54.88398449 32.17821306 59 27 C64.27636471 23.74324583 69.77858432 21.848706 76 23 C79.74593148 24.1525943 83.37690079 25.50813562 87 27 C86.835 27.61875 86.67 28.2375 86.5 28.875 C85.92365356 30.96063386 85.92365356 30.96063386 86 33 C87.32226432 34.71796158 87.32226432 34.71796158 89.0625 36.5625 C102.57670512 51.69731102 102.57670512 51.69731102 102.32421875 61.77734375 C101.49360461 67.47155396 99.35583793 73.14339851 95 77 C90.58625572 75.19309403 89.18628545 72.68805609 87.05078125 68.5625 C84.24185345 61.71247532 84.56317273 55.76435038 87.11328125 48.91015625 C88 47 88 47 90 44 C89.26418258 42.8450079 88.51069961 41.70125815 87.75 40.5625 C87.12351563 39.60537109 87.12351563 39.60537109 86.484375 38.62890625 C84.6753428 36.64373144 83.66619985 36.20352671 81 36 C79.22188188 36.75175783 79.22188188 36.75175783 77.5 37.9375 C72.27499176 40.76076899 66.80627532 40.88896077 61 40 C59.32432328 39.01517245 57.65627966 38.01711133 56 37 C52.89190405 37.59155349 52.89190405 37.59155349 50 39 C49.32839844 39.24105469 48.65679687 39.48210938 47.96484375 39.73046875 C45.16417428 41.54004644 44.73429139 43.51741063 43.625 46.625 C39.44488911 57.29192932 32.07373041 65.12596181 23 72 C23.66 73.32 24.32 74.64 25 76 C31.84068115 75.12672155 34.52530475 71.54395246 38.85546875 66.40234375 C40.65678299 64.38447807 42.08641898 63.05610552 44.375 61.6875 C47.37734399 59.75742172 48.22024451 58.04041563 50 55 C56.26825021 49.14054872 60.8705447 47.66061778 69.26171875 47.796875 C72.77328402 48.05736201 75.69023442 48.82319446 79 50 C77.28595234 55.65635728 73.8866466 60.14429862 68.921875 63.3359375 C62.62711415 66.43929862 56.69625922 67.05607406 49.9375 65.125 C45.21118567 64.92388024 42.41953331 67.98036438 39 71 C38.67 71.33 38.34 71.66 38 72 C39.18964355 71.97381592 40.37928711 71.94763184 41.60498047 71.9206543 C46.05905012 71.82950011 50.51303897 71.77251579 54.96777344 71.7253418 C56.88816232 71.70034513 58.80845751 71.66633588 60.72851562 71.62280273 C81.75304513 71.15838355 81.75304513 71.15838355 89 77 C91.25390625 79.24609375 91.25390625 79.24609375 92.5625 81.4375 C93.01753906 82.15808594 93.47257813 82.87867187 93.94140625 83.62109375 C95.17699229 86.39774283 95.61528091 88.99573298 96 92 C80.32943686 92.91819706 80.32943686 92.91819706 74.578125 88.4921875 C70.59249132 84.72359328 67.94794857 81.19452952 66 76 C39.59949058 74.96260851 39.59949058 74.96260851 17.22265625 87.66015625 C13.43916171 91.72116873 11.6637329 95.73151249 10 101 C10.825 100.525625 11.65 100.05125 12.5 99.5625 C16.37914787 97.83073756 19.81658174 97.25219188 24 97 C24.80953125 96.93554688 25.6190625 96.87109375 26.453125 96.8046875 C32.52599092 96.52526115 37.04733529 97.3545837 42 101 C45.38986579 104.24673813 48.15600592 107.65713545 50 112 C50 112.99 50 113.98 50 115 C43.00466584 116.98472271 36.20851068 116.94693382 29.5625 113.875 C25.31005927 111.48849511 23.0669208 109.41569444 21 105 C21 103.68 21 102.36 21 101 C15.7942114 101.93704195 12.44992843 103.40197895 9.08984375 107.58203125 C6.78257394 112.7010277 7.58946578 118.51860794 8 124 C8.53753906 123.84015625 9.07507813 123.6803125 9.62890625 123.515625 C19.96570333 121.26775479 32.7167957 122.87976741 42 128 C49.38782044 118.77515404 49.38782044 118.77515404 54 108 C52.948125 107.38125 51.89625 106.7625 50.8125 106.125 C46.09318251 102.70061719 43.70892558 98.53112075 42 93 C41.32664714 87.297543 41.01263831 82.06291821 44 77 C50.49661775 78.70149512 54.98213542 81.81613429 58.375 87.5625 C61.01004933 93.38386421 61.11025945 100.22511789 59.31640625 106.32421875 C58.5 108.25 58.5 108.25 57 111 C57.65484375 110.54109375 58.3096875 110.0821875 58.984375 109.609375 C67.63163873 103.79567791 75.84765978 100.47652734 86.1875 99.125 C92.10148119 98.25461118 96.62049924 96.10455452 101 92 C102.34323032 90.03462229 102.34323032 90.03462229 103 88 C102.34938905 86.32700041 101.67966676 84.66140763 101 83 C100.32361118 74.74805644 102.12839469 68.95393365 107.4375 62.5625 C109.82755167 59.83024854 111.38032734 58.56482804 115 58 C118.87653746 64.94546295 119.32130013 72.65313881 117.4140625 80.37109375 C114.90463967 86.27629519 110.06094984 89.3571351 105 93 C102.62897488 94.95998974 100.31842383 96.97754517 98 99 C102.34542819 99.64048261 106.14199676 100.15321486 110.5 99.375 C116.7372787 98.70672014 121.91826662 100.85176249 126.8125 104.6875 C130.262576 107.88884959 132.40082386 111.58984965 134 116 C134 116.66 134 117.32 134 118 C127.32109351 119.72358877 120.34735911 119.87319249 113.92578125 117.18359375 C109.70521955 114.5896177 105.77718833 110.53354614 104.30859375 105.74609375 C104.20675781 105.16988281 104.10492188 104.59367187 104 104 C88.88143097 101.20193648 74.84439641 103.37429097 62 112 C54.94072838 117.40313751 49.72875932 123.49974928 45 131 C45.59296875 131.25523437 46.1859375 131.51046875 46.796875 131.7734375 C49.21224538 133.11816498 50.51211706 134.49214367 52.25 136.625 C52.77078125 137.25664062 53.2915625 137.88828125 53.828125 138.5390625 C54.21484375 139.02117187 54.6015625 139.50328125 55 140 C62.10788236 137.50263593 65.32335105 132.36305379 69 126 C69.65819514 124.30417957 70.28402311 122.5953994 70.875 120.875 C73.2999388 114.38828871 77.7362396 110.66814421 83.8125 107.5625 C88.50793412 106.73389398 93.25210284 106.47245587 98 107 C98.66 107.66 99.32 108.32 100 109 C96.85621458 116.67551865 94.09670634 122.58338741 86.34765625 126.3203125 C83.51894091 127.13927501 81.30013007 126.93424567 78.375 126.6875 C75.5939748 126.43846312 75.5939748 126.43846312 73 127 C70.28003744 129.65731467 68.61043598 132.57527538 67 136 C67.95648438 135.68804687 68.91296875 135.37609375 69.8984375 135.0546875 C75.21018278 133.53360896 80.65669049 133.31339116 86.1484375 132.96484375 C91.36388769 132.52468633 94.07710825 131.71872638 98 128 C104.68838093 125.77053969 111.21089798 126.24037462 117.5625 129.25 C121.00018398 131.03209537 122.56697013 132.37482174 124 136 C117.11333816 141.87391745 112.10405132 143.55891046 103.07421875 143.36328125 C97.90439885 142.75236225 95.62456499 140.62456499 92 137 C83.32581393 136.01032776 74.54132427 137.58486935 66 139 C71.36406057 148.09558097 78.91356786 155.50062559 89 159 C93.62983715 159.97896398 98.27506649 160.15241721 103 160 C103.061875 159.29875 103.12375 158.5975 103.1875 157.875 C104.26888238 154.04857003 105.98280482 151.51432931 109 149 C116.60303514 144.75431887 123.53230879 143.8830772 132 146 C131.7005698 151.98860404 129.07444716 155.81879877 125 160 C119.252706 164.49242632 113.06669673 164.69639499 106 164 C105.01 163.67 104.02 163.34 103 163 C101.00038436 162.96079185 98.99950636 162.95556653 97 163 C97.433125 163.83144531 97.433125 163.83144531 97.875 164.6796875 C98.24625 165.40414062 98.6175 166.12859375 99 166.875 C99.37125 167.59429687 99.7425 168.31359375 100.125 169.0546875 C101 171 101 171 101 173 C101.5775 173.226875 102.155 173.45375 102.75 173.6875 C107.22178021 176.29603846 109.37153279 180.21988718 111 185 C111.98404644 192.55198432 110.6581043 198.38601679 107 205 C105.35 204.34 103.7 203.68 102 203 C101.278125 203.928125 100.55625 204.85625 99.8125 205.8125 C97.50465349 208.58584964 95.28073145 210.40396848 92 212 C91.34 212 90.68 212 90 212 C89.814375 212.5775 89.62875 213.155 89.4375 213.75 C87.27216098 217.1392263 84.74030394 218.76582563 81 220 C71.1319785 221.25547347 65.14110256 219.42740171 57 214 C58.39197329 210.61743279 59.8025496 209.16311318 62.9375 207.3125 C63.62714844 206.89613281 64.31679687 206.47976562 65.02734375 206.05078125 C70.38408928 203.1973861 76.0833803 203.53825322 82 204 C85.5625 205.4375 85.5625 205.4375 88 207 C88.99 207.33 89.98 207.66 91 208 C94.30344615 206.24715102 96.50384858 204.72514439 98.625 201.625 C99.18155489 197.72911578 97.28407236 196.06718289 95 193 C93.62244183 188.76335882 93.52315308 184.40698843 94 180 C94.53625 178.948125 95.0725 177.89625 95.625 176.8125 C97.34633417 174.03048566 97.34633417 174.03048566 96.3125 170.875 C95.879375 169.92625 95.44625 168.9775 95 168 C94.74734375 167.319375 94.4946875 166.63875 94.234375 165.9375 C92.5301296 163.2624819 90.94533629 163.01339047 87.9375 162.125 C77.79025809 158.68525698 67.93140921 151.86281842 63 142 C60.525 142.99 60.525 142.99 58 144 C58.33 146.31 58.66 148.62 59 151 C59.73734375 151.23976562 60.4746875 151.47953125 61.234375 151.7265625 C64.39205042 153.18052039 65.97735844 154.76406446 68.25 157.375 C69.27867187 158.53128906 69.27867187 158.53128906 70.328125 159.7109375 C71.93301273 161.90828379 72.5876513 163.34398926 73 166 C73.70125 166.020625 74.4025 166.04125 75.125 166.0625 C79.94319933 167.63365195 82.480892 171.64717279 85.16015625 175.796875 C86.34023231 178.89251639 86.26409984 181.63461264 86.25 184.9375 C86.25773437 186.74541016 86.25773437 186.74541016 86.265625 188.58984375 C86.0123664 191.84123725 85.39643877 194.07966971 84 197 C77.34341184 195.83509707 73.76796834 191.24577243 70 186 C67.54747844 180.07307289 67.45734581 174.6228286 68.75 168.375 C69.36203208 164.89683585 69.36203208 164.89683585 67.0625 162.1875 C66.381875 161.465625 65.70125 160.74375 65 160 C65 159.34 65 158.68 65 158 C64.01 157.67 63.02 157.34 62 157 C62.02356567 158.86132568 62.02356567 158.86132568 62.04760742 160.76025391 C62.10204088 165.37835155 62.13639892 169.996421 62.16479492 174.61474609 C62.17985098 176.61088841 62.20030027 178.60699781 62.22631836 180.60302734 C62.26284161 183.47762185 62.27975837 186.35177772 62.29296875 189.2265625 C62.30845261 190.11429352 62.32393646 191.00202454 62.33988953 191.91665649 C62.34165132 198.45103334 61.10890638 202.60610627 56.6875 207.625 C52.50882632 211.3177814 48.71600935 214.51005634 43 215 C41.16710552 213.16710552 41.74130341 210.40396175 41.6875 207.9375 C41.76445711 200.90362028 42.88477291 196.43957277 47.61328125 191.21875 C51.32194228 187.73211524 53.86609372 186.62908429 59 186 C59.35833911 169.55621646 59.72760117 151.28855261 48.84765625 137.79296875 C44.85433826 133.91784621 39.68961705 130 34 130 C34.309375 130.680625 34.61875 131.36125 34.9375 132.0625 C37.66722726 139.609393 38.80400588 149.80260226 35.4375 157.3125 C32.3243007 162.65097909 28.0481051 166.63020823 22.0625 168.375 C21.051875 168.58125 20.04125 168.7875 19 169 C16.79209923 160.72037212 17.35342315 153.64060925 21.5 146.13671875 C24.28553787 142.16877808 27.40858464 140.53047179 32 139 C31.71998862 134.98650355 31.24236211 133.27964858 28.5625 130.1875 C24.36039114 126.6003339 21.19383054 126.87778947 15.875 126.9375 C15.12089844 126.94201172 14.36679688 126.94652344 13.58984375 126.95117188 C11.72652873 126.96296501 9.86325445 126.98090058 8 127 C8.33 127.66 8.66 128.32 9 129 C9.67628595 138.81168954 9.22938719 147.25249873 5.875 156.55859375 C4.88753808 158.88154374 4.88753808 158.88154374 5 161 C11.30075751 166.53412541 18.06294739 170.38301085 26 173 C26.14695313 171.86111328 26.14695313 171.86111328 26.296875 170.69921875 C27.09111557 167.65021747 27.84297044 166.76428702 30.25 164.8125 C30.83265625 164.32394531 31.4153125 163.83539063 32.015625 163.33203125 C36.51252466 160.31344309 40.24886075 159.74452583 45.625 159.8125 C47.31496094 159.82216797 47.31496094 159.82216797 49.0390625 159.83203125 C52 160 52 160 55 161 C54.86182861 166.52685563 52.52577492 169.38096213 48.875 173.23046875 C43.62941646 178.18098821 38.87162356 178.4026287 31.92578125 178.23828125 C28.34269905 177.94646815 25.36979512 177.22538004 22 176 C22.45890625 176.65484375 22.9178125 177.3096875 23.390625 177.984375 C28.71793743 185.90819265 32.82963696 193.94480599 33.375 203.625 C33.83577418 209.93760628 37.64011788 214.98139739 41.44140625 219.84375 C42.93479219 221.22080982 42.93479219 221.22080982 44.91015625 220.8203125 C45.62042969 220.59085938 46.33070313 220.36140625 47.0625 220.125 C53.89624871 218.36109408 60.12134175 218.57987019 66.3125 222.1875 C69.90812335 224.70370701 72.49464215 227.39854809 75 231 C75 231.99 75 232.98 75 234 C66.9867349 237.11626976 60.13297653 238.50994885 51.8984375 235.125 C48.53961399 233.13458607 46.08487073 230.27735361 44 227 C44 226.34 44 225.68 44 225 C43.40703125 224.74476563 42.8140625 224.48953125 42.203125 224.2265625 C39.78775462 222.88183502 38.48788294 221.50785633 36.75 219.375 C36.22921875 218.74335938 35.7084375 218.11171875 35.171875 217.4609375 C34.78515625 216.97882813 34.3984375 216.49671875 34 216 C33.09788305 222.78163988 33.09788305 222.78163988 33.625 229.5625 C34.29859075 235.73708188 32.12457594 240.93491793 28.375 245.8125 C24.91723638 249.56714231 20.73894263 251.30451164 16 253 C13.1789697 245.94742426 13.11368839 239.75476132 16.0234375 232.8203125 C18.22442136 228.71767858 20.93009189 226.4405504 25.1875 224.6875 C28.34890722 223.18253815 28.34890722 223.18253815 29.375 219.4375 C31.77381863 205.83595108 28.77264035 192.39648575 21 181 C15.78581905 174.31288658 9.88820866 168.91782273 3 164 C2.29875 164.721875 1.5975 165.44375 0.875 166.1875 C-1.92770745 168.99823813 -4.92262792 171.49516226 -8 174 C-5.90468448 179.16893165 -3.8356946 181.15508767 1.0625 183.75 C6.88188976 186.88188976 6.88188976 186.88188976 9 189 C10.40671432 189.41076058 11.82549171 189.78098609 13.25 190.125 C18.75905491 191.88151026 21.27846948 195.01821532 24 200 C26.3154763 205.89393967 27.0280376 211.91588719 25 218 C17.15894063 215.97305948 11.61837736 213.01484529 7.125 206.125 C5.47895995 201.55266652 5.14300518 197.09740936 4.8125 192.25 C3.58749079 188.8576668 0.96967737 187.87227342 -2 186 C-1.77953082 189.89809235 -1.51847036 193.79244255 -1.25 197.6875 C-1.1571875 199.34168945 -1.1571875 199.34168945 -1.0625 201.02929688 C-0.50050726 208.79922513 -0.50050726 208.79922513 4 215 C6.83009322 220.72327769 7.20656356 227.25592133 5.2421875 233.3515625 C3.40914976 237.20527176 1.26991504 240.19721568 -2 243 C-2.96671756 241.94512267 -3.92298745 240.88066719 -4.875 239.8125 C-5.40867187 239.22082031 -5.94234375 238.62914062 -6.4921875 238.01953125 C-10.97211577 232.01921282 -10.7592809 225.19509039 -10 218 C-8.68059515 214.63925181 -6.54110786 212.54110786 -4 210 C-3.26613869 201.48720877 -5.28981684 193.29642424 -7 185 C-15.75510521 190.65407932 -22.51493788 196.95392963 -26 207 C-26.97525035 211.99997754 -27.0269656 216.92147831 -27 222 C-26.29875 222.061875 -25.5975 222.12375 -24.875 222.1875 C-20.21618463 223.50412173 -17.29581449 225.9785294 -14.73046875 229.98046875 C-11.30775599 236.81379989 -10.93614711 243.66744949 -13 251 C-18.98860404 250.7005698 -22.81879877 248.07444716 -27 244 C-31.49242632 238.252706 -31.69639499 232.06669673 -31 225 C-30.67 224.01 -30.34 223.02 -30 222 C-30.27571139 219.99124558 -30.60235737 217.98821313 -31 216 C-32.423125 216.7425 -32.423125 216.7425 -33.875 217.5 C-37 219 -37 219 -39 219 C-39.2475 219.5775 -39.495 220.155 -39.75 220.75 C-42.43239363 225.57830853 -45.74347841 227.7385639 -50.86328125 229.4609375 C-57.17494026 231.0532756 -64.32342013 230.32893524 -70 227 C-70.81640625 225.015625 -70.81640625 225.015625 -71 223 C-70.67 222.34 -70.34 221.68 -70 221 C-70.48210937 220.63648438 -70.96421875 220.27296875 -71.4609375 219.8984375 C-75.71884262 216.50949261 -77.43063179 214.3117078 -79 209 C-80.3153341 208.29848848 -81.65117592 207.63474075 -83 207 C-87.56404741 201.91434717 -88.22944131 196.61708731 -88 190 C-86.93214128 183.86689991 -84.74526311 179.97576098 -80 176 C-74.57259523 181.62061335 -70.99979641 187.01995973 -70.625 195 C-70.76310704 198.69254609 -71.80094009 201.76161838 -73.24609375 205.140625 C-74.04567555 207.11265059 -74.67173007 208.89395657 -75 211 C-73.1924873 213.91982821 -71.49129327 215.67678074 -68.625 217.5625 C-65.78976584 218.32151368 -65.78976584 218.32151368 -62.875 216.1875 C-61.92625 215.465625 -60.9775 214.74375 -60 214 C-56.80843552 212.93614517 -54.41502524 212.83322018 -51.0625 212.8125 C-50.02222656 212.79832031 -48.98195313 212.78414062 -47.91015625 212.76953125 C-45.01202264 212.99904787 -43.50016046 213.62325966 -41 215 C-37.01429324 214.69340717 -34.22435156 213.31846231 -31 211 C-29.76211307 208.61330675 -29.76211307 208.61330675 -29.0625 205.875 C-25.54618605 195.31215968 -19.37136675 189.1216843 -11 182 C-10.34 181.34 -9.68 180.68 -9 180 C-10.485 178.02 -10.485 178.02 -12 176 C-15.46485707 176.62032476 -15.46485707 176.62032476 -19 178 C-19.70710678 179.64991582 -20.36562656 181.3207762 -21 183 C-24.1187563 186.17457297 -27.56196216 188.9654404 -31.171875 191.5625 C-33.16534162 192.94727803 -33.16534162 192.94727803 -34.375 195.375 C-37.40797887 200.27442741 -41.58904447 203.21766162 -47 205 C-52.92827467 205.58678701 -58.47227563 205.39036729 -64 203 C-63.57840376 198.2219093 -61.53785997 195.09968465 -58 192 C-51.53386308 187.62045337 -45.75579122 186.05315296 -38 187 C-36.700625 187.433125 -36.700625 187.433125 -35.375 187.875 C-31.61179956 188.07306318 -29.45627817 185.78575436 -26.57421875 183.54296875 C-26.05472656 183.03378906 -25.53523438 182.52460938 -25 182 C-25 181.34 -25 180.68 -25 180 C-25.99708984 180.16081055 -26.99417969 180.32162109 -28.02148438 180.48730469 C-34.06258307 181.34636696 -40.15302846 181.22429637 -46.24267578 181.24023438 C-48.49418615 181.24997485 -50.74479543 181.28107512 -52.99609375 181.3125 C-54.44530715 181.31902871 -55.89452699 181.3242797 -57.34375 181.328125 C-59.29571289 181.34214355 -59.29571289 181.34214355 -61.28710938 181.35644531 C-67.78060556 180.73305602 -73.68446206 178.03676482 -78 173 C-79.96850922 169.7916842 -81.73657837 166.55140906 -83 163 C-82.67 162.34 -82.34 161.68 -82 161 C-65.40970874 160.16116505 -65.40970874 160.16116505 -58.4453125 166.390625 C-55.30562296 169.7609132 -54.58844578 172.55258874 -54 177 C-27.29596409 177.94624719 -27.29596409 177.94624719 -4.1875 165.875 C-0.18916881 161.60190198 1.88549268 156.38858318 4 151 C3.01 151.66 2.02 152.32 1 153 C-7.36045446 155.43936139 -15.8417772 157.65224753 -24.11328125 154.08984375 C-29.73194458 150.96836412 -34.80911369 146.0518321 -36.66015625 139.75390625 C-36.82837891 138.88572266 -36.82837891 138.88572266 -37 138 C-30.40762199 135.80254066 -21.73686979 135.70499772 -15.375 138.6875 C-10.43904794 141.68282134 -7.85633602 145.58568662 -6 151 C-4.9275 150.608125 -3.855 150.21625 -2.75 149.8125 C-2.14671875 149.59207031 -1.5434375 149.37164062 -0.921875 149.14453125 C1.8823014 147.47456441 3.25631306 145.76584824 5 143 C5.44060782 140.27444524 5.69264355 137.9119316 5.75 135.1875 C5.79447266 134.14819336 5.79447266 134.14819336 5.83984375 133.08789062 C5.90999628 131.39253787 5.95732662 129.69626688 6 128 C5.50371094 128.15855469 5.00742188 128.31710938 4.49609375 128.48046875 C-7.0369059 130.88092095 -19.49897095 129.25051452 -30 124 C-30.26941406 124.73605469 -30.53882812 125.47210938 -30.81640625 126.23046875 C-31.95658883 128.89842073 -33.25040638 130.96430608 -34.9375 133.3125 C-37.75095061 137.412296 -39.45664549 141.28419456 -41 146 C-40.29875 146.185625 -39.5975 146.37125 -38.875 146.5625 C-33.96714895 149.01642552 -30.96975674 152.97232682 -28.625 157.875 C-27.34215663 164.28921683 -27.49120686 169.88481673 -30 176 C-37.78726774 172.93741842 -42.18532198 169.51674562 -46 162 C-47.90716993 156.27849022 -47.46436099 151.39078967 -45 146 C-45 145.01 -45 144.02 -45 143 C-45.59425781 143.38671875 -46.18851562 143.7734375 -46.80078125 144.171875 C-55.28083185 149.49993168 -63.34503908 152.55776869 -73.1875 154.375 C-79.20382919 155.57826584 -83.82365326 157.37833674 -88 162 C-88.33 162.99 -88.66 163.98 -89 165 C-88.525625 165.9075 -88.05125 166.815 -87.5625 167.75 C-85.06977037 172.93487763 -85.60729555 177.18077512 -87.1875 182.5625 C-89.11741616 187.8720346 -91.57963773 191.81671178 -96.8125 194.375 C-97.534375 194.58125 -98.25625 194.7875 -99 195 C-103.4377229 187.7887003 -104.38334885 181.16928962 -102.515625 172.83984375 C-99.75766278 165.9871519 -91.54074439 158.27037219 -85 155 C-88.86058932 154.0856499 -91.99538349 154.06820319 -95.875 154.625 C-101.92599434 155.29632471 -106.15706181 154.26635836 -110.9453125 150.44921875 C-114.56985799 147.029407 -117.1462521 143.68889175 -119 139 C-119 138.34 -119 137.68 -119 137 C-114.12665974 134.56332987 -107.33524558 135.50997228 -102 136 C-96.81398414 137.85710226 -92.88879743 141.30570417 -90 146 C-90 147.32 -90 148.64 -90 150 C-74.63817781 150.83051066 -74.63817781 150.83051066 -60 147 C-58.67162109 146.39671875 -58.67162109 146.39671875 -57.31640625 145.78125 C-46.79722014 140.5289518 -38.90167275 133.14799827 -33 123 C-34.0828125 121.948125 -34.0828125 121.948125 -35.1875 120.875 C-37.99823813 118.07229255 -40.49516226 115.07737208 -43 112 C-50.6124127 115.98745427 -53.81055113 123.09828404 -57.125 130.75 C-60.18160315 137.75060723 -63.01938987 141.80793203 -70.05078125 145.09765625 C-75.30987888 146.70673115 -80.56419133 146.38340343 -86 146 C-85.09655304 139.10630688 -82.53357237 134.40689375 -77.5 129.625 C-73.01073556 126.70697812 -70.36591274 125.95320632 -65.0625 126.4375 C-62.45794816 126.63342203 -62.45794816 126.63342203 -60 126 C-57.34405814 123.32310396 -55.64716372 120.37467689 -54 117 C-54.96679688 117.31195313 -55.93359375 117.62390625 -56.9296875 117.9453125 C-62.03153303 119.40628387 -67.22874056 119.68001373 -72.50390625 120.03515625 C-77.57786729 120.48864687 -80.17016015 121.40734514 -84 125 C-90.46775221 127.66319209 -96.79394611 127.47666784 -103.34765625 125.17578125 C-107.33724281 123.34390212 -109.25882953 122.15269158 -111 118 C-105.65630861 113.05708547 -100.80443832 110.40761839 -93.5 109.625 C-88.95091993 110.11240144 -83.75022408 110.96974006 -80.6328125 114.5859375 C-76.97092249 117.75723937 -70.55203432 116.29697764 -66 116 C-61.63908033 115.46795871 -57.32088336 114.79204409 -53 114 C-58.34331596 105.0944734 -65.87251322 97.62176993 -75.9375 94.375 C-78.41112192 93.92525056 -80.73722546 93.90443718 -83.25 93.9375 C-84.14203125 93.94652344 -85.0340625 93.95554687 -85.953125 93.96484375 C-86.62859375 93.97644531 -87.3040625 93.98804687 -88 94 C-88.34611328 94.79664062 -88.34611328 94.79664062 -88.69921875 95.609375 C-91.52304391 101.72580262 -94.75044767 105.24518822 -101 108 C-107.13190939 109.27362942 -112.13880223 109.16609483 -118 107 C-116.20996752 100.32806076 -113.33355527 95.73872745 -107.8125 91.625 C-101.55394376 88.441062 -94.72507721 88.68778981 -88 90 C-86.515 89.505 -86.515 89.505 -85 89 C-86.84372854 84.62927882 -88.32485128 81.55114181 -92.0625 78.5 C-96.31132611 74.88397778 -97.52159463 71.27205646 -98.31640625 65.8359375 C-98.65089017 59.7289086 -96.90833188 54.34963236 -94 49 C-93.01 48.505 -93.01 48.505 -92 48 C-90.515 48.495 -90.515 48.495 -89 49 C-87.02858097 47.7424021 -87.02858097 47.7424021 -85.125 45.875 C-84.06152344 44.90240234 -84.06152344 44.90240234 -82.9765625 43.91015625 C-81.43844075 42.42371052 -79.95688427 40.87865059 -78.5 39.3125 C-72.6094351 33.86372746 -67.06142647 32.29304986 -59.0546875 32.52734375 C-54.15079943 33.2861295 -50.18252359 35.40905618 -46 38 C-46 39.32 -46 40.64 -46 42 C-47.86328125 43.66796875 -47.86328125 43.66796875 -50.3125 45.1875 C-51.11300781 45.69667969 -51.91351563 46.20585938 -52.73828125 46.73046875 C-58.18781369 49.78936002 -63.90912522 49.48404303 -70 49 C-73.5 47.5 -73.5 47.5 -76 46 C-80.29558621 45.98352501 -80.29558621 45.98352501 -83.25 48.5 C-84.1575 49.325 -85.065 50.15 -86 51 C-85.731875 51.66 -85.46375 52.32 -85.1875 53 C-84.795625 53.99 -84.40375 54.98 -84 56 C-83.60361328 56.88945313 -83.60361328 56.88945313 -83.19921875 57.796875 C-81.05348048 62.88156284 -80.191174 67.49179256 -81 73 C-81.96887581 75.01526169 -82.9641321 77.01833966 -84 79 C-83.90888062 81.53951544 -83.90888062 81.53951544 -83 84 C-82.649375 85.093125 -82.29875 86.18625 -81.9375 87.3125 C-81.628125 88.199375 -81.31875 89.08625 -81 90 C-80.38253906 90.07476562 -79.76507813 90.14953125 -79.12890625 90.2265625 C-72.15337628 91.30952149 -67.54787519 93.71349142 -62 98 C-60.948125 98.78375 -59.89625 99.5675 -58.8125 100.375 C-55.36298317 103.59454904 -52.69782529 107.14459719 -50 111 C-48.35 110.34 -46.7 109.68 -45 109 C-45.98357857 103.71653616 -45.98357857 103.71653616 -49.6875 100.0625 C-50.780625 99.381875 -51.87375 98.70125 -53 98 C-54.89118645 96.03669203 -56.63996755 93.99442967 -58.38671875 91.90234375 C-60.76865125 89.09362432 -62.74960905 87.14916908 -65.9375 85.25 C-70.39257736 81.97688194 -72.24632812 78.26101563 -74 73 C-74.45457733 66.95306439 -73.98942743 61.71960387 -72 56 C-66.05101029 57.30587579 -62.72945262 60.39469108 -59 65 C-55.52869784 70.82282942 -55.47440932 76.39979398 -56 83 C-56.22816406 83.68320313 -56.45632812 84.36640625 -56.69140625 85.0703125 C-57.21862482 87.10824178 -57.21862482 87.10824178 -55.85546875 89.10546875 C-55.30503906 89.79253906 -54.75460938 90.47960937 -54.1875 91.1875 C-53.64480469 91.88230469 -53.10210937 92.57710938 -52.54296875 93.29296875 C-51.09311423 95.10496579 -51.09311423 95.10496579 -49 96 C-49.10175537 95.18692383 -49.10175537 95.18692383 -49.20556641 94.35742188 C-50.02913982 87.09810454 -50.28542789 79.850985 -50.35009766 72.55029297 C-50.36670132 71.18325834 -50.39405013 69.81631208 -50.43212891 68.44970703 C-50.67352258 59.68186886 -50.30881974 52.33551657 -45 45 C-42.71875 42.74609375 -42.71875 42.74609375 -40.5 41.4375 C-39.7678125 40.98246094 -39.035625 40.52742188 -38.28125 40.05859375 C-35.83567939 38.92374848 -33.67243836 38.33405479 -31 38 C-29.16710552 39.83289448 -29.74130341 42.59603825 -29.6875 45.0625 C-29.76434446 52.08608405 -30.86004822 56.60706633 -35.6484375 61.78125 C-39.02904348 64.91089396 -41.37514408 66.3098414 -46 67 C-46.81883378 93.16743282 -46.81883378 93.16743282 -34.875 115.8125 C-30.60190198 119.81083119 -25.38858318 121.88549268 -20 124 C-20.30679688 123.43410156 -20.61359375 122.86820312 -20.9296875 122.28515625 C-24.34884647 114.98512706 -25.89302717 104.26792629 -23.13671875 96.59765625 C-22.17423747 94.66219389 -21.14364002 92.83257979 -20 91 C-19.67 90.34 -19.34 89.68 -19 89 C-19.94875 89.495 -20.8975 89.99 -21.875 90.5 C-27.69687135 92.9917137 -33.61134418 92.65893954 -39.625 91 C-40.40875 90.67 -41.1925 90.34 -42 90 C-39.98008362 83.94025085 -36.92227355 79.43228225 -31.8125 75.625 C-25.4324991 72.43499955 -19.11227904 72.43632801 -12.375 74.4375 C-10.91025531 74.9400201 -9.44918975 75.45424131 -8 76 C-8.68835938 75.05253906 -8.68835938 75.05253906 -9.390625 74.0859375 C-15.47013869 65.22210872 -18.18808896 56.23478841 -19.875 45.6875 C-20.85507874 40.40207534 -23.28760756 35.8989002 -27 32 C-29.87352666 30.85611535 -30.67076375 30.87457667 -33.625 32 C-38.98179194 33.58719761 -44.0917079 33.26447482 -49.24609375 31.0234375 C-53.77194037 28.37124005 -57.00931524 25.29910935 -60 21 C-60 20.01 -60 19.02 -60 18 C-51.9867349 14.88373024 -45.13297653 13.49005115 -36.8984375 16.875 C-33.53961399 18.86541393 -31.08487073 21.72264639 -29 25 C-29 25.66 -29 26.32 -29 27 C-28.443125 27.20625 -27.88625 27.4125 -27.3125 27.625 C-24.07498698 29.55000774 -22.31768859 32.03850902 -20 35 C-18.32363539 30.75978363 -17.92927394 28.38997684 -19 24 C-19.42069374 18.42580794 -18.90456521 13.79845099 -16 9 C-5.32486388 -2.66243194 -5.32486388 -2.66243194 0 0 Z M-12 79 C-14.475 83.455 -14.475 83.455 -17 88 C-16.278125 87.690625 -15.55625 87.38125 -14.8125 87.0625 C-12.19207305 86.07256093 -9.74450501 85.51200009 -7 85 C-5.62931016 93.83516944 -6.06157235 100.17258314 -10.75 107.875 C-13.64920223 110.61313544 -16.2657939 111.63557854 -20 113 C-19.54617044 117.87866775 -18.3639156 120.43820701 -15 124 C-11.35433792 126.43044139 -8.64363257 126.26310692 -4.4375 126.1875 C-3.75236328 126.18685547 -3.06722656 126.18621094 -2.36132812 126.18554688 C1.44630973 126.20042427 1.44630973 126.20042427 5 125 C4.95359375 124.01902344 4.9071875 123.03804687 4.859375 122.02734375 C4.49974565 110.81446434 6.45129244 101.64612267 10 91 C2.94460813 85.21748811 -2.94939832 80.99645625 -12 79 Z " fill="#313435" transform="translate(122,4)"/>
<path d="M0 0 C8.91 0 17.82 0 27 0 C26.67 2.64 26.34 5.28 26 8 C25.92006277 10.22935706 25.88197706 12.46062105 25.88647461 14.69140625 C25.88658791 16.58246094 25.88658791 16.58246094 25.88670349 18.51171875 C25.89180809 19.86197958 25.89702405 21.21224 25.90234375 22.5625 C25.90421205 23.96354115 25.905634 25.36458296 25.90663147 26.765625 C25.91042424 30.42834318 25.92022634 34.09102083 25.93133545 37.75372314 C25.94161974 41.50117444 25.94614404 45.24863237 25.95117188 48.99609375 C25.96185196 56.33074751 25.97888881 63.66536805 26 71 C26.89809387 70.99214478 26.89809387 70.99214478 27.81433105 70.98413086 C43.40818699 70.86730079 58.92540355 71.25358158 74.5 72 C76.60674789 72.0968545 78.71351877 72.19321023 80.8203125 72.2890625 C85.8804899 72.52033612 90.94031489 72.75820519 96 73 C95.89184563 65.10610436 95.77908908 57.21229288 95.66066074 49.31854534 C95.60579388 45.65208801 95.55243745 41.98562238 95.50268555 38.3190918 C95.45450043 34.77231146 95.40214842 31.22561367 95.34705925 27.6789341 C95.3171416 25.68571053 95.29139934 23.69242568 95.26576233 21.69914246 C95.2358445 19.83845879 95.2358445 19.83845879 95.20532227 17.94018555 C95.18200584 16.32469063 95.18200584 16.32469063 95.15821838 14.67655945 C94.947227 9.77370075 94.44429481 4.88724287 94 0 C102.91 0 111.82 0 121 0 C120.67 3.63 120.34 7.26 120 11 C119.92314284 13.00971858 119.87385446 15.02103908 119.87301636 17.03222656 C119.87019653 18.09163452 119.86737671 19.15104248 119.86447144 20.24255371 C119.86649567 21.36391724 119.8685199 22.48528076 119.87060547 23.640625 C119.86885315 24.85351196 119.86710083 26.06639893 119.86529541 27.31604004 C119.86167499 30.60942447 119.86248606 33.902768 119.8656745 37.19615173 C119.86822889 40.66364621 119.86585206 44.13113821 119.86428833 47.59863281 C119.86247556 53.41862469 119.86484945 59.23860382 119.86962891 65.05859375 C119.8750698 71.76088609 119.87330651 78.463148 119.8678025 85.16543961 C119.86324587 90.94837833 119.86263325 96.73130796 119.86524117 102.51424789 C119.86678996 105.95567065 119.86703644 109.39707917 119.86370468 112.83850098 C119.86115081 116.67881292 119.86505718 120.51906732 119.87060547 124.359375 C119.86756912 126.04142029 119.86756912 126.04142029 119.86447144 127.75744629 C119.86870117 129.34655823 119.86870117 129.34655823 119.87301636 130.96777344 C119.87339338 131.87251404 119.87377041 132.77725464 119.87415886 133.70941162 C120.05676029 138.48421057 120.56739402 143.24133418 121 148 C112.09 148 103.18 148 94 148 C94.33 144.37 94.66 140.74 95 137 C95.07518797 134.74874007 95.11832818 132.49591824 95.11352539 130.2434082 C95.11344986 129.04299393 95.11337433 127.84257965 95.11329651 126.60578918 C95.10813522 125.35013657 95.10297394 124.09448395 95.09765625 122.80078125 C95.0962413 121.48458298 95.09482635 120.1683847 95.09336853 118.81230164 C95.08959214 115.35183736 95.07980495 111.89141659 95.06866455 108.43096924 C95.05834414 104.88432402 95.05384838 101.33767161 95.04882812 97.79101562 C95.03817712 90.86065947 95.0211611 83.93033184 95 77 C94.40127075 77.00523682 93.8025415 77.01047363 93.18566895 77.01586914 C77.59181301 77.13269921 62.07459645 76.74641842 46.5 76 C44.39325211 75.9031455 42.28648123 75.80678977 40.1796875 75.7109375 C35.1195101 75.47966388 30.05968511 75.24179481 25 75 C25.10787873 83.33685959 25.22058568 91.67363437 25.33933926 100.01034546 C25.39434089 103.88203268 25.44772247 107.75372769 25.49731445 111.62548828 C25.54529626 115.36677099 25.59764755 119.10797007 25.65294075 122.84915161 C25.67321225 124.27155455 25.69194879 125.69398027 25.70907402 127.11642456 C25.73345836 129.11933787 25.76396701 131.12217371 25.79467773 133.125 C25.81799416 134.83042969 25.81799416 134.83042969 25.84178162 136.5703125 C26.01825219 140.39565126 26.52502051 144.20016409 27 148 C18.09 148 9.18 148 0 148 C0.33 144.04 0.66 140.08 1 136 C1.07530179 133.97768401 1.12612419 131.95389305 1.12698364 129.93017578 C1.12980347 128.88766663 1.13262329 127.84515747 1.13552856 126.77105713 C1.13350433 125.6735614 1.1314801 124.57606567 1.12939453 123.4453125 C1.13114685 122.25339294 1.13289917 121.06147339 1.13470459 119.83343506 C1.13832042 116.60202389 1.13751695 113.37065452 1.1343255 110.13924408 C1.13176736 106.73361636 1.13414896 103.32799113 1.13571167 99.92236328 C1.13752338 94.20670074 1.13515339 88.49105119 1.13037109 82.77539062 C1.12493041 76.19749727 1.12669377 69.61963493 1.1321975 63.04174232 C1.13675721 57.361527 1.13736526 51.68132092 1.13475883 46.00110435 C1.13321171 42.62282174 1.13295882 39.24455362 1.13629532 35.86627197 C1.13885279 32.0957229 1.13493786 28.32523225 1.12939453 24.5546875 C1.13141876 23.45719177 1.13344299 22.35969604 1.13552856 21.22894287 C1.13270874 20.18643372 1.12988892 19.14392456 1.12698364 18.06982422 C1.12660662 17.18205292 1.12622959 16.29428162 1.12584114 15.37960815 C0.93457417 10.24291426 0.42687483 5.12249794 0 0 Z " fill="#2A2D2E" transform="translate(319,56)"/>
<path d="M0 0 C6.93 0 13.86 0 21 0 C21.33 2.64 21.66 5.28 22 8 C23.05058594 7.59007813 24.10117188 7.18015625 25.18359375 6.7578125 C38.29449665 1.69483056 52.48777188 -3.53385133 66.625 1.1875 C70.13376476 3.07183663 72.39289339 5.00949536 75 8 C75.99 8.99 75.99 8.99 77 10 C78.08796875 9.52949219 79.1759375 9.05898437 80.296875 8.57421875 C94.35809967 2.57482714 110.21644232 -4.04124056 125.625 1.25 C132.59214938 4.86259597 135.64014346 8.56182474 138 16 C139.28146242 22.77999428 139.20620407 29.57499141 139.28125 36.45703125 C139.3093852 38.44098641 139.33752529 40.42494151 139.36594391 42.40889263 C139.41439299 45.87671414 139.45698254 49.34460757 139.5 52.8125 C139.55137264 56.94240269 139.6039025 61.07227138 139.66296387 65.20207214 C139.69926546 67.76753998 139.73177402 70.33306523 139.7598877 72.89863586 C139.78496399 74.66547981 139.78496399 74.66547981 139.81054688 76.46801758 C139.82307495 77.49059158 139.83560303 78.51316559 139.84851074 79.56672668 C140.04661847 84.05653662 140.55281253 88.5281253 141 93 C133.08 93 125.16 93 117 93 C117.33 89.7 117.66 86.4 118 83 C118.08946184 80.77320305 118.14666942 78.54470847 118.16113281 76.31616211 C118.17074036 75.10468002 118.1803479 73.89319794 118.19024658 72.64500427 C118.19449646 71.3686763 118.19874634 70.09234833 118.203125 68.77734375 C118.20595238 68.11372896 118.20877975 67.45011417 118.21169281 66.76638985 C118.22656543 63.26116683 118.23587264 59.75598379 118.24023438 56.25073242 C118.24573297 52.65780658 118.26982416 49.06525696 118.29820633 45.4724493 C118.3169293 42.68155365 118.32204319 39.8907475 118.32357025 37.09979439 C118.32801474 35.13850113 118.34659748 33.17725601 118.36553955 31.21604919 C118.34875594 24.45847551 118.18333572 18.10924524 115 12 C110.79968948 7.90213608 107.73432129 6.60244776 101.8359375 6.640625 C97.11408473 7.23898651 92.84799902 8.99771466 88.4296875 10.7109375 C84.97510141 12.00935824 81.55785932 13.03132074 78 14 C78.20996864 14.94888847 78.20996864 14.94888847 78.42417908 15.91694641 C79.99257514 23.62395407 80.32523421 31.06852115 80.37890625 38.91796875 C80.40487518 40.90023318 80.43084862 42.88249756 80.4570837 44.86475849 C80.49119785 47.61069881 80.5169485 50.35669175 80.54260254 53.10272217 C80.58859188 57.92130489 80.64402209 62.73977088 80.70530701 67.55818176 C80.73698333 70.11467448 80.76395748 72.67123111 80.78553772 75.22782898 C80.79902756 76.39296524 80.8125174 77.5581015 80.82641602 78.75854492 C80.83592789 79.77349533 80.84543976 80.78844574 80.85523987 81.83415222 C81.02614157 85.57170588 81.53592914 89.28743311 82 93 C74.08 93 66.16 93 58 93 C58.16081055 91.30834717 58.32162109 89.61669434 58.48730469 87.8737793 C59.06424314 80.91711549 59.17886278 73.99730498 59.203125 67.01953125 C59.20882507 65.72609299 59.21452515 64.43265472 59.22039795 63.10002136 C59.23080073 60.38479225 59.23671514 57.66959184 59.24023438 54.9543457 C59.24574407 51.49823407 59.2698696 48.04251132 59.29820633 44.5865221 C59.32142086 41.25170016 59.32328463 37.91692968 59.328125 34.58203125 C59.3404718 33.35370071 59.3528186 32.12537018 59.36553955 30.8598175 C59.34836136 24.20952485 59.10313812 18.01723729 56 12 C51.82599591 7.92780089 48.77359066 6.60808913 42.9140625 6.63671875 C37.84900894 7.26815304 33.13459996 9.08668716 28.35546875 10.80859375 C25.88507398 11.68574207 23.53793886 12.39675066 21 13 C21.10863578 20.92064675 21.22147081 28.84121885 21.33933926 36.76173306 C21.39397401 40.44147253 21.44728283 44.12122023 21.49731445 47.80102539 C21.70331412 62.88852118 21.91745214 77.94439742 23 93 C15.41 93 7.82 93 0 93 C0.16226074 91.17404297 0.32452148 89.34808594 0.49169922 87.46679688 C1.07735091 79.8170365 1.14563081 72.19938133 1.1328125 64.53125 C1.13348879 63.07881657 1.13446151 61.62638325 1.13571167 60.1739502 C1.13717336 57.15192573 1.1350839 54.12993111 1.13037109 51.10791016 C1.12467476 47.27234773 1.12796205 43.43685534 1.13394356 39.60129547 C1.13759084 36.60865775 1.13639164 33.61603609 1.13381577 30.62339783 C1.13315797 29.21068818 1.13393379 27.79797699 1.13629532 26.38526917 C1.14785362 17.53237733 0.78370974 8.81926396 0 0 Z " fill="#2A2D2E" transform="translate(1156,111)"/>
<path d="M0 0 C8.91 0 17.82 0 27 0 C26.67 3.63 26.34 7.26 26 11 C25.91092968 14.04831298 25.85292624 17.07350382 25.85473633 20.12060547 C25.85137772 20.95964417 25.8480191 21.79868286 25.84455872 22.66314697 C25.83516985 25.39784279 25.83311193 28.13247663 25.83203125 30.8671875 C25.82881091 32.79330469 25.82544628 34.71942163 25.82194519 36.64553833 C25.81598452 40.66815762 25.81410219 44.69075552 25.81469727 48.71337891 C25.81479886 53.83594317 25.80113597 58.95836875 25.78392506 64.08090019 C25.77274048 68.05490738 25.77078001 72.02888168 25.77130699 76.00290298 C25.770137 77.89010217 25.76577124 79.77730249 25.75797462 81.66448593 C24.93619478 103.39413697 24.93619478 103.39413697 33.3828125 122.58984375 C40.17851314 128.72732208 48.18937902 128.55156849 56.85314941 128.15789795 C63.59524886 127.66202568 70.23994675 126.30852272 76.875 125.0625 C79.9132012 124.50692674 82.95258735 123.9580181 85.9921875 123.41015625 C87.0650148 123.215392 87.0650148 123.215392 88.15951538 123.01669312 C111.11354366 118.89699884 111.11354366 118.89699884 119 124 C123.41322974 130.59855894 126 140.14191213 126 148 C125.154375 147.690625 124.30875 147.38125 123.4375 147.0625 C116.87513071 145.03413131 110.77096736 144.89864189 104 145.3125 C103.16404297 145.35882568 102.32808594 145.40515137 101.46679688 145.45288086 C96.43037934 145.76069394 91.49172311 146.30288996 86.5 147.0625 C69.22424906 149.50647772 53.42004504 149.09271689 38.515625 139.00390625 C33.5178479 135.02275772 29.53321769 130.29982654 26 125 C25.67 132.59 25.34 140.18 25 148 C16.75 148 8.5 148 0 148 C0.33 145.03 0.66 142.06 1 139 C1.08023412 137.01549311 1.1261859 135.02909677 1.12698364 133.04296875 C1.12980347 131.94976318 1.13262329 130.85655762 1.13552856 129.73022461 C1.13350433 128.56112549 1.1314801 127.39202637 1.12939453 126.1875 C1.13114685 124.93267822 1.13289917 123.67785645 1.13470459 122.38500977 C1.13833372 118.96767051 1.13750827 115.55039238 1.1343255 112.13305664 C1.1317782 108.54182865 1.13414601 104.95060311 1.13571167 101.359375 C1.13752647 95.33072445 1.13514517 89.30208618 1.13037109 83.2734375 C1.1249298 76.32234716 1.12669295 69.37128616 1.1321975 62.42019653 C1.13674829 56.43181102 1.13736957 50.44343429 1.13475883 44.45504761 C1.13320686 40.88734456 1.13297251 37.31965527 1.13629532 33.75195312 C1.13974364 29.77212399 1.13495224 25.79232721 1.12939453 21.8125 C1.13141876 20.64340088 1.13344299 19.47430176 1.13552856 18.26977539 C1.13270874 17.17656982 1.12988892 16.08336426 1.12698364 14.95703125 C1.12660662 14.01835205 1.12622959 13.07967285 1.12584114 12.11254883 C0.96203354 8.06093926 0.44779096 4.03011865 0 0 Z " fill="#2A2D2E" transform="translate(790,56)"/>
<path d="M0 0 C7.59 0 15.18 0 23 0 C22.83773926 1.92328125 22.67547852 3.8465625 22.50830078 5.828125 C21.64582482 17.77987241 21.85612308 29.77512071 21.8671875 41.75 C21.86651244 44.33821624 21.86554073 46.92643241 21.86428833 49.51464844 C21.86282089 54.91732451 21.8648374 60.31998253 21.86962891 65.72265625 C21.87506891 71.92735269 21.8733053 78.13201624 21.8678025 84.33671188 C21.86267971 90.35895991 21.86327016 96.38119213 21.86618423 102.40344238 C21.86684637 104.94209803 21.86605032 107.48075453 21.86370468 110.01940918 C21.8545355 122.72908172 21.93116497 135.33106759 23 148 C16.07 148 9.14 148 2 148 C1.99589111 146.31108643 1.99178223 144.62217285 1.98754883 142.88208008 C1.9680132 137.25006675 1.92548712 131.61852733 1.86790943 125.9867754 C1.83387582 122.57809269 1.80856694 119.16984685 1.80444336 115.76098633 C1.79927571 111.82593988 1.75391864 107.89180924 1.70703125 103.95703125 C1.7109639 102.75544876 1.71489655 101.55386627 1.71894836 100.31587219 C1.50971096 87.95724159 -2.27142017 76.9449909 -11 68 C-16.9474361 62.65191792 -22.6600087 59.39964726 -30.921875 59.69921875 C-35.73422368 60.3957429 -39.36898088 62.25623762 -42.6953125 65.8125 C-48.81481962 74.17685144 -51.55142003 84.73873319 -52 95 C-52.0515625 95.71800781 -52.103125 96.43601562 -52.15625 97.17578125 C-52.72343302 111.23719373 -49.62927074 127.33890166 -40.09375 138.1640625 C-35.69223447 142.09931579 -32.00293846 143.38824738 -26.12109375 143.26953125 C-21.61533158 142.69697584 -18.45882179 140.6802148 -15.55859375 137.33984375 C-11.90811807 132.03303283 -10.40710756 126.22330496 -9 120 C-6.12228026 122.73221706 -4.48769625 125.28075937 -3 129 C-3.55967763 134.83930328 -6.81333678 138.1551052 -11 142 C-19.94970754 148.12190079 -28.34577038 148.89398768 -39 148 C-50.55322203 145.19714732 -59.56528546 137.39139458 -65.75390625 127.3984375 C-72.95058797 113.5465172 -74.02823055 98.03778041 -70.03515625 83.03125 C-66.71386894 73.3055181 -61.34370028 64.52818837 -52.18359375 59.43359375 C-41.38303567 54.38566314 -30.21482035 53.07661573 -18.625 56.5625 C-10.14592601 59.79208 -4.65194872 65.14834244 1 72 C1.02567854 64.63916787 1.04300232 57.27834759 1.05493164 49.91748047 C1.05991291 47.42138233 1.06670034 44.92528703 1.07543945 42.42919922 C1.12382352 28.23843588 0.96998243 14.16021595 0 0 Z " fill="#2A2D2E" transform="translate(749,56)"/>
<path d="M0 0 C7.26 0 14.52 0 22 0 C22 4.62 22 9.24 22 14 C23.29292969 13.39671875 24.58585938 12.7934375 25.91796875 12.171875 C62.37068374 -4.65191487 62.37068374 -4.65191487 79.625 1.1875 C85.91273569 4.56424694 89.47533801 9.0116126 91.56628418 15.85276794 C92.07467602 18.36970461 92.15480491 20.72491378 92.18945312 23.29321289 C92.20617065 24.35274673 92.22288818 25.41228058 92.2401123 26.50392151 C92.25368774 27.64860397 92.26726318 28.79328644 92.28125 29.97265625 C92.29965942 31.16491318 92.31806885 32.3571701 92.33703613 33.58555603 C92.39577612 37.41115373 92.4484673 41.23679889 92.5 45.0625 C92.7201686 61.0679338 93.02615299 77.02079358 94 93 C86.41 93 78.82 93 71 93 C71.16081055 91.30383545 71.32162109 89.6076709 71.48730469 87.86010742 C72.05789492 80.98049319 72.17869415 74.13880972 72.203125 67.23828125 C72.20882507 65.96703903 72.21452515 64.69579681 72.22039795 63.3860321 C72.22978246 60.7178491 72.23671438 58.04977677 72.24023438 55.3815918 C72.24574436 51.98601131 72.26987138 48.59082658 72.29820633 45.19537067 C72.32142415 41.91803841 72.32328484 38.6406842 72.328125 35.36328125 C72.3466452 33.55359612 72.3466452 33.55359612 72.36553955 31.70735168 C72.34401946 23.51971549 71.90709048 16.403423 66.4375 10 C62.87726965 7.07878535 60.51516504 6.59323079 55.875 6.66015625 C45.49976205 7.88657704 35.84604729 12.81378963 26.73046875 17.64453125 C24 19 24 19 22 19 C22.10813993 27.02427843 22.22089396 35.0484738 22.33933926 43.07260609 C22.39421314 46.79959795 22.44757093 50.52659797 22.49731445 54.25366211 C22.54548891 57.85879635 22.59784096 61.46384909 22.65294075 65.0688839 C22.67312692 66.43577702 22.6918749 67.80269226 22.70907402 69.16962624 C22.73365379 71.10247769 22.76409451 73.0352518 22.79467773 74.96801758 C22.81799416 76.61015984 22.81799416 76.61015984 22.84178162 78.28547668 C23.05115738 83.20103161 23.55456304 88.10019343 24 93 C16.08 93 8.16 93 0 93 C0.32484375 90.0609375 0.6496875 87.121875 0.984375 84.09375 C2.13329266 72.65178294 2.30534356 61.27150142 2.26074219 49.77978516 C2.25000898 46.50274162 2.26071878 43.22624601 2.2734375 39.94921875 C2.28100416 26.49266214 1.478651 13.37827096 0 0 Z " fill="#2A2D2E" transform="translate(565,111)"/>
<path d="M0 0 C10.39121774 9.79743387 15.02091353 21.78176183 15.98828125 35.80859375 C15.74456651 48.40864603 11.10776584 59.8740597 2.48828125 68.99609375 C-7.89026252 78.69777597 -19.06525552 82.72515809 -33.20410156 82.60327148 C-44.49783588 82.18652358 -53.60043332 78.35789743 -62.26171875 71.18359375 C-63.21498047 70.43335938 -63.21498047 70.43335938 -64.1875 69.66796875 C-72.12213087 62.70097579 -76.89038418 51.50296193 -78.109375 41.17578125 C-78.7905087 27.79761675 -75.9598967 15.55822771 -67.13671875 5.17578125 C-49.04494642 -14.04672685 -21.04671113 -16.90279909 0 0 Z M-58.26171875 2.18359375 C-64.45471833 10.00225572 -65.02179886 17.38819515 -64.26171875 27.18359375 C-60.84176587 43.97067675 -51.22130158 58.91223356 -37.01171875 68.5234375 C-28.89640463 73.4225973 -21.78686618 75.30014504 -12.26171875 74.18359375 C-5.67923044 72.02932485 -2.46893703 67.55640209 0.55078125 61.62109375 C4.30581111 50.26968164 1.10641066 38.81051294 -3.546875 28.2734375 C-7.08381631 21.2685203 -11.7329543 15.7123582 -17.26171875 10.18359375 C-17.92300781 9.52230469 -18.58429687 8.86101562 -19.265625 8.1796875 C-27.27694849 0.68626775 -36.22107461 -3.28474132 -47.18359375 -3.15234375 C-51.85860375 -2.64212692 -54.89539584 -1.06584295 -58.26171875 2.18359375 Z " fill="#2A2D2E" transform="translate(1012.26171875,121.81640625)"/>
<path d="M0 0 C9.59892349 7.44275931 15.56178602 17.06856298 18.34765625 28.8203125 C19.81911753 43.08553745 18.13935084 55.81916733 9.32421875 67.50390625 C1.15726724 77.07505693 -8.9771597 83.66354695 -21.69360352 85.04150391 C-35.31852946 85.80905937 -46.73780023 83.48443468 -57.65234375 74.8203125 C-60.40234375 72.3203125 -60.40234375 72.3203125 -62.65234375 69.8203125 C-63.47734375 68.9334375 -64.30234375 68.0465625 -65.15234375 67.1328125 C-73.47127864 56.89816074 -75.83641596 44.71189865 -74.65234375 31.8203125 C-71.79469155 17.80807472 -64.78145366 6.25486968 -52.96484375 -1.9296875 C-36.16909155 -11.56927291 -16.12575806 -10.43585644 0 0 Z M-57.35546875 7.80859375 C-62.32654195 15.51974645 -61.60664856 25.54747645 -60.03515625 34.23046875 C-55.68931614 50.05624934 -45.35887849 64.12166508 -31.19921875 72.4140625 C-30.35875 72.878125 -29.51828125 73.3421875 -28.65234375 73.8203125 C-27.53859375 74.4596875 -26.42484375 75.0990625 -25.27734375 75.7578125 C-18.78907206 77.6595473 -10.87245538 78.4224307 -4.65234375 75.2578125 C0.93691183 70.71654234 4.01102278 65.98952836 5.34765625 58.8203125 C6.72462038 44.70643014 1.36228583 31.23733087 -7.02734375 20.0703125 C-14.29138593 11.28034461 -22.99792473 2.1511963 -34.65234375 -0.1796875 C-44.67900003 -0.94349096 -50.65308726 0.07923445 -57.35546875 7.80859375 Z " fill="#2A2D2E" transform="translate(1119.65234375,119.1796875)"/>
<path d="M0 0 C4.26529547 4.11534368 7.74878574 7.6086075 8.203125 13.7421875 C8.22632813 15.29292969 8.22632813 15.29292969 8.25 16.875 C8.27578125 17.90367187 8.3015625 18.93234375 8.328125 19.9921875 C7.8075149 24.76444672 5.70818386 27.29181614 2.375 30.625 C-5.71178552 36.93762502 -17.00933084 37.14738942 -26.78710938 38.37304688 C-38.13801504 39.90834198 -51.86894031 42.29048321 -59.44140625 51.8125 C-62.39434654 56.91583932 -62.94882492 62.21991351 -62 68 C-59.64056642 72.9911095 -57.08843162 74.98582915 -52 77 C-43.90169606 79.87359172 -35.8462903 77.08916327 -28.3359375 73.8515625 C-16.90282775 68.15148185 -8.12353318 58.67656158 0 49 C2.49819306 51.49819306 2.48664895 52.85196388 3 56.3125 C3.165 57.38886719 3.33 58.46523437 3.5 59.57421875 C3.665 60.70472656 3.83 61.83523437 4 63 C4.3314226 65.2086209 4.66473403 67.41695925 5 69.625 C5.2165625 71.09839844 5.2165625 71.09839844 5.4375 72.6015625 C6.18002007 77.08762126 7.1082416 81.54120798 8 86 C1.07 86 -5.86 86 -13 86 C-13.99 81.38 -14.98 76.76 -16 72 C-16.89460937 72.60328125 -17.78921875 73.2065625 -18.7109375 73.828125 C-32.72156458 83.14133418 -44.97001582 87.50135382 -62 86 C-68.69534224 84.56249362 -74.36864417 82.08319543 -79 77 C-83.02062368 70.53423214 -84.20088648 64.32955404 -82.52734375 56.90234375 C-80.0094087 49.07714439 -75.44008603 44.49944548 -68.25 40.6875 C-58.8401954 35.99545263 -48.53496328 35.55767996 -38.2109375 34.96484375 C-28.94522043 34.27317755 -20.60153629 31.76657469 -14 25 C-11.70552699 21.03681935 -11.54014376 17.52191971 -12 13 C-13.70482506 7.64052003 -16.3261068 3.96093294 -21.09765625 0.96484375 C-31.23577019 -4.17707441 -42.92787768 -2.65892814 -53.39453125 0.59375 C-60.70349919 3.44448506 -67.67331722 7.30496585 -73.77734375 12.25 C-76 14 -76 14 -78 14 C-79.65 10.37 -81.3 6.74 -83 3 C-75.73745949 -1.15002315 -68.09366398 -3.13159544 -60 -5 C-58.52466797 -5.34417969 -58.52466797 -5.34417969 -57.01953125 -5.6953125 C-40.49115477 -8.86269369 -14.34576987 -10.69528378 0 0 Z " fill="#2A2D2E" transform="translate(540,118)"/>
<path d="M0 0 C5.82755541 3.97333323 8.16027028 8.21274853 10 15 C10.83329448 20.1402098 9.76839813 24.4304121 7.75390625 29.140625 C6.95432445 31.11265059 6.32826993 32.89395657 6 35 C7.8075127 37.91982821 9.50870673 39.67678074 12.375 41.5625 C15.21023416 42.32151368 15.21023416 42.32151368 18.125 40.1875 C19.07375 39.465625 20.0225 38.74375 21 38 C24.16009533 36.94663489 26.5553136 36.79967112 29.875 36.75 C31.41800781 36.71132812 31.41800781 36.71132812 32.9921875 36.671875 C36.42035364 37.04585676 38.25277213 37.94939063 41 40 C42.125 42.375 42.125 42.375 42 45 C38.39002319 49.45938312 33.80632435 53.17052509 28 54 C22.11044694 54.39929173 16.21873222 54.06043815 11 51 C10.18359375 49.015625 10.18359375 49.015625 10 47 C10.33 46.34 10.66 45.68 11 45 C10.51789062 44.63648438 10.03578125 44.27296875 9.5390625 43.8984375 C5.28115738 40.50949261 3.56936821 38.3117078 2 33 C0.6846659 32.29848848 -0.65117592 31.63474075 -2 31 C-6.55968046 25.9192132 -7.23848807 20.61345755 -7 14 C-5.9488765 8.40836762 -3.91957318 4.18988857 0 0 Z " fill="#DAB13F" transform="translate(41,180)"/>
<path d="M0 0 C-0.165 0.61875 -0.33 1.2375 -0.5 1.875 C-1.07634644 3.96063386 -1.07634644 3.96063386 -1 6 C0.32226432 7.71796158 0.32226432 7.71796158 2.0625 9.5625 C15.57670512 24.69731102 15.57670512 24.69731102 15.32421875 34.77734375 C14.49360461 40.47155396 12.35583793 46.14339851 8 50 C3.58625572 48.19309403 2.18628545 45.68805609 0.05078125 41.5625 C-2.75814655 34.71247532 -2.43682727 28.76435038 0.11328125 21.91015625 C1 20 1 20 3 17 C2.26418258 15.8450079 1.51069961 14.70125815 0.75 13.5625 C0.12351562 12.60537109 0.12351562 12.60537109 -0.515625 11.62890625 C-2.3246572 9.64373144 -3.33380015 9.20352671 -6 9 C-7.77811812 9.75175783 -7.77811812 9.75175783 -9.5 10.9375 C-14.72500824 13.76076899 -20.19372468 13.88896077 -26 13 C-30.69297873 10.68628283 -30.69297873 10.68628283 -32.0625 7.625 C-32 5 -32 5 -30.625 2.4375 C-20.93995341 -6.55575755 -11.25815356 -4.63571029 0 0 Z " fill="#DAB13F" transform="translate(209,31)"/>
<path d="M0 0 C3.83925917 0.68253496 5.06418718 2.55415413 7.48046875 5.48046875 C11.25670774 11.20573431 11.5945696 16.8160331 10.8125 23.5 C9.76195357 26.67447726 8.42943522 29.57652338 6.8125 32.5 C4.3375 31.51 4.3375 31.51 1.8125 30.5 C1.090625 31.428125 0.36875 32.35625 -0.375 33.3125 C-2.68284651 36.08584964 -4.90676855 37.90396848 -8.1875 39.5 C-8.8475 39.5 -9.5075 39.5 -10.1875 39.5 C-10.4659375 40.36625 -10.4659375 40.36625 -10.75 41.25 C-12.91533902 44.6392263 -15.44719606 46.26582563 -19.1875 47.5 C-29.0555215 48.75547347 -35.04639744 46.92740171 -43.1875 41.5 C-41.79552671 38.11743279 -40.3849504 36.66311318 -37.25 34.8125 C-36.56035156 34.39613281 -35.87070313 33.97976562 -35.16015625 33.55078125 C-29.80341072 30.6973861 -24.1041197 31.03825322 -18.1875 31.5 C-14.625 32.9375 -14.625 32.9375 -12.1875 34.5 C-11.1975 34.83 -10.2075 35.16 -9.1875 35.5 C-5.88405385 33.74715102 -3.68365142 32.22514439 -1.5625 29.125 C-1.00594511 25.22911578 -2.90342764 23.56718289 -5.1875 20.5 C-6.98636855 14.96763067 -6.9487242 9.35341545 -4.75 4 C-2.625 0.6 -2.625 0.6 0 0 Z " fill="#DAB13F" transform="translate(222.1875,176.5)"/>
<path d="M0 0 C1.43034568 0.80962963 2.85277608 1.63446306 4.25 2.5 C4.25 3.82 4.25 5.14 4.25 6.5 C2.38671875 8.16796875 2.38671875 8.16796875 -0.0625 9.6875 C-1.26326172 10.45126953 -1.26326172 10.45126953 -2.48828125 11.23046875 C-7.93781369 14.28936002 -13.65912522 13.98404303 -19.75 13.5 C-23.25 12 -23.25 12 -25.75 10.5 C-30.04558621 10.48352501 -30.04558621 10.48352501 -33 13 C-34.36125 14.2375 -34.36125 14.2375 -35.75 15.5 C-35.481875 16.16 -35.21375 16.82 -34.9375 17.5 C-34.545625 18.49 -34.15375 19.48 -33.75 20.5 C-33.48574219 21.09296875 -33.22148438 21.6859375 -32.94921875 22.296875 C-30.25028773 28.69244615 -29.50776807 34.39442016 -32.125 40.9375 C-33.75 43.5 -33.75 43.5 -35.75 45.5 C-38.0625 45.5 -38.0625 45.5 -40.75 44.5 C-45.59193705 39.65806295 -47.74863312 35.15815341 -48.125 28.25 C-48.01647621 22.93233441 -46.2783535 18.15069403 -43.75 13.5 C-43.09 13.17 -42.43 12.84 -41.75 12.5 C-40.76 12.83 -39.77 13.16 -38.75 13.5 C-36.77858097 12.2424021 -36.77858097 12.2424021 -34.875 10.375 C-34.16601562 9.72660156 -33.45703125 9.07820313 -32.7265625 8.41015625 C-31.18844075 6.92371052 -29.70688427 5.37865059 -28.25 3.8125 C-20.08561262 -3.73955832 -10.01250412 -4.97788803 0 0 Z " fill="#DAB13F" transform="translate(71.75,39.5)"/>
<path d="M0 0 C4.21473289 2.88376461 4.21473289 2.88376461 4.875 5.9375 C4.11468822 10.02417584 1.67040041 11.298835 -1.625 13.625 C-7.36051592 15.53683864 -14.38444255 15.6818124 -20.15234375 13.80078125 C-23.13317354 12.30759091 -25.85363586 10.4725761 -28.625 8.625 C-27.23302671 5.24243279 -25.8224504 3.78811318 -22.6875 1.9375 C-21.99785156 1.52113281 -21.30820313 1.10476562 -20.59765625 0.67578125 C-14.38859125 -2.63162169 -6.45946 -2.45014 0 0 Z " fill="#DAB13F" transform="translate(207.625,209.375)"/>
<path d="M0 0 C5.72150608 2.42730561 8.80564287 7.44841886 11.375 12.9375 C12.74776216 19.66403459 12.78081635 25.03794345 9 31 C8.34 31.66 7.68 32.32 7 33 C4.6875 33 4.6875 33 2 32 C-2.84193705 27.15806295 -4.99863312 22.65815341 -5.375 15.75 C-5.27971168 10.65640629 -3.72547684 3.72547684 0 0 Z " fill="#DAB13F" transform="translate(29,52)"/>
<path d="M0 0 C-1.71404766 5.65635728 -5.1133534 10.14429862 -10.078125 13.3359375 C-16.42048252 16.46276411 -22.16735368 16.95816158 -29 15.25 C-31 14 -31 14 -32 12.1875 C-32 8.97251995 -30.93395868 7.55781632 -29 5 C-20.36577698 -3.07112152 -10.95010098 -3.89336924 0 0 Z " fill="#DAB13F" transform="translate(201,54)"/>
<path d="M0 0 C3.80674675 1.90337337 5.56286227 5.01644012 7.25 8.8125 C9.12155765 16.76662001 7.80169814 22.84161855 4 30 C2.36328125 31.79296875 2.36328125 31.79296875 1 33 C-3.41374428 31.19309403 -4.81371455 28.68805609 -6.94921875 24.5625 C-9.71075334 17.82805132 -9.58067698 11.60349998 -6.953125 4.85546875 C-5.30004312 1.63737903 -3.69299705 0 0 0 Z " fill="#DAB13F" transform="translate(216,48)"/>
<path d="M0 0 C1.84735286 3.69470572 1.34245372 7.95904606 1 12 C-1.50922227 18.99940948 -6.69406812 23.32153974 -13 27 C-15.8125 27.8125 -15.8125 27.8125 -18 28 C-19.83289448 26.16710552 -19.25869659 23.40396175 -19.3125 20.9375 C-19.23593781 13.93971613 -18.20679553 9.25679012 -13.24609375 4.21875 C-8.57548212 0.08442989 -6.34851705 -1.48582314 0 0 Z " fill="#DAB13F" transform="translate(183,191)"/>
<path d="M0 0 C15.93431009 -0.80566736 15.93431009 -0.80566736 22 4 C25.32423532 7.27412122 27.85446163 10.25353951 28.25 15 C28.1675 15.99 28.085 16.98 28 18 C24.2611653 20.49255647 21.32694713 20.51093103 17 20 C9.28057651 17.47122334 4.76527266 13.89163011 1.0625 6.8125 C-0.21484375 4.20703125 -0.21484375 4.20703125 -1 2 C-0.67 1.34 -0.34 0.68 0 0 Z " fill="#DAB13F" transform="translate(40,165)"/>
<path d="M0 0 C2.20703125 1.62109375 2.20703125 1.62109375 3.33203125 3.99609375 C3.20703125 6.62109375 3.20703125 6.62109375 1.08203125 9.24609375 C-4.70745463 14.02871252 -9.00868646 15.95337619 -16.55859375 15.83984375 C-20.44739062 15.45912238 -24.40395375 14.60852487 -27.79296875 12.62109375 C-28.546875 10.51171875 -28.546875 10.51171875 -28.79296875 8.62109375 C-28.17421875 8.37359375 -27.55546875 8.12609375 -26.91796875 7.87109375 C-24.66127821 6.81081867 -24.66127821 6.81081867 -23.87109375 4.68359375 C-22.28165844 1.64293489 -20.32576094 0.79096838 -17.28125 -0.6171875 C-11.64693772 -2.34197697 -5.33226923 -2.63257488 0 0 Z " fill="#DAB13F" transform="translate(79.79296875,218.37890625)"/>
<path d="M0 0 C4.38736368 3.94241878 7.78186742 8.30862887 8.265625 14.27734375 C8.26046875 15.48519531 8.2553125 16.69304687 8.25 17.9375 C8.25515625 19.14277344 8.2603125 20.34804687 8.265625 21.58984375 C8.0123664 24.84123725 7.39643877 27.07966971 6 30 C-0.65658816 28.83509707 -4.23203166 24.24577243 -8 19 C-10.31402945 13.40776217 -10.90308588 7.96728219 -9.125 2.125 C-6.92507009 -2.03042317 -4.0897883 -1.2583964 0 0 Z " fill="#DBB240" transform="translate(200,171)"/>
<path d="M0 0 C0.61875 0.495 1.2375 0.99 1.875 1.5 C1.875 4.81306572 1.42257211 6.88206232 -0.796875 9.38671875 C-7.17791496 15.10806473 -11.90703798 16.84171019 -20.453125 16.703125 C-23.58342288 16.46514914 -26.24543343 15.74521798 -29.125 14.5 C-28.70340376 9.7219093 -26.66285997 6.59968465 -23.125 3.5 C-15.94980369 -1.35979609 -8.15960183 -3.91660888 0 0 Z " fill="#DAB13F" transform="translate(87.125,192.5)"/>
<path d="M0 0 C0.86882812 0.09023437 1.73765625 0.18046875 2.6328125 0.2734375 C4.875 0.625 4.875 0.625 6.875 1.625 C7.21615242 5.2071004 6.98438709 7.38136512 5.5 10.6875 C1.35067653 15.33079055 -3.5715899 18.11960296 -9.7890625 19.00390625 C-14.59011364 19.1126914 -18.65573996 18.5067937 -23.125 16.625 C-21.13664838 10.65994513 -18.05296559 5.49008163 -12.5625 2.25 C-7.96986528 0.07893631 -5.04937668 -0.55769235 0 0 Z " fill="#DBB240" transform="translate(103.125,77.375)"/>
<path d="M0 0 C5.94898971 1.30587579 9.27054738 4.39469108 13 9 C16.34408142 14.6094269 17.00182172 20.58637663 16 27 C14.4765625 29.33203125 14.4765625 29.33203125 13 31 C8.10356985 30.54451813 5.41090579 29.59042714 2 26 C-2.20771068 19.28411 -3.16733937 12.53991565 -1.5390625 4.8125 C-1.08762095 3.18992748 -0.55329555 1.59072471 0 0 Z " fill="#DAB13F" transform="translate(50,60)"/>
<path d="M0 0 C0.81171932 14.7913299 0.81171932 14.7913299 -4 21 C-7.19215434 24.52450939 -9.7831424 26.69025443 -14.4375 27.875 C-15.7059375 27.936875 -15.7059375 27.936875 -17 28 C-19.52051006 25.47948994 -20.00606711 23.95601347 -20.5 20.375 C-20.24623836 14.93435042 -18.18072659 10.36985144 -15 6 C-10.54696299 2.19956324 -5.87295227 -1.76188568 0 0 Z " fill="#DAB13F" transform="translate(92,43)"/>
<path d="M0 0 C3.59562335 2.51620701 6.18214215 5.21104809 8.6875 8.8125 C8.6875 9.8025 8.6875 10.7925 8.6875 11.8125 C0.69385283 14.92114056 -6.2027823 16.35500086 -14.41015625 12.92578125 C-17.86082944 10.90639345 -20.32994638 8.27434364 -22.3125 4.8125 C-22.625 2.0625 -22.625 2.0625 -21.3125 -0.1875 C-14.49431633 -4.53953213 -6.93183328 -4.04138959 0 0 Z " fill="#DAB13F" transform="translate(188.3125,226.1875)"/>
<path d="M0 0 C2.19861686 1.87588411 2.90973776 2.55997157 3.5 5.4375 C3 8 3 8 0.9375 10.1875 C-5.61718681 14.23188122 -11.62613863 14.59901206 -19 13 C-26.15032615 10.48965255 -26.15032615 10.48965255 -28.21875 6.86328125 C-28.4765625 6.24839844 -28.734375 5.63351563 -29 5 C-20.46913491 -2.89105021 -10.78191429 -5.69566342 0 0 Z " fill="#DAB13F" transform="translate(40,117)"/>
<path d="M0 0 C3.97716039 -0.31817283 6.49658255 -0.24164038 10.125 1.5 C14.78680407 5.55374267 18.52566359 10.67551449 19 17 C19.16036409 20.86401082 19.23923145 24.28230564 18 28 C10.15894063 25.97305948 4.61837736 23.01484529 0.125 16.125 C-1.61000575 11.30553958 -2.63633056 7.03625779 -1.0625 2 C-0.711875 1.34 -0.36125 0.68 0 0 Z " fill="#DAB13F" transform="translate(129,194)"/>
<path d="M0 0 C1.875 1.125 1.875 1.125 2.875 2.125 C3.6389642 9.25115789 3.22735726 15.27491981 -1.125 21.125 C-5.25306271 25.71287167 -9.10829739 27.89710151 -15.125 29.125 C-17.33290077 20.84537212 -16.77157685 13.76560925 -12.625 6.26171875 C-9.90715873 2.39021049 -4.90380386 -2.01921335 0 0 Z " fill="#DAB13F" transform="translate(156.125,143.875)"/>
<path d="M0 0 C6.93120974 2.21413645 11.07679127 5.50120771 14.94140625 11.62109375 C16.17699229 14.39774283 16.61528091 16.99573298 17 20 C1.31111338 20.9192707 1.31111338 20.9192707 -4.41796875 16.48828125 C-4.94003906 15.99714844 -5.46210938 15.50601563 -6 15 C-6.51175781 14.51917969 -7.02351562 14.03835937 -7.55078125 13.54296875 C-10.63096253 10.25454986 -11.68226139 7.44834054 -12 3 C-8.44426476 -0.55573524 -4.75962554 -0.8394545 0 0 Z " fill="#DAB13F" transform="translate(201,76)"/>
<path d="M0 0 C3.45067319 2.0193878 5.91979013 4.65143761 7.90234375 8.11328125 C8.21484375 10.86328125 8.21484375 10.86328125 6.90234375 13.11328125 C2.04650884 16.21275034 -1.94572457 16.54993345 -7.60546875 15.75 C-14.39963761 14.0141857 -19.16644099 9.76440318 -23.09765625 4.11328125 C-23.09765625 3.12328125 -23.09765625 2.13328125 -23.09765625 1.11328125 C-15.10400908 -1.99535931 -8.20737395 -3.42921961 0 0 Z " fill="#DAB13F" transform="translate(85.09765625,20.88671875)"/>
<path d="M0 0 C4.77291622 0.28637497 8.07666371 1.0249816 11.64453125 4.36328125 C16.22696808 9.89654071 17.45387462 15.69178209 17.23828125 22.73828125 C17.00961772 24.90871054 16.59058579 26.90173993 16 29 C10.01139596 28.7005698 6.18120123 26.07444716 2 22 C-2.0194998 16.85773489 -2.42592561 11.79812594 -2.3359375 5.41796875 C-2 3 -2 3 0 0 Z " fill="#DAB13F" transform="translate(93,226)"/>
<path d="M0 0 C4.32792077 3.73774976 8.00363264 7.81602619 9.625 13.375 C9.66625 14.035 9.7075 14.695 9.75 15.375 C3.07475185 17.09764468 -3.90879004 17.25456732 -10.32421875 14.5546875 C-14.79134731 11.81823146 -18.5517869 7.79024737 -20.015625 2.7265625 C-20.25 0.375 -20.25 0.375 -19.0625 -1.375 C-13.21661525 -5.40664465 -5.85696657 -2.92848328 0 0 Z " fill="#DAB13F" transform="translate(246.25,106.625)"/>
<path d="M0 0 C2.375 0 2.375 0 5 1 C10.03097338 7.42846598 10.79305908 13.04768159 10 21 C8.43453668 25.89917019 5.91988829 29.64009575 2 33 C1.03328244 31.94512267 0.07701255 30.88066719 -0.875 29.8125 C-1.40867187 29.22082031 -1.94234375 28.62914062 -2.4921875 28.01953125 C-6.97211577 22.01921282 -6.7592809 15.19509039 -6 8 C-4.68059515 4.63925181 -2.54110786 2.54110786 0 0 Z " fill="#DAB13F" transform="translate(118,214)"/>
<path d="M0 0 C3.4446936 1.83716992 4.66989143 4.38467428 5.875 8 C6.44398486 15.1123107 4.90047903 21.7460287 0.5 27.4375 C-2.03813992 29.91520802 -3.7505873 31.03588208 -7.125 32 C-11.22279091 25.34108977 -12.16008687 19.77883468 -11.125 12 C-9.54930785 6.80948469 -6.18235643 0 0 0 Z " fill="#DAB13F" transform="translate(30.125,167)"/>
<path d="M0 0 C3.1946122 -0.55905714 5.28611912 -0.43962156 8.07421875 1.27734375 C13.65537223 5.82686073 16.49277395 10.11067347 17.23828125 17.296875 C17.38553114 21.91587155 16.77282736 25.67873331 15 30 C7.21273226 26.93741842 2.81467802 23.51674562 -1 16 C-2.59712091 11.20863728 -2.58050244 6.74150731 -1 2 C-0.67 1.34 -0.34 0.68 0 0 Z " fill="#DAB13F" transform="translate(77,150)"/>
<path d="M0 0 C5.40564044 0.33785253 9.12147586 3.49472296 13 7 C16.45695975 11.10884359 18.14215544 15.05963464 18.1875 20.4375 C18.20167969 21.19933594 18.21585938 21.96117188 18.23046875 22.74609375 C17.97612666 25.23347315 17.24017196 26.84808106 16 29 C11.72150239 29.42784976 9.53234081 29.32357971 5.8125 27.0625 C1.5309413 22.96460065 -0.71299656 17.98726119 -1.27734375 12.11328125 C-1.32796421 7.90053448 -1.16514069 4.06378339 0 0 Z " fill="#DBB240" transform="translate(150,5)"/>
<path d="M0 0 C1.87787598 7.90684622 1.01957169 14.79266316 -3.03515625 21.78515625 C-5.77563249 25.56608448 -8.90465541 27.17061058 -13.1328125 28.75 C-15 29 -15 29 -18 27 C-19.82497971 21.52506086 -19.40181176 16.34990158 -17.24609375 11.05859375 C-14.39798016 6.35340296 -6.01734168 -3.00867084 0 0 Z " fill="#DAB13F" transform="translate(122,4)"/>
<path d="M0 0 C1.90774332 5.8055786 2.4071809 10.11928412 0.1015625 15.86328125 C-3.62422175 23.09024574 -8.44190019 26.29587985 -16 29 C-18.8210303 21.94742426 -18.88631161 15.75476132 -15.9765625 8.8203125 C-12.81074427 2.91922732 -6.78257529 -2.12958278 0 0 Z " fill="#DAB13F" transform="translate(154,228)"/>
<path d="M0 0 C-0.2994302 5.98860404 -2.92555284 9.81879877 -7 14 C-12.14226511 18.0194998 -17.20187406 18.42592561 -23.58203125 18.3359375 C-26 18 -26 18 -29 16 C-28.71666903 11.27781714 -28.00222797 7.90359402 -24.7109375 4.35546875 C-17.41582168 -1.42399516 -8.7947886 -2.19869715 0 0 Z " fill="#DAB13F" transform="translate(254,150)"/>
<path d="M0 0 C0.66 0.66 1.32 1.32 2 2 C-1.13896998 9.66376182 -3.87869973 15.66036141 -11.70703125 19.2734375 C-15.71964667 20.54489656 -19.86555957 20.81513834 -24 20 C-25.7890625 18.64453125 -25.7890625 18.64453125 -27 17 C-27.11212661 12.06642905 -25.09852967 9.08743915 -21.85546875 5.61328125 C-15.59563639 0.17052175 -8.11365935 -1.19277727 0 0 Z " fill="#DBB240" transform="translate(220,111)"/>
<path d="M0 0 C6.98179825 2.04913938 11.60828799 6.8265428 15.1640625 13.03125 C16 15 16 15 16 18 C9.00466584 19.98472271 2.20851068 19.94693382 -4.4375 16.875 C-8.53765883 14.5609199 -11.02835453 12.39139218 -13 8 C-13.4375 4.75 -13.4375 4.75 -13 2 C-8.70866619 -0.86088921 -5.03513455 -0.59104848 0 0 Z " fill="#DAB13F" transform="translate(156,101)"/>
<path d="M0 0 C0.77601562 0.07863281 1.55203125 0.15726562 2.3515625 0.23828125 C4.375 0.6875 4.375 0.6875 6.375 2.6875 C6.26146248 8.59145117 4.55949735 11.59599148 0.375 15.6875 C-4.93015687 19.26539649 -11.51594343 20.41735019 -17.82421875 19.296875 C-19.44780878 18.83581495 -21.04186619 18.27257119 -22.625 17.6875 C-20.87431208 11.16220868 -17.96945249 5.81103838 -12.0625 2.3125 C-7.70069012 0.25055351 -4.79407457 -0.53712876 0 0 Z " fill="#DBB240" transform="translate(26.625,93.3125)"/>
<path d="M0 0 C3.86667063 6.92778488 4.44869782 14.81087898 2.30859375 22.4765625 C0.25759667 27.05912501 -2.32372493 29.90044793 -7 32 C-9.75 31.5625 -9.75 31.5625 -12 30 C-14.8223504 25.4304803 -14.66252259 20.10181031 -13.5703125 14.98828125 C-11.75852128 9.29567796 -8.25892811 5.11525343 -4 1 C-2 0 -2 0 0 0 Z " fill="#DAB13F" transform="translate(237,62)"/>
<path d="M0 0 C3.21243238 1.96735688 5.45934336 4.01757059 7.375 7.3125 C8.25 11 8.25 11 8.375 14.3125 C5.67831819 17.00918181 3.66346839 17.07771089 -0.0546875 17.39453125 C-5.70918536 17.21406855 -10.48764365 15.16987055 -14.7421875 11.47265625 C-18.19862616 7.73654724 -20.48762307 4.36750856 -21.625 -0.6875 C-15.03262199 -2.88495934 -6.36186979 -2.98250228 0 0 Z " fill="#DAB13F" transform="translate(106.625,142.6875)"/>
<path d="M0 0 C2.59521528 0.37074504 3.72403114 0.67493694 5.44921875 2.70703125 C5.85785156 3.40183594 6.26648438 4.09664062 6.6875 4.8125 C7.10386719 5.49957031 7.52023438 6.18664062 7.94921875 6.89453125 C10.34345254 11.69189934 10.64737502 16.72605149 10 22 C8.60568803 25.87896267 6.91962088 29.08037912 4 32 C1.625 32.4375 1.625 32.4375 -1 32 C-6.29255185 26.56043282 -6.33349675 21.57931699 -6.29296875 14.30859375 C-5.77948211 8.50961801 -3.19402903 4.79104355 0 0 Z " fill="#DAB13F" transform="translate(137,14)"/>
<path d="M0 0 C0.99 0.66 1.98 1.32 3 2 C2.56331488 7.45856395 1.67475101 10.87710862 -2 15 C-9.28449472 20.3232846 -16.21917148 20.61933743 -25 20 C-24.09655304 13.10630688 -21.53357237 8.40689375 -16.5 3.625 C-11.15459014 0.15048359 -6.33328349 -0.80648554 0 0 Z " fill="#DAB13F" transform="translate(61,130)"/>
<path d="M0 0 C6.49661775 1.70149512 10.98213542 4.81613429 14.375 10.5625 C16.75505955 15.75896336 16.71326084 21.40173178 16 27 C15.34 27.99 14.68 28.98 14 30 C9.94928083 29.7617224 7.56990545 29.4373693 4.3125 26.9375 C-0.95518821 20.24611227 -2.44715729 15.32054279 -2.3359375 6.734375 C-2.00409706 4.03334819 -1.38105271 2.32016856 0 0 Z " fill="#DAB13F" transform="translate(166,81)"/>
<path d="M0 0 C1.25870262 8.11332414 1.397158 14.74061252 -3.17578125 21.8203125 C-5.39650799 24.6666929 -7.52434129 26.91385665 -11 28 C-13.625 28.3125 -13.625 28.3125 -16 28 C-19.00045149 23.49932276 -18.56353304 19.27409127 -18 14 C-16.17212626 7.22067081 -11.79189775 3.62307024 -6 0 C-3.50907189 -1.24546405 -2.58919267 -0.7767578 0 0 Z " fill="#DAB13F" transform="translate(116,89)"/>
<path d="M0 0 C-0.13817139 5.52685563 -2.47422508 8.38096213 -6.125 12.23046875 C-11.44373882 17.25002851 -16.26985926 17.32728355 -23.29296875 17.30078125 C-26 17 -26 17 -29 15 C-29.65147321 11.88740576 -29.54798546 9.91719552 -27.8984375 7.15625 C-21.02924267 -1.51289428 -10.45103685 -3.48367895 0 0 Z " fill="#DBB240" transform="translate(177,165)"/>
<path d="M0 0 C5.10115361 1.82671325 9.30494993 5.28366238 12 10 C12.25 13.8125 12.25 13.8125 12 17 C7.10462265 19.77404716 2.30738455 19.16232576 -3 18 C-9.15135777 14.92432112 -13.82709583 9.93226043 -16.375 3.5625 C-16.58125 2.716875 -16.7875 1.87125 -17 1 C-12.12665974 -1.43667013 -5.33524558 -0.49002772 0 0 Z " fill="#DAB13F" transform="translate(20,140)"/>
<path d="M0 0 C3.43768398 1.78209537 5.00447013 3.12482174 6.4375 6.75 C-0.44916184 12.62391745 -5.45844868 14.30891046 -14.48828125 14.11328125 C-19.65810115 13.50236225 -21.93793501 11.37456499 -25.5625 7.75 C-25.5 5.375 -25.5 5.375 -24.5625 2.75 C-17.56870889 -3.87569684 -8.49944296 -4.02735233 0 0 Z " fill="#DAB13F" transform="translate(239.5625,133.25)"/>
<path d="M0 0 C7.63930392 1.85677526 13.91866284 5.07186792 18.19921875 11.91796875 C20.2911321 16.66027006 20.8682244 22.07932154 19 27 C17.15625 28.32421875 17.15625 28.32421875 15 29 C8.731761 27.06254431 4.83555487 24.01524002 1.37109375 18.32421875 C-0.21631541 14.47554298 -0.34173115 11.2061935 -0.1875 7.125 C-0.17396484 6.43664063 -0.16042969 5.74828125 -0.14648438 5.0390625 C-0.1114837 3.35902999 -0.05768954 1.6794065 0 0 Z " fill="#DAB13F" transform="translate(111,38)"/>
<path d="M0 0 C0.99 0 1.98 0 3 0 C4.24609375 1.42578125 4.24609375 1.42578125 5.4375 3.3125 C7.3520031 6.19005618 9.15673251 7.99918213 12 10 C12 10.66 12 11.32 12 12 C9.18292629 11.91714489 7.46556687 11.42324261 5.3671875 9.515625 C2.6353013 6.42740582 0.76484106 4.1246786 0 0 Z " fill="#333535" transform="translate(43,213)"/>
<path d="M0 0 C0.66 0.33 1.32 0.66 2 1 C0.82612037 5.98898842 -2.18312389 7.98658122 -6.125 10.86328125 C-8 12 -8 12 -10 12 C-9.875 10.25 -9.875 10.25 -9 8 C-7.02678947 6.6273318 -5.02456848 5.29572383 -3 4 C-1.16699091 1.89424357 -1.16699091 1.89424357 0 0 Z " fill="#323435" transform="translate(222,204)"/>
<path d="M0 0 C2.83842501 0.08348309 4.54049314 0.5723728 6.6328125 2.51953125 C9.08062674 5.32801377 10.80971147 7.42913442 12 11 C11.01 11.33 10.02 11.66 9 12 C8.60167969 11.44570313 8.20335937 10.89140625 7.79296875 10.3203125 C7.26316406 9.59585938 6.73335937 8.87140625 6.1875 8.125 C5.66542969 7.40570313 5.14335937 6.68640625 4.60546875 5.9453125 C2.96727223 3.76971345 2.96727223 3.76971345 0 2 C0 1.34 0 0.68 0 0 Z " fill="#333535" transform="translate(204,37)"/>
<path d="M0 0 C0.33 0.99 0.66 1.98 1 3 C0.44570313 3.48210938 -0.10859375 3.96421875 -0.6796875 4.4609375 C-1.40414062 5.09257813 -2.12859375 5.72421875 -2.875 6.375 C-3.59429687 7.00148438 -4.31359375 7.62796875 -5.0546875 8.2734375 C-6.4076598 9.47426834 -7.7208345 10.7208345 -9 12 C-9.33 10.68 -9.66 9.36 -10 8 C-8.71064081 6.85157077 -7.41843421 5.70633773 -6.125 4.5625 C-5.04605469 3.60537109 -5.04605469 3.60537109 -3.9453125 2.62890625 C-2 1 -2 1 0 0 Z " fill="#353735" transform="translate(43,45)"/>
</svg>
